G04 Layer_Color=8388736*
%FSLAX43Y43*%
%MOMM*%
G71*
G01*
G75*
G04:AMPARAMS|DCode=59|XSize=1.26mm|YSize=1.51mm|CornerRadius=0.176mm|HoleSize=0mm|Usage=FLASHONLY|Rotation=270.000|XOffset=0mm|YOffset=0mm|HoleType=Round|Shape=RoundedRectangle|*
%AMROUNDEDRECTD59*
21,1,1.260,1.157,0,0,270.0*
21,1,0.907,1.510,0,0,270.0*
1,1,0.352,-0.579,-0.454*
1,1,0.352,-0.579,0.454*
1,1,0.352,0.579,0.454*
1,1,0.352,0.579,-0.454*
%
%ADD59ROUNDEDRECTD59*%
G04:AMPARAMS|DCode=60|XSize=0.66mm|YSize=0.65mm|CornerRadius=0.1mm|HoleSize=0mm|Usage=FLASHONLY|Rotation=90.000|XOffset=0mm|YOffset=0mm|HoleType=Round|Shape=RoundedRectangle|*
%AMROUNDEDRECTD60*
21,1,0.660,0.450,0,0,90.0*
21,1,0.460,0.650,0,0,90.0*
1,1,0.200,0.225,0.230*
1,1,0.200,0.225,-0.230*
1,1,0.200,-0.225,-0.230*
1,1,0.200,-0.225,0.230*
%
%ADD60ROUNDEDRECTD60*%
G04:AMPARAMS|DCode=61|XSize=0.66mm|YSize=0.65mm|CornerRadius=0.1mm|HoleSize=0mm|Usage=FLASHONLY|Rotation=0.000|XOffset=0mm|YOffset=0mm|HoleType=Round|Shape=RoundedRectangle|*
%AMROUNDEDRECTD61*
21,1,0.660,0.450,0,0,0.0*
21,1,0.460,0.650,0,0,0.0*
1,1,0.200,0.230,-0.225*
1,1,0.200,-0.230,-0.225*
1,1,0.200,-0.230,0.225*
1,1,0.200,0.230,0.225*
%
%ADD61ROUNDEDRECTD61*%
G04:AMPARAMS|DCode=62|XSize=0.4mm|YSize=1.6mm|CornerRadius=0.087mm|HoleSize=0mm|Usage=FLASHONLY|Rotation=180.000|XOffset=0mm|YOffset=0mm|HoleType=Round|Shape=RoundedRectangle|*
%AMROUNDEDRECTD62*
21,1,0.400,1.425,0,0,180.0*
21,1,0.225,1.600,0,0,180.0*
1,1,0.175,-0.113,0.713*
1,1,0.175,0.113,0.713*
1,1,0.175,0.113,-0.713*
1,1,0.175,-0.113,-0.713*
%
%ADD62ROUNDEDRECTD62*%
G04:AMPARAMS|DCode=63|XSize=0.4mm|YSize=1.6mm|CornerRadius=0.087mm|HoleSize=0mm|Usage=FLASHONLY|Rotation=90.000|XOffset=0mm|YOffset=0mm|HoleType=Round|Shape=RoundedRectangle|*
%AMROUNDEDRECTD63*
21,1,0.400,1.425,0,0,90.0*
21,1,0.225,1.600,0,0,90.0*
1,1,0.175,0.713,0.113*
1,1,0.175,0.713,-0.113*
1,1,0.175,-0.713,-0.113*
1,1,0.175,-0.713,0.113*
%
%ADD63ROUNDEDRECTD63*%
G04:AMPARAMS|DCode=64|XSize=0.45mm|YSize=1.1mm|CornerRadius=0.125mm|HoleSize=0mm|Usage=FLASHONLY|Rotation=0.000|XOffset=0mm|YOffset=0mm|HoleType=Round|Shape=RoundedRectangle|*
%AMROUNDEDRECTD64*
21,1,0.450,0.850,0,0,0.0*
21,1,0.200,1.100,0,0,0.0*
1,1,0.250,0.100,-0.425*
1,1,0.250,-0.100,-0.425*
1,1,0.250,-0.100,0.425*
1,1,0.250,0.100,0.425*
%
%ADD64ROUNDEDRECTD64*%
G04:AMPARAMS|DCode=65|XSize=0.55mm|YSize=0.55mm|CornerRadius=0.087mm|HoleSize=0mm|Usage=FLASHONLY|Rotation=0.000|XOffset=0mm|YOffset=0mm|HoleType=Round|Shape=RoundedRectangle|*
%AMROUNDEDRECTD65*
21,1,0.550,0.375,0,0,0.0*
21,1,0.375,0.550,0,0,0.0*
1,1,0.175,0.188,-0.188*
1,1,0.175,-0.188,-0.188*
1,1,0.175,-0.188,0.188*
1,1,0.175,0.188,0.188*
%
%ADD65ROUNDEDRECTD65*%
G04:AMPARAMS|DCode=66|XSize=0.64mm|YSize=0.65mm|CornerRadius=0.099mm|HoleSize=0mm|Usage=FLASHONLY|Rotation=0.000|XOffset=0mm|YOffset=0mm|HoleType=Round|Shape=RoundedRectangle|*
%AMROUNDEDRECTD66*
21,1,0.640,0.453,0,0,0.0*
21,1,0.443,0.650,0,0,0.0*
1,1,0.198,0.221,-0.226*
1,1,0.198,-0.221,-0.226*
1,1,0.198,-0.221,0.226*
1,1,0.198,0.221,0.226*
%
%ADD66ROUNDEDRECTD66*%
G04:AMPARAMS|DCode=67|XSize=1.26mm|YSize=1.51mm|CornerRadius=0.176mm|HoleSize=0mm|Usage=FLASHONLY|Rotation=180.000|XOffset=0mm|YOffset=0mm|HoleType=Round|Shape=RoundedRectangle|*
%AMROUNDEDRECTD67*
21,1,1.260,1.157,0,0,180.0*
21,1,0.907,1.510,0,0,180.0*
1,1,0.352,-0.454,0.579*
1,1,0.352,0.454,0.579*
1,1,0.352,0.454,-0.579*
1,1,0.352,-0.454,-0.579*
%
%ADD67ROUNDEDRECTD67*%
G04:AMPARAMS|DCode=68|XSize=0.64mm|YSize=0.65mm|CornerRadius=0.099mm|HoleSize=0mm|Usage=FLASHONLY|Rotation=90.000|XOffset=0mm|YOffset=0mm|HoleType=Round|Shape=RoundedRectangle|*
%AMROUNDEDRECTD68*
21,1,0.640,0.453,0,0,90.0*
21,1,0.443,0.650,0,0,90.0*
1,1,0.198,0.226,0.221*
1,1,0.198,0.226,-0.221*
1,1,0.198,-0.226,-0.221*
1,1,0.198,-0.226,0.221*
%
%ADD68ROUNDEDRECTD68*%
G04:AMPARAMS|DCode=69|XSize=0.99mm|YSize=1.08mm|CornerRadius=0.142mm|HoleSize=0mm|Usage=FLASHONLY|Rotation=0.000|XOffset=0mm|YOffset=0mm|HoleType=Round|Shape=RoundedRectangle|*
%AMROUNDEDRECTD69*
21,1,0.990,0.795,0,0,0.0*
21,1,0.705,1.080,0,0,0.0*
1,1,0.285,0.352,-0.398*
1,1,0.285,-0.352,-0.398*
1,1,0.285,-0.352,0.398*
1,1,0.285,0.352,0.398*
%
%ADD69ROUNDEDRECTD69*%
G04:AMPARAMS|DCode=70|XSize=0.99mm|YSize=1.08mm|CornerRadius=0.142mm|HoleSize=0mm|Usage=FLASHONLY|Rotation=90.000|XOffset=0mm|YOffset=0mm|HoleType=Round|Shape=RoundedRectangle|*
%AMROUNDEDRECTD70*
21,1,0.990,0.795,0,0,90.0*
21,1,0.705,1.080,0,0,90.0*
1,1,0.285,0.398,0.352*
1,1,0.285,0.398,-0.352*
1,1,0.285,-0.398,-0.352*
1,1,0.285,-0.398,0.352*
%
%ADD70ROUNDEDRECTD70*%
G04:AMPARAMS|DCode=71|XSize=0.73mm|YSize=2.22mm|CornerRadius=0.11mm|HoleSize=0mm|Usage=FLASHONLY|Rotation=90.000|XOffset=0mm|YOffset=0mm|HoleType=Round|Shape=RoundedRectangle|*
%AMROUNDEDRECTD71*
21,1,0.730,2.000,0,0,90.0*
21,1,0.510,2.220,0,0,90.0*
1,1,0.220,1.000,0.255*
1,1,0.220,1.000,-0.255*
1,1,0.220,-1.000,-0.255*
1,1,0.220,-1.000,0.255*
%
%ADD71ROUNDEDRECTD71*%
G04:AMPARAMS|DCode=72|XSize=1.1mm|YSize=1.12mm|CornerRadius=0.156mm|HoleSize=0mm|Usage=FLASHONLY|Rotation=180.000|XOffset=0mm|YOffset=0mm|HoleType=Round|Shape=RoundedRectangle|*
%AMROUNDEDRECTD72*
21,1,1.100,0.807,0,0,180.0*
21,1,0.787,1.120,0,0,180.0*
1,1,0.313,-0.394,0.404*
1,1,0.313,0.394,0.404*
1,1,0.313,0.394,-0.404*
1,1,0.313,-0.394,-0.404*
%
%ADD72ROUNDEDRECTD72*%
G04:AMPARAMS|DCode=73|XSize=1.58mm|YSize=1.07mm|CornerRadius=0.152mm|HoleSize=0mm|Usage=FLASHONLY|Rotation=0.000|XOffset=0mm|YOffset=0mm|HoleType=Round|Shape=RoundedRectangle|*
%AMROUNDEDRECTD73*
21,1,1.580,0.765,0,0,0.0*
21,1,1.275,1.070,0,0,0.0*
1,1,0.305,0.637,-0.383*
1,1,0.305,-0.637,-0.383*
1,1,0.305,-0.637,0.383*
1,1,0.305,0.637,0.383*
%
%ADD73ROUNDEDRECTD73*%
G04:AMPARAMS|DCode=74|XSize=1.31mm|YSize=0.63mm|CornerRadius=0.098mm|HoleSize=0mm|Usage=FLASHONLY|Rotation=90.000|XOffset=0mm|YOffset=0mm|HoleType=Round|Shape=RoundedRectangle|*
%AMROUNDEDRECTD74*
21,1,1.310,0.435,0,0,90.0*
21,1,1.115,0.630,0,0,90.0*
1,1,0.195,0.217,0.557*
1,1,0.195,0.217,-0.557*
1,1,0.195,-0.217,-0.557*
1,1,0.195,-0.217,0.557*
%
%ADD74ROUNDEDRECTD74*%
G04:AMPARAMS|DCode=75|XSize=1.02mm|YSize=1.9mm|CornerRadius=0.146mm|HoleSize=0mm|Usage=FLASHONLY|Rotation=0.000|XOffset=0mm|YOffset=0mm|HoleType=Round|Shape=RoundedRectangle|*
%AMROUNDEDRECTD75*
21,1,1.020,1.607,0,0,0.0*
21,1,0.728,1.900,0,0,0.0*
1,1,0.292,0.364,-0.804*
1,1,0.292,-0.364,-0.804*
1,1,0.292,-0.364,0.804*
1,1,0.292,0.364,0.804*
%
%ADD75ROUNDEDRECTD75*%
G04:AMPARAMS|DCode=76|XSize=3.32mm|YSize=1.9mm|CornerRadius=0.256mm|HoleSize=0mm|Usage=FLASHONLY|Rotation=0.000|XOffset=0mm|YOffset=0mm|HoleType=Round|Shape=RoundedRectangle|*
%AMROUNDEDRECTD76*
21,1,3.320,1.387,0,0,0.0*
21,1,2.808,1.900,0,0,0.0*
1,1,0.512,1.404,-0.694*
1,1,0.512,-1.404,-0.694*
1,1,0.512,-1.404,0.694*
1,1,0.512,1.404,0.694*
%
%ADD76ROUNDEDRECTD76*%
%ADD77R,1.650X0.350*%
G04:AMPARAMS|DCode=78|XSize=1.422mm|YSize=0.456mm|CornerRadius=0.076mm|HoleSize=0mm|Usage=FLASHONLY|Rotation=0.000|XOffset=0mm|YOffset=0mm|HoleType=Round|Shape=RoundedRectangle|*
%AMROUNDEDRECTD78*
21,1,1.422,0.305,0,0,0.0*
21,1,1.270,0.456,0,0,0.0*
1,1,0.152,0.635,-0.152*
1,1,0.152,-0.635,-0.152*
1,1,0.152,-0.635,0.152*
1,1,0.152,0.635,0.152*
%
%ADD78ROUNDEDRECTD78*%
G04:AMPARAMS|DCode=79|XSize=0.35mm|YSize=1.05mm|CornerRadius=0.063mm|HoleSize=0mm|Usage=FLASHONLY|Rotation=90.000|XOffset=0mm|YOffset=0mm|HoleType=Round|Shape=RoundedRectangle|*
%AMROUNDEDRECTD79*
21,1,0.350,0.925,0,0,90.0*
21,1,0.225,1.050,0,0,90.0*
1,1,0.125,0.463,0.113*
1,1,0.125,0.463,-0.113*
1,1,0.125,-0.463,-0.113*
1,1,0.125,-0.463,0.113*
%
%ADD79ROUNDEDRECTD79*%
%ADD80C,1.903*%
%ADD81C,1.750*%
%ADD82R,1.750X1.750*%
%ADD83C,0.050*%
%ADD84C,1.050*%
G04:AMPARAMS|DCode=85|XSize=1.05mm|YSize=1.45mm|CornerRadius=0.15mm|HoleSize=0mm|Usage=FLASHONLY|Rotation=0.000|XOffset=0mm|YOffset=0mm|HoleType=Round|Shape=RoundedRectangle|*
%AMROUNDEDRECTD85*
21,1,1.050,1.150,0,0,0.0*
21,1,0.750,1.450,0,0,0.0*
1,1,0.300,0.375,-0.575*
1,1,0.300,-0.375,-0.575*
1,1,0.300,-0.375,0.575*
1,1,0.300,0.375,0.575*
%
%ADD85ROUNDEDRECTD85*%
D59*
X-28981Y11817D02*
D03*
X-28981Y10127D02*
D03*
D60*
X-27175Y10842D02*
D03*
Y9842D02*
D03*
X-37700Y7800D02*
D03*
Y6800D02*
D03*
X-20158Y-8100D02*
D03*
Y-9100D02*
D03*
D61*
X-33675Y10300D02*
D03*
X-34675Y10300D02*
D03*
X-33675Y8892D02*
D03*
X-34675D02*
D03*
X-34870Y11600D02*
D03*
X-35870D02*
D03*
X-27325Y-6350D02*
D03*
X-26325D02*
D03*
X-23711Y-1419D02*
D03*
X-24711D02*
D03*
X-41600Y5446D02*
D03*
X-40600D02*
D03*
X-41600Y8300D02*
D03*
X-40600D02*
D03*
X-41600Y6800D02*
D03*
X-40600D02*
D03*
X-22600Y-8100D02*
D03*
X-21600D02*
D03*
D62*
X-33000Y-12850D02*
D03*
X-33500Y-12850D02*
D03*
X-34000D02*
D03*
X-34500D02*
D03*
X-35000Y-12850D02*
D03*
X-35500Y-12850D02*
D03*
X-36000Y-12850D02*
D03*
X-36500D02*
D03*
X-37000Y-12850D02*
D03*
X-37500Y-12850D02*
D03*
X-38000Y-12850D02*
D03*
X-38500Y-12850D02*
D03*
X-39000Y-12850D02*
D03*
X-39500D02*
D03*
X-40000Y-12850D02*
D03*
X-40500D02*
D03*
X-40500Y-1850D02*
D03*
X-40000Y-1850D02*
D03*
X-39500Y-1850D02*
D03*
X-39000Y-1850D02*
D03*
X-38500D02*
D03*
X-38000Y-1850D02*
D03*
X-37500Y-1850D02*
D03*
X-37000Y-1850D02*
D03*
X-36500Y-1850D02*
D03*
X-36000Y-1850D02*
D03*
X-35500Y-1850D02*
D03*
X-35000Y-1850D02*
D03*
X-34500D02*
D03*
X-34000Y-1850D02*
D03*
X-33500D02*
D03*
X-33000Y-1850D02*
D03*
D63*
X-42250Y-11100D02*
D03*
X-42250Y-10600D02*
D03*
X-42250Y-10100D02*
D03*
X-42250Y-9600D02*
D03*
X-42250Y-9100D02*
D03*
X-42250Y-8600D02*
D03*
X-42250Y-8100D02*
D03*
X-42250Y-7600D02*
D03*
X-42250Y-7100D02*
D03*
X-42250Y-6600D02*
D03*
X-42250Y-6100D02*
D03*
X-42250Y-5600D02*
D03*
X-42250Y-5100D02*
D03*
X-42250Y-4600D02*
D03*
X-42250Y-4100D02*
D03*
X-42250Y-3600D02*
D03*
X-31250Y-3600D02*
D03*
X-31250Y-4100D02*
D03*
X-31250Y-4600D02*
D03*
X-31250Y-5100D02*
D03*
X-31250Y-5600D02*
D03*
X-31250Y-6100D02*
D03*
X-31250Y-6600D02*
D03*
X-31250Y-7100D02*
D03*
X-31250Y-7600D02*
D03*
X-31250Y-8100D02*
D03*
X-31250Y-8600D02*
D03*
X-31250Y-9100D02*
D03*
X-31250Y-9600D02*
D03*
X-31250Y-10100D02*
D03*
X-31250Y-10600D02*
D03*
X-31250Y-11100D02*
D03*
D64*
X-39250Y2113D02*
D03*
X-37950D02*
D03*
X-39250Y3963D02*
D03*
X-38600D02*
D03*
X-37950D02*
D03*
X-38600Y2113D02*
D03*
D65*
X-16535Y-11700D02*
D03*
X-17935Y-11700D02*
D03*
D66*
X-32475Y1800D02*
D03*
X-33500Y1800D02*
D03*
X-28595Y-6375D02*
D03*
X-29620Y-6375D02*
D03*
X-29595Y-5100D02*
D03*
X-28570Y-5100D02*
D03*
X-29595Y-11325D02*
D03*
X-28570D02*
D03*
X-34000Y-350D02*
D03*
X-32975D02*
D03*
X-32005Y-13045D02*
D03*
X-30980D02*
D03*
X-41550Y-1850D02*
D03*
X-42575Y-1850D02*
D03*
X-28456Y13436D02*
D03*
X-29481Y13436D02*
D03*
D67*
X-19460Y-1419D02*
D03*
X-21150Y-1419D02*
D03*
X-39600Y10250D02*
D03*
X-41290D02*
D03*
X-23600Y-9900D02*
D03*
X-21910Y-9900D02*
D03*
D68*
X-19623Y13028D02*
D03*
X-19623Y12003D02*
D03*
X-29100Y3349D02*
D03*
Y4374D02*
D03*
X-35965Y9753D02*
D03*
X-35965Y8728D02*
D03*
X-29100Y5449D02*
D03*
X-29100Y6474D02*
D03*
X-42500Y-12095D02*
D03*
X-42500Y-13120D02*
D03*
D69*
X-43175Y12225D02*
D03*
X-41575D02*
D03*
X-42255Y-280D02*
D03*
X-40655Y-280D02*
D03*
D70*
X-44025Y-12800D02*
D03*
X-44025Y-11200D02*
D03*
D71*
X-35750Y7474D02*
D03*
X-35750Y6204D02*
D03*
X-35750Y4934D02*
D03*
X-35750Y3664D02*
D03*
X-30890Y7474D02*
D03*
X-30890Y6204D02*
D03*
X-30890Y4934D02*
D03*
X-30890Y3664D02*
D03*
D72*
X-27760Y-3480D02*
D03*
X-29280Y-3480D02*
D03*
D73*
X-19600Y6742D02*
D03*
X-19600Y8757D02*
D03*
D74*
X-25886Y8955D02*
D03*
X-25886Y6895D02*
D03*
D75*
X-24711Y826D02*
D03*
X-22400Y826D02*
D03*
X-20089Y826D02*
D03*
D76*
X-22400Y6924D02*
D03*
D77*
X-28150Y-7900D02*
D03*
Y-8850D02*
D03*
Y-9800D02*
D03*
D78*
X-25259Y13028D02*
D03*
X-25259Y12368D02*
D03*
X-25259Y11707D02*
D03*
Y11047D02*
D03*
X-20891Y11047D02*
D03*
Y11707D02*
D03*
X-20891Y12368D02*
D03*
X-20891Y13028D02*
D03*
D79*
X-33480Y13021D02*
D03*
X-33480Y12521D02*
D03*
X-33480Y12021D02*
D03*
X-33480Y11521D02*
D03*
X-30680Y13021D02*
D03*
X-30680Y12521D02*
D03*
X-30680Y12021D02*
D03*
X-30680Y11521D02*
D03*
D80*
X-7005Y-13400D02*
D03*
X-9545Y-13400D02*
D03*
D81*
X-12085Y-13400D02*
D03*
X-14625Y-13400D02*
D03*
D82*
X-17165Y-13400D02*
D03*
D83*
X-2500Y12500D02*
D03*
X-16000Y5000D02*
D03*
Y-5000D02*
D03*
X-2500Y-12500D02*
D03*
X-44342Y14333D02*
D03*
D84*
X-16000Y9000D02*
D03*
Y-9000D02*
D03*
X-35045Y12966D02*
D03*
X-36545D02*
D03*
X-39545D02*
D03*
X-38045D02*
D03*
X-43175Y4500D02*
D03*
Y6000D02*
D03*
Y7500D02*
D03*
Y10500D02*
D03*
Y9000D02*
D03*
D85*
X-23968Y-6575D02*
D03*
X-20158D02*
D03*
X-22698D02*
D03*
X-21428D02*
D03*
M02*
