G04 Layer_Color=65535*
%FSLAX43Y43*%
%MOMM*%
G71*
G01*
G75*
%ADD13C,0.200*%
%ADD14C,0.250*%
%ADD54C,0.600*%
%ADD55C,0.150*%
%ADD56C,0.100*%
%ADD57C,0.203*%
%ADD58C,0.152*%
G36*
X-44073Y9678D02*
Y9565D01*
X-44698Y9383D01*
Y9495D01*
X-44235Y9625D01*
X-44698Y9749D01*
Y9860D01*
X-44073Y9678D01*
D02*
G37*
G36*
X-39578Y14024D02*
X-39321D01*
Y13919D01*
X-39682D01*
Y14539D01*
X-39578D01*
Y14024D01*
D02*
G37*
G36*
X-37908Y14510D02*
X-37900D01*
X-37882Y14509D01*
X-37863Y14506D01*
X-37843Y14503D01*
X-37825Y14499D01*
X-37816Y14496D01*
X-37809Y14493D01*
X-37807Y14492D01*
X-37802Y14490D01*
X-37796Y14486D01*
X-37788Y14479D01*
X-37778Y14472D01*
X-37769Y14462D01*
X-37759Y14450D01*
X-37750Y14435D01*
X-37749Y14433D01*
X-37746Y14427D01*
X-37742Y14418D01*
X-37738Y14407D01*
X-37734Y14392D01*
X-37730Y14375D01*
X-37728Y14356D01*
X-37727Y14335D01*
Y14334D01*
Y14332D01*
Y14328D01*
X-37728Y14323D01*
Y14317D01*
X-37729Y14309D01*
X-37731Y14292D01*
X-37735Y14274D01*
X-37741Y14255D01*
X-37751Y14235D01*
X-37763Y14217D01*
Y14216D01*
X-37765Y14215D01*
X-37769Y14209D01*
X-37778Y14202D01*
X-37789Y14194D01*
X-37802Y14183D01*
X-37820Y14174D01*
X-37839Y14167D01*
X-37863Y14161D01*
X-37861Y14160D01*
X-37857Y14157D01*
X-37851Y14152D01*
X-37843Y14146D01*
X-37835Y14138D01*
X-37826Y14129D01*
X-37816Y14119D01*
X-37808Y14109D01*
X-37807Y14108D01*
X-37804Y14103D01*
X-37799Y14096D01*
X-37792Y14085D01*
X-37784Y14072D01*
X-37779Y14063D01*
X-37774Y14054D01*
X-37768Y14044D01*
X-37762Y14033D01*
X-37755Y14020D01*
X-37749Y14007D01*
X-37686Y13886D01*
X-37811D01*
X-37885Y14022D01*
Y14023D01*
X-37887Y14025D01*
X-37888Y14029D01*
X-37891Y14034D01*
X-37895Y14039D01*
X-37899Y14046D01*
X-37907Y14060D01*
X-37916Y14076D01*
X-37925Y14092D01*
X-37929Y14098D01*
X-37934Y14104D01*
X-37937Y14109D01*
X-37940Y14113D01*
X-37941Y14114D01*
X-37943Y14116D01*
X-37946Y14120D01*
X-37949Y14123D01*
X-37959Y14132D01*
X-37964Y14136D01*
X-37971Y14139D01*
X-37972D01*
X-37974Y14140D01*
X-37977Y14142D01*
X-37983Y14143D01*
X-37990Y14145D01*
X-37999Y14146D01*
X-38010Y14146D01*
X-38043D01*
Y13886D01*
X-38146D01*
Y14511D01*
X-37914D01*
X-37908Y14510D01*
D02*
G37*
G36*
X-44241Y11337D02*
X-44234Y11336D01*
X-44226Y11335D01*
X-44217Y11333D01*
X-44207Y11331D01*
X-44185Y11326D01*
X-44162Y11317D01*
X-44151Y11311D01*
X-44140Y11304D01*
X-44129Y11296D01*
X-44118Y11287D01*
X-44117Y11286D01*
X-44115Y11284D01*
X-44113Y11281D01*
X-44109Y11278D01*
X-44105Y11272D01*
X-44100Y11266D01*
X-44095Y11257D01*
X-44091Y11249D01*
X-44085Y11239D01*
X-44081Y11227D01*
X-44076Y11214D01*
X-44071Y11200D01*
X-44068Y11184D01*
X-44066Y11168D01*
X-44064Y11150D01*
X-44063Y11131D01*
Y11130D01*
Y11129D01*
Y11126D01*
Y11122D01*
X-44065Y11113D01*
X-44067Y11101D01*
X-44070Y11086D01*
X-44074Y11070D01*
X-44081Y11052D01*
X-44090Y11034D01*
X-44101Y11015D01*
X-44116Y10997D01*
X-44132Y10979D01*
X-44143Y10971D01*
X-44154Y10962D01*
X-44166Y10955D01*
X-44178Y10949D01*
X-44192Y10942D01*
X-44206Y10936D01*
X-44223Y10931D01*
X-44240Y10926D01*
X-44258Y10924D01*
X-44278Y10921D01*
X-44290Y11022D01*
X-44289D01*
X-44284Y11023D01*
X-44279Y11024D01*
X-44271Y11025D01*
X-44262Y11028D01*
X-44252Y11032D01*
X-44241Y11036D01*
X-44230Y11042D01*
X-44218Y11048D01*
X-44207Y11056D01*
X-44197Y11065D01*
X-44188Y11076D01*
X-44181Y11088D01*
X-44175Y11101D01*
X-44170Y11117D01*
X-44169Y11134D01*
Y11134D01*
Y11135D01*
Y11141D01*
X-44170Y11149D01*
X-44172Y11160D01*
X-44175Y11171D01*
X-44180Y11183D01*
X-44185Y11195D01*
X-44193Y11207D01*
X-44194Y11207D01*
X-44198Y11211D01*
X-44204Y11216D01*
X-44210Y11220D01*
X-44219Y11226D01*
X-44230Y11230D01*
X-44242Y11233D01*
X-44255Y11234D01*
X-44258D01*
X-44262Y11233D01*
X-44267D01*
X-44279Y11230D01*
X-44285Y11228D01*
X-44291Y11224D01*
X-44292D01*
X-44293Y11222D01*
X-44299Y11217D01*
X-44303Y11213D01*
X-44307Y11208D01*
X-44311Y11202D01*
X-44315Y11195D01*
X-44316Y11195D01*
X-44316Y11192D01*
X-44319Y11185D01*
X-44323Y11177D01*
X-44325Y11171D01*
X-44327Y11165D01*
X-44329Y11158D01*
X-44332Y11148D01*
X-44336Y11139D01*
X-44340Y11128D01*
X-44343Y11116D01*
X-44347Y11103D01*
Y11102D01*
X-44348Y11100D01*
X-44349Y11097D01*
X-44351Y11092D01*
X-44353Y11086D01*
X-44354Y11081D01*
X-44360Y11066D01*
X-44366Y11050D01*
X-44374Y11034D01*
X-44382Y11019D01*
X-44390Y11006D01*
X-44391Y11005D01*
X-44395Y11001D01*
X-44400Y10996D01*
X-44407Y10988D01*
X-44415Y10981D01*
X-44426Y10973D01*
X-44438Y10964D01*
X-44451Y10957D01*
X-44453Y10956D01*
X-44458Y10954D01*
X-44466Y10951D01*
X-44476Y10949D01*
X-44488Y10945D01*
X-44502Y10942D01*
X-44518Y10940D01*
X-44534Y10939D01*
X-44542D01*
X-44552Y10940D01*
X-44564Y10942D01*
X-44578Y10945D01*
X-44594Y10950D01*
X-44610Y10955D01*
X-44625Y10962D01*
X-44626D01*
X-44627Y10963D01*
X-44632Y10967D01*
X-44639Y10972D01*
X-44648Y10979D01*
X-44659Y10988D01*
X-44669Y10999D01*
X-44679Y11011D01*
X-44687Y11026D01*
Y11027D01*
X-44688Y11028D01*
X-44691Y11034D01*
X-44694Y11043D01*
X-44698Y11055D01*
X-44702Y11070D01*
X-44705Y11086D01*
X-44708Y11107D01*
X-44708Y11128D01*
Y11129D01*
Y11132D01*
Y11136D01*
X-44708Y11143D01*
X-44707Y11150D01*
X-44706Y11159D01*
X-44705Y11169D01*
X-44702Y11180D01*
X-44696Y11202D01*
X-44687Y11226D01*
X-44682Y11237D01*
X-44675Y11249D01*
X-44668Y11259D01*
X-44659Y11269D01*
X-44658Y11270D01*
X-44657Y11271D01*
X-44653Y11274D01*
X-44649Y11278D01*
X-44645Y11281D01*
X-44638Y11286D01*
X-44631Y11291D01*
X-44622Y11295D01*
X-44613Y11300D01*
X-44603Y11305D01*
X-44591Y11310D01*
X-44579Y11314D01*
X-44565Y11318D01*
X-44551Y11320D01*
X-44536Y11323D01*
X-44519Y11324D01*
X-44513Y11220D01*
X-44515D01*
X-44518Y11220D01*
X-44522Y11219D01*
X-44530Y11217D01*
X-44541Y11214D01*
X-44552Y11209D01*
X-44564Y11205D01*
X-44574Y11198D01*
X-44584Y11190D01*
X-44585Y11189D01*
X-44586Y11186D01*
X-44590Y11181D01*
X-44594Y11173D01*
X-44598Y11164D01*
X-44601Y11153D01*
X-44603Y11140D01*
X-44604Y11125D01*
Y11123D01*
Y11119D01*
X-44603Y11110D01*
X-44602Y11101D01*
X-44599Y11091D01*
X-44597Y11081D01*
X-44592Y11070D01*
X-44586Y11060D01*
X-44586Y11060D01*
X-44584Y11057D01*
X-44580Y11053D01*
X-44574Y11049D01*
X-44568Y11046D01*
X-44561Y11042D01*
X-44552Y11039D01*
X-44543Y11038D01*
X-44539D01*
X-44535Y11039D01*
X-44528Y11041D01*
X-44522Y11043D01*
X-44515Y11047D01*
X-44508Y11052D01*
X-44501Y11059D01*
X-44500Y11060D01*
X-44499Y11063D01*
X-44495Y11069D01*
X-44490Y11078D01*
X-44487Y11085D01*
X-44484Y11091D01*
X-44481Y11098D01*
X-44477Y11108D01*
X-44474Y11117D01*
X-44470Y11128D01*
X-44466Y11140D01*
X-44463Y11153D01*
Y11154D01*
X-44462Y11157D01*
X-44461Y11160D01*
X-44459Y11166D01*
X-44456Y11172D01*
X-44454Y11180D01*
X-44448Y11196D01*
X-44440Y11215D01*
X-44433Y11233D01*
X-44424Y11251D01*
X-44419Y11259D01*
X-44414Y11266D01*
X-44414Y11268D01*
X-44410Y11271D01*
X-44405Y11278D01*
X-44398Y11286D01*
X-44389Y11294D01*
X-44377Y11304D01*
X-44365Y11312D01*
X-44351Y11319D01*
X-44349Y11320D01*
X-44343Y11322D01*
X-44335Y11325D01*
X-44324Y11329D01*
X-44310Y11332D01*
X-44293Y11335D01*
X-44275Y11337D01*
X-44255Y11338D01*
X-44247D01*
X-44241Y11337D01*
D02*
G37*
G36*
X-44328Y10838D02*
X-44315D01*
X-44300Y10837D01*
X-44270Y10835D01*
X-44241Y10833D01*
X-44226Y10831D01*
X-44212Y10829D01*
X-44199Y10827D01*
X-44188Y10825D01*
X-44187D01*
X-44185Y10824D01*
X-44182Y10823D01*
X-44179Y10822D01*
X-44169Y10818D01*
X-44156Y10812D01*
X-44142Y10803D01*
X-44126Y10793D01*
X-44111Y10780D01*
X-44097Y10764D01*
Y10763D01*
X-44095Y10762D01*
X-44095Y10759D01*
X-44092Y10755D01*
X-44089Y10751D01*
X-44086Y10745D01*
X-44083Y10738D01*
X-44081Y10730D01*
X-44074Y10713D01*
X-44069Y10692D01*
X-44065Y10668D01*
X-44063Y10640D01*
Y10639D01*
Y10636D01*
Y10632D01*
X-44064Y10627D01*
Y10619D01*
X-44065Y10612D01*
X-44067Y10594D01*
X-44071Y10574D01*
X-44075Y10553D01*
X-44083Y10533D01*
X-44092Y10514D01*
Y10513D01*
X-44093Y10512D01*
X-44097Y10507D01*
X-44104Y10498D01*
X-44113Y10489D01*
X-44124Y10478D01*
X-44138Y10467D01*
X-44154Y10457D01*
X-44172Y10448D01*
X-44173D01*
X-44175Y10448D01*
X-44178Y10447D01*
X-44182Y10446D01*
X-44189Y10444D01*
X-44196Y10442D01*
X-44206Y10440D01*
X-44216Y10439D01*
X-44229Y10437D01*
X-44242Y10435D01*
X-44258Y10434D01*
X-44276Y10432D01*
X-44295Y10431D01*
X-44316Y10430D01*
X-44340Y10429D01*
X-44698D01*
Y10533D01*
X-44334D01*
X-44317Y10533D01*
X-44301D01*
X-44283Y10534D01*
X-44268Y10535D01*
X-44263D01*
X-44257Y10536D01*
X-44255D01*
X-44251Y10538D01*
X-44243Y10540D01*
X-44234Y10543D01*
X-44223Y10547D01*
X-44213Y10553D01*
X-44203Y10559D01*
X-44193Y10569D01*
X-44193Y10570D01*
X-44190Y10573D01*
X-44186Y10579D01*
X-44182Y10587D01*
X-44179Y10596D01*
X-44175Y10608D01*
X-44172Y10622D01*
X-44171Y10637D01*
Y10639D01*
Y10644D01*
X-44172Y10650D01*
X-44173Y10658D01*
X-44175Y10668D01*
X-44178Y10677D01*
X-44181Y10686D01*
X-44187Y10695D01*
X-44188Y10696D01*
X-44190Y10699D01*
X-44193Y10703D01*
X-44198Y10707D01*
X-44205Y10713D01*
X-44212Y10717D01*
X-44220Y10722D01*
X-44230Y10726D01*
X-44232D01*
X-44236Y10728D01*
X-44240D01*
X-44244Y10729D01*
X-44250Y10729D01*
X-44256Y10730D01*
X-44264Y10731D01*
X-44273Y10732D01*
X-44283Y10733D01*
X-44294D01*
X-44306Y10734D01*
X-44320Y10735D01*
X-44698D01*
Y10839D01*
X-44340D01*
X-44328Y10838D01*
D02*
G37*
G36*
X-44243Y10342D02*
X-44237D01*
X-44230Y10341D01*
X-44215Y10339D01*
X-44196Y10335D01*
X-44177Y10329D01*
X-44157Y10321D01*
X-44139Y10310D01*
X-44138D01*
X-44137Y10308D01*
X-44132Y10304D01*
X-44123Y10297D01*
X-44114Y10288D01*
X-44104Y10276D01*
X-44095Y10263D01*
X-44086Y10248D01*
X-44081Y10232D01*
Y10230D01*
X-44080Y10228D01*
Y10226D01*
X-44079Y10221D01*
Y10216D01*
X-44078Y10210D01*
X-44077Y10202D01*
X-44076Y10193D01*
Y10183D01*
X-44075Y10171D01*
X-44074Y10157D01*
Y10142D01*
X-44073Y10126D01*
Y10107D01*
Y10087D01*
Y9913D01*
X-44698D01*
Y10118D01*
Y10119D01*
Y10122D01*
Y10127D01*
Y10132D01*
Y10139D01*
X-44697Y10147D01*
X-44696Y10165D01*
X-44695Y10184D01*
X-44692Y10203D01*
X-44688Y10222D01*
X-44685Y10229D01*
X-44683Y10237D01*
X-44682Y10239D01*
X-44680Y10242D01*
X-44675Y10249D01*
X-44670Y10257D01*
X-44662Y10265D01*
X-44653Y10276D01*
X-44642Y10285D01*
X-44628Y10294D01*
X-44626Y10295D01*
X-44622Y10298D01*
X-44613Y10301D01*
X-44603Y10306D01*
X-44590Y10311D01*
X-44575Y10314D01*
X-44559Y10317D01*
X-44541Y10318D01*
X-44534D01*
X-44524Y10317D01*
X-44514Y10315D01*
X-44501Y10313D01*
X-44487Y10310D01*
X-44473Y10304D01*
X-44459Y10298D01*
X-44457Y10297D01*
X-44453Y10294D01*
X-44447Y10289D01*
X-44438Y10284D01*
X-44430Y10276D01*
X-44421Y10267D01*
X-44413Y10257D01*
X-44405Y10245D01*
Y10246D01*
X-44404Y10247D01*
X-44402Y10252D01*
X-44398Y10261D01*
X-44392Y10272D01*
X-44385Y10283D01*
X-44376Y10295D01*
X-44364Y10307D01*
X-44350Y10317D01*
X-44348Y10318D01*
X-44343Y10321D01*
X-44335Y10325D01*
X-44323Y10330D01*
X-44309Y10335D01*
X-44293Y10339D01*
X-44275Y10342D01*
X-44255Y10343D01*
X-44248D01*
X-44243Y10342D01*
D02*
G37*
G36*
X-35501Y14504D02*
X-35494Y14503D01*
X-35485Y14502D01*
X-35474Y14501D01*
X-35464Y14499D01*
X-35440Y14494D01*
X-35416Y14485D01*
X-35404Y14480D01*
X-35392Y14473D01*
X-35380Y14466D01*
X-35370Y14458D01*
X-35369Y14457D01*
X-35367Y14456D01*
X-35364Y14453D01*
X-35361Y14449D01*
X-35357Y14444D01*
X-35352Y14438D01*
X-35346Y14431D01*
X-35340Y14422D01*
X-35334Y14413D01*
X-35328Y14403D01*
X-35322Y14392D01*
X-35316Y14380D01*
X-35311Y14366D01*
X-35305Y14352D01*
X-35302Y14336D01*
X-35298Y14320D01*
X-35401Y14297D01*
Y14298D01*
X-35401Y14299D01*
X-35403Y14305D01*
X-35406Y14313D01*
X-35411Y14324D01*
X-35416Y14335D01*
X-35424Y14348D01*
X-35433Y14360D01*
X-35443Y14371D01*
X-35444Y14372D01*
X-35449Y14374D01*
X-35455Y14379D01*
X-35463Y14384D01*
X-35474Y14388D01*
X-35487Y14393D01*
X-35500Y14396D01*
X-35516Y14397D01*
X-35523D01*
X-35527Y14396D01*
X-35533Y14395D01*
X-35539Y14394D01*
X-35554Y14390D01*
X-35572Y14384D01*
X-35589Y14374D01*
X-35598Y14369D01*
X-35607Y14362D01*
X-35615Y14354D01*
X-35623Y14345D01*
Y14344D01*
X-35625Y14342D01*
X-35627Y14339D01*
X-35630Y14335D01*
X-35633Y14330D01*
X-35636Y14323D01*
X-35640Y14315D01*
X-35644Y14306D01*
X-35647Y14296D01*
X-35651Y14285D01*
X-35655Y14272D01*
X-35658Y14258D01*
X-35660Y14242D01*
X-35662Y14225D01*
X-35663Y14208D01*
X-35664Y14189D01*
Y14188D01*
Y14184D01*
Y14177D01*
X-35663Y14170D01*
Y14161D01*
X-35661Y14150D01*
X-35660Y14138D01*
X-35658Y14126D01*
X-35653Y14098D01*
X-35646Y14069D01*
X-35634Y14041D01*
X-35628Y14029D01*
X-35621Y14017D01*
X-35620Y14017D01*
X-35619Y14016D01*
X-35613Y14010D01*
X-35605Y14002D01*
X-35594Y13992D01*
X-35579Y13983D01*
X-35560Y13975D01*
X-35540Y13969D01*
X-35529Y13968D01*
X-35517Y13968D01*
X-35511D01*
X-35506Y13968D01*
X-35499Y13969D01*
X-35489Y13971D01*
X-35478Y13973D01*
X-35467Y13977D01*
X-35455Y13981D01*
X-35453Y13982D01*
X-35450Y13984D01*
X-35443Y13987D01*
X-35435Y13992D01*
X-35426Y13997D01*
X-35416Y14004D01*
X-35406Y14011D01*
X-35396Y14020D01*
Y14099D01*
X-35514D01*
Y14204D01*
X-35291D01*
Y13956D01*
X-35293Y13954D01*
X-35298Y13949D01*
X-35305Y13942D01*
X-35316Y13932D01*
X-35330Y13921D01*
X-35346Y13910D01*
X-35365Y13898D01*
X-35388Y13887D01*
X-35389D01*
X-35390Y13886D01*
X-35394Y13884D01*
X-35398Y13882D01*
X-35404Y13881D01*
X-35411Y13879D01*
X-35426Y13873D01*
X-35445Y13869D01*
X-35466Y13864D01*
X-35488Y13860D01*
X-35511Y13859D01*
X-35519D01*
X-35524Y13860D01*
X-35531D01*
X-35538Y13861D01*
X-35548Y13862D01*
X-35557Y13864D01*
X-35577Y13869D01*
X-35600Y13875D01*
X-35623Y13884D01*
X-35646Y13896D01*
X-35646Y13897D01*
X-35648Y13898D01*
X-35651Y13900D01*
X-35655Y13904D01*
X-35666Y13912D01*
X-35679Y13924D01*
X-35694Y13940D01*
X-35709Y13959D01*
X-35724Y13981D01*
X-35738Y14007D01*
Y14008D01*
X-35740Y14011D01*
X-35741Y14015D01*
X-35744Y14020D01*
X-35745Y14028D01*
X-35748Y14036D01*
X-35752Y14046D01*
X-35755Y14057D01*
X-35757Y14069D01*
X-35761Y14083D01*
X-35764Y14097D01*
X-35766Y14113D01*
X-35769Y14146D01*
X-35771Y14182D01*
Y14183D01*
Y14187D01*
Y14192D01*
X-35770Y14200D01*
Y14208D01*
X-35769Y14219D01*
X-35769Y14230D01*
X-35767Y14243D01*
X-35763Y14271D01*
X-35756Y14300D01*
X-35748Y14330D01*
X-35737Y14359D01*
Y14360D01*
X-35735Y14362D01*
X-35733Y14366D01*
X-35731Y14371D01*
X-35728Y14377D01*
X-35723Y14384D01*
X-35713Y14399D01*
X-35700Y14418D01*
X-35685Y14435D01*
X-35668Y14453D01*
X-35648Y14468D01*
X-35647D01*
X-35646Y14470D01*
X-35643Y14471D01*
X-35638Y14473D01*
X-35634Y14476D01*
X-35627Y14480D01*
X-35620Y14483D01*
X-35611Y14486D01*
X-35592Y14493D01*
X-35570Y14499D01*
X-35545Y14503D01*
X-35517Y14505D01*
X-35508D01*
X-35501Y14504D01*
D02*
G37*
G36*
X-34787Y13870D02*
X-34891D01*
X-35097Y14276D01*
Y13870D01*
X-35193D01*
Y14495D01*
X-35094D01*
X-34883Y14077D01*
Y14495D01*
X-34787D01*
Y13870D01*
D02*
G37*
G36*
X-34473Y14494D02*
X-34467D01*
X-34451Y14493D01*
X-34433Y14491D01*
X-34416Y14487D01*
X-34398Y14483D01*
X-34384Y14478D01*
X-34382Y14477D01*
X-34377Y14475D01*
X-34371Y14470D01*
X-34361Y14465D01*
X-34351Y14458D01*
X-34339Y14448D01*
X-34328Y14437D01*
X-34316Y14424D01*
X-34314Y14422D01*
X-34310Y14418D01*
X-34305Y14409D01*
X-34298Y14397D01*
X-34290Y14384D01*
X-34282Y14367D01*
X-34274Y14348D01*
X-34267Y14325D01*
Y14324D01*
X-34266Y14323D01*
X-34265Y14319D01*
X-34264Y14314D01*
X-34263Y14309D01*
X-34261Y14301D01*
X-34260Y14293D01*
X-34258Y14284D01*
X-34257Y14274D01*
X-34255Y14262D01*
X-34253Y14250D01*
X-34252Y14237D01*
X-34250Y14208D01*
X-34249Y14176D01*
Y14175D01*
Y14172D01*
Y14167D01*
Y14162D01*
X-34250Y14155D01*
Y14147D01*
X-34251Y14138D01*
Y14127D01*
X-34254Y14105D01*
X-34257Y14081D01*
X-34261Y14057D01*
X-34268Y14034D01*
Y14033D01*
X-34269Y14031D01*
X-34270Y14029D01*
X-34272Y14024D01*
X-34275Y14013D01*
X-34281Y14000D01*
X-34287Y13984D01*
X-34296Y13968D01*
X-34305Y13953D01*
X-34315Y13939D01*
X-34316Y13937D01*
X-34320Y13933D01*
X-34326Y13927D01*
X-34334Y13919D01*
X-34344Y13911D01*
X-34355Y13903D01*
X-34368Y13894D01*
X-34383Y13887D01*
X-34384Y13886D01*
X-34390Y13884D01*
X-34398Y13882D01*
X-34410Y13879D01*
X-34425Y13875D01*
X-34443Y13872D01*
X-34463Y13870D01*
X-34485Y13870D01*
X-34679D01*
Y14495D01*
X-34479D01*
X-34473Y14494D01*
D02*
G37*
G36*
X-36148Y14520D02*
X-36141Y14519D01*
X-36132Y14518D01*
X-36123Y14516D01*
X-36113Y14513D01*
X-36090Y14506D01*
X-36078Y14501D01*
X-36066Y14496D01*
X-36054Y14489D01*
X-36042Y14480D01*
X-36030Y14471D01*
X-36019Y14461D01*
X-36018D01*
X-36017Y14459D01*
X-36015Y14456D01*
X-36012Y14453D01*
X-36009Y14449D01*
X-36005Y14443D01*
X-36000Y14437D01*
X-35996Y14429D01*
X-35991Y14421D01*
X-35985Y14413D01*
X-35981Y14403D01*
X-35975Y14391D01*
X-35971Y14378D01*
X-35966Y14366D01*
X-35961Y14352D01*
X-35958Y14337D01*
X-36060Y14307D01*
Y14308D01*
X-36061Y14309D01*
Y14312D01*
X-36062Y14316D01*
X-36065Y14325D01*
X-36069Y14336D01*
X-36074Y14349D01*
X-36082Y14362D01*
X-36090Y14374D01*
X-36100Y14385D01*
X-36101Y14386D01*
X-36105Y14390D01*
X-36111Y14394D01*
X-36119Y14399D01*
X-36130Y14404D01*
X-36141Y14408D01*
X-36154Y14412D01*
X-36168Y14413D01*
X-36174D01*
X-36178Y14412D01*
X-36188Y14410D01*
X-36201Y14406D01*
X-36216Y14401D01*
X-36231Y14391D01*
X-36239Y14386D01*
X-36246Y14379D01*
X-36254Y14372D01*
X-36261Y14363D01*
Y14362D01*
X-36263Y14361D01*
X-36264Y14357D01*
X-36266Y14354D01*
X-36269Y14348D01*
X-36272Y14342D01*
X-36275Y14333D01*
X-36278Y14324D01*
X-36282Y14314D01*
X-36285Y14302D01*
X-36288Y14288D01*
X-36291Y14273D01*
X-36292Y14257D01*
X-36294Y14240D01*
X-36296Y14220D01*
Y14200D01*
Y14199D01*
Y14194D01*
Y14189D01*
X-36295Y14181D01*
Y14171D01*
X-36294Y14160D01*
X-36293Y14148D01*
X-36291Y14135D01*
X-36288Y14108D01*
X-36281Y14080D01*
X-36278Y14067D01*
X-36273Y14054D01*
X-36267Y14043D01*
X-36262Y14033D01*
Y14032D01*
X-36260Y14031D01*
X-36255Y14025D01*
X-36248Y14017D01*
X-36237Y14009D01*
X-36224Y13999D01*
X-36209Y13991D01*
X-36191Y13986D01*
X-36181Y13985D01*
X-36171Y13984D01*
X-36169D01*
X-36165Y13985D01*
X-36156Y13986D01*
X-36147Y13987D01*
X-36136Y13991D01*
X-36124Y13997D01*
X-36112Y14005D01*
X-36101Y14015D01*
X-36100Y14017D01*
X-36096Y14022D01*
X-36091Y14029D01*
X-36084Y14040D01*
X-36077Y14054D01*
X-36070Y14072D01*
X-36063Y14092D01*
X-36058Y14117D01*
X-35957Y14078D01*
Y14077D01*
X-35958Y14073D01*
X-35960Y14068D01*
X-35961Y14060D01*
X-35964Y14052D01*
X-35967Y14042D01*
X-35971Y14031D01*
X-35975Y14019D01*
X-35986Y13994D01*
X-36000Y13968D01*
X-36016Y13944D01*
X-36025Y13934D01*
X-36035Y13924D01*
X-36036Y13923D01*
X-36038Y13922D01*
X-36041Y13919D01*
X-36046Y13916D01*
X-36050Y13913D01*
X-36057Y13909D01*
X-36064Y13904D01*
X-36072Y13900D01*
X-36082Y13895D01*
X-36092Y13890D01*
X-36115Y13883D01*
X-36141Y13877D01*
X-36155Y13876D01*
X-36169Y13876D01*
X-36174D01*
X-36179Y13876D01*
X-36186D01*
X-36194Y13878D01*
X-36205Y13879D01*
X-36216Y13882D01*
X-36228Y13885D01*
X-36241Y13889D01*
X-36254Y13894D01*
X-36266Y13900D01*
X-36280Y13908D01*
X-36294Y13917D01*
X-36307Y13927D01*
X-36320Y13938D01*
X-36332Y13952D01*
X-36333Y13953D01*
X-36335Y13956D01*
X-36339Y13962D01*
X-36343Y13969D01*
X-36349Y13977D01*
X-36354Y13988D01*
X-36361Y14001D01*
X-36367Y14016D01*
X-36375Y14032D01*
X-36381Y14050D01*
X-36387Y14070D01*
X-36392Y14091D01*
X-36397Y14114D01*
X-36401Y14139D01*
X-36402Y14165D01*
X-36403Y14193D01*
Y14194D01*
Y14194D01*
Y14200D01*
X-36402Y14208D01*
Y14219D01*
X-36401Y14232D01*
X-36400Y14248D01*
X-36397Y14265D01*
X-36394Y14283D01*
X-36390Y14304D01*
X-36386Y14324D01*
X-36380Y14344D01*
X-36373Y14366D01*
X-36364Y14386D01*
X-36355Y14405D01*
X-36344Y14425D01*
X-36331Y14442D01*
X-36330Y14443D01*
X-36328Y14446D01*
X-36325Y14450D01*
X-36320Y14454D01*
X-36314Y14461D01*
X-36306Y14467D01*
X-36297Y14475D01*
X-36287Y14482D01*
X-36276Y14489D01*
X-36263Y14496D01*
X-36249Y14502D01*
X-36234Y14509D01*
X-36217Y14513D01*
X-36201Y14517D01*
X-36182Y14520D01*
X-36163Y14521D01*
X-36155D01*
X-36148Y14520D01*
D02*
G37*
G36*
X-36686Y13886D02*
X-36782D01*
Y14378D01*
X-36886Y13886D01*
X-36985D01*
X-37087Y14378D01*
Y13886D01*
X-37183D01*
Y14511D01*
X-37028D01*
X-36935Y14083D01*
X-36842Y14511D01*
X-36686D01*
Y13886D01*
D02*
G37*
G36*
X-36484D02*
X-36587D01*
Y14511D01*
X-36484D01*
Y13886D01*
D02*
G37*
G36*
X-44327Y7645D02*
X-44319D01*
X-44309Y7644D01*
X-44299D01*
X-44277Y7641D01*
X-44253Y7638D01*
X-44229Y7634D01*
X-44206Y7627D01*
X-44205D01*
X-44203Y7626D01*
X-44200Y7625D01*
X-44196Y7624D01*
X-44185Y7620D01*
X-44172Y7614D01*
X-44156Y7608D01*
X-44140Y7600D01*
X-44125Y7590D01*
X-44111Y7580D01*
X-44109Y7579D01*
X-44105Y7575D01*
X-44099Y7569D01*
X-44091Y7562D01*
X-44083Y7551D01*
X-44075Y7540D01*
X-44066Y7527D01*
X-44059Y7513D01*
X-44058Y7511D01*
X-44056Y7505D01*
X-44053Y7497D01*
X-44051Y7485D01*
X-44047Y7470D01*
X-44044Y7452D01*
X-44042Y7432D01*
X-44041Y7410D01*
Y7216D01*
X-44666D01*
Y7404D01*
Y7405D01*
Y7407D01*
Y7411D01*
Y7416D01*
X-44665Y7422D01*
Y7428D01*
X-44664Y7444D01*
X-44663Y7462D01*
X-44659Y7479D01*
X-44655Y7497D01*
X-44650Y7512D01*
X-44649Y7514D01*
X-44647Y7518D01*
X-44642Y7525D01*
X-44637Y7534D01*
X-44629Y7544D01*
X-44620Y7556D01*
X-44609Y7567D01*
X-44596Y7579D01*
X-44594Y7581D01*
X-44590Y7585D01*
X-44581Y7590D01*
X-44569Y7597D01*
X-44555Y7605D01*
X-44539Y7613D01*
X-44519Y7621D01*
X-44497Y7628D01*
X-44496D01*
X-44494Y7629D01*
X-44491Y7630D01*
X-44486Y7631D01*
X-44480Y7632D01*
X-44473Y7634D01*
X-44465Y7636D01*
X-44456Y7637D01*
X-44445Y7638D01*
X-44434Y7640D01*
X-44422Y7642D01*
X-44408Y7643D01*
X-44380Y7645D01*
X-44347Y7646D01*
X-44333D01*
X-44327Y7645D01*
D02*
G37*
G36*
X-44260Y9147D02*
X-44381D01*
Y9341D01*
X-44260D01*
Y9147D01*
D02*
G37*
G36*
X-44073Y4524D02*
X-44480Y4318D01*
X-44073D01*
Y4222D01*
X-44698D01*
Y4321D01*
X-44280Y4532D01*
X-44698D01*
Y4628D01*
X-44073D01*
Y4524D01*
D02*
G37*
G36*
X-44157Y4122D02*
X-44153Y4117D01*
X-44145Y4110D01*
X-44136Y4099D01*
X-44125Y4085D01*
X-44114Y4069D01*
X-44102Y4050D01*
X-44091Y4027D01*
Y4026D01*
X-44090Y4025D01*
X-44088Y4021D01*
X-44086Y4017D01*
X-44084Y4011D01*
X-44083Y4004D01*
X-44077Y3989D01*
X-44072Y3970D01*
X-44068Y3949D01*
X-44064Y3927D01*
X-44063Y3903D01*
Y3903D01*
Y3900D01*
Y3896D01*
X-44064Y3891D01*
Y3884D01*
X-44065Y3877D01*
X-44066Y3867D01*
X-44068Y3858D01*
X-44072Y3838D01*
X-44079Y3815D01*
X-44088Y3792D01*
X-44100Y3769D01*
X-44101Y3768D01*
X-44102Y3767D01*
X-44104Y3764D01*
X-44108Y3760D01*
X-44116Y3749D01*
X-44128Y3736D01*
X-44144Y3721D01*
X-44163Y3706D01*
X-44185Y3691D01*
X-44211Y3677D01*
X-44212D01*
X-44215Y3675D01*
X-44218Y3674D01*
X-44224Y3671D01*
X-44231Y3670D01*
X-44240Y3667D01*
X-44250Y3663D01*
X-44261Y3660D01*
X-44273Y3658D01*
X-44287Y3654D01*
X-44301Y3651D01*
X-44316Y3649D01*
X-44350Y3646D01*
X-44386Y3644D01*
X-44396D01*
X-44403Y3645D01*
X-44412D01*
X-44423Y3646D01*
X-44434Y3646D01*
X-44447Y3648D01*
X-44475Y3652D01*
X-44504Y3658D01*
X-44534Y3667D01*
X-44562Y3678D01*
X-44563D01*
X-44566Y3680D01*
X-44570Y3682D01*
X-44574Y3684D01*
X-44581Y3687D01*
X-44587Y3692D01*
X-44603Y3702D01*
X-44622Y3715D01*
X-44639Y3730D01*
X-44657Y3747D01*
X-44671Y3767D01*
Y3768D01*
X-44673Y3769D01*
X-44675Y3772D01*
X-44677Y3777D01*
X-44680Y3781D01*
X-44684Y3788D01*
X-44686Y3795D01*
X-44690Y3804D01*
X-44696Y3823D01*
X-44703Y3845D01*
X-44707Y3870D01*
X-44708Y3898D01*
Y3899D01*
Y3902D01*
Y3907D01*
X-44708Y3914D01*
X-44707Y3921D01*
X-44706Y3930D01*
X-44705Y3940D01*
X-44703Y3951D01*
X-44697Y3975D01*
X-44689Y3999D01*
X-44684Y4011D01*
X-44677Y4023D01*
X-44670Y4035D01*
X-44661Y4045D01*
X-44660Y4046D01*
X-44659Y4048D01*
X-44657Y4050D01*
X-44653Y4054D01*
X-44647Y4058D01*
X-44642Y4063D01*
X-44635Y4069D01*
X-44626Y4075D01*
X-44617Y4081D01*
X-44607Y4087D01*
X-44596Y4093D01*
X-44584Y4099D01*
X-44570Y4104D01*
X-44556Y4110D01*
X-44540Y4113D01*
X-44524Y4117D01*
X-44500Y4014D01*
X-44501D01*
X-44502Y4013D01*
X-44509Y4012D01*
X-44517Y4009D01*
X-44528Y4004D01*
X-44539Y3999D01*
X-44552Y3991D01*
X-44564Y3982D01*
X-44574Y3972D01*
X-44575Y3971D01*
X-44578Y3966D01*
X-44583Y3960D01*
X-44587Y3952D01*
X-44592Y3940D01*
X-44597Y3928D01*
X-44599Y3915D01*
X-44600Y3899D01*
Y3898D01*
Y3896D01*
Y3892D01*
X-44599Y3888D01*
X-44598Y3882D01*
X-44598Y3876D01*
X-44594Y3861D01*
X-44587Y3843D01*
X-44578Y3826D01*
X-44573Y3817D01*
X-44566Y3808D01*
X-44558Y3800D01*
X-44549Y3792D01*
X-44548D01*
X-44546Y3790D01*
X-44543Y3788D01*
X-44539Y3785D01*
X-44534Y3782D01*
X-44527Y3779D01*
X-44519Y3775D01*
X-44510Y3771D01*
X-44500Y3768D01*
X-44488Y3764D01*
X-44475Y3760D01*
X-44462Y3757D01*
X-44446Y3755D01*
X-44429Y3753D01*
X-44412Y3752D01*
X-44392Y3751D01*
X-44381D01*
X-44374Y3752D01*
X-44365D01*
X-44353Y3754D01*
X-44341Y3755D01*
X-44329Y3756D01*
X-44302Y3762D01*
X-44273Y3769D01*
X-44245Y3780D01*
X-44233Y3787D01*
X-44221Y3794D01*
X-44220Y3795D01*
X-44219Y3796D01*
X-44214Y3802D01*
X-44206Y3810D01*
X-44196Y3821D01*
X-44187Y3836D01*
X-44179Y3854D01*
X-44173Y3875D01*
X-44172Y3886D01*
X-44171Y3898D01*
Y3899D01*
Y3903D01*
X-44172Y3909D01*
X-44173Y3916D01*
X-44175Y3926D01*
X-44177Y3937D01*
X-44181Y3948D01*
X-44185Y3960D01*
X-44186Y3962D01*
X-44188Y3965D01*
X-44191Y3972D01*
X-44195Y3980D01*
X-44201Y3989D01*
X-44207Y3999D01*
X-44215Y4009D01*
X-44224Y4019D01*
X-44303D01*
Y3901D01*
X-44408D01*
Y4124D01*
X-44159D01*
X-44157Y4122D01*
D02*
G37*
G36*
X-44327Y6387D02*
X-44319D01*
X-44309Y6386D01*
X-44299D01*
X-44277Y6383D01*
X-44253Y6380D01*
X-44229Y6376D01*
X-44206Y6369D01*
X-44205D01*
X-44203Y6368D01*
X-44200Y6367D01*
X-44196Y6365D01*
X-44185Y6362D01*
X-44172Y6356D01*
X-44156Y6350D01*
X-44140Y6341D01*
X-44125Y6332D01*
X-44111Y6322D01*
X-44109Y6321D01*
X-44105Y6317D01*
X-44099Y6311D01*
X-44091Y6303D01*
X-44083Y6293D01*
X-44075Y6282D01*
X-44066Y6269D01*
X-44059Y6254D01*
X-44058Y6253D01*
X-44056Y6247D01*
X-44053Y6239D01*
X-44051Y6227D01*
X-44047Y6212D01*
X-44044Y6194D01*
X-44042Y6174D01*
X-44041Y6152D01*
Y5958D01*
X-44666D01*
Y6146D01*
Y6147D01*
Y6149D01*
Y6153D01*
Y6158D01*
X-44665Y6164D01*
Y6170D01*
X-44664Y6186D01*
X-44663Y6204D01*
X-44659Y6221D01*
X-44655Y6239D01*
X-44650Y6253D01*
X-44649Y6255D01*
X-44647Y6260D01*
X-44642Y6266D01*
X-44637Y6276D01*
X-44629Y6286D01*
X-44620Y6298D01*
X-44609Y6309D01*
X-44596Y6321D01*
X-44594Y6323D01*
X-44590Y6326D01*
X-44581Y6332D01*
X-44569Y6339D01*
X-44555Y6347D01*
X-44539Y6355D01*
X-44519Y6363D01*
X-44497Y6370D01*
X-44496D01*
X-44494Y6371D01*
X-44491Y6372D01*
X-44486Y6373D01*
X-44480Y6374D01*
X-44473Y6376D01*
X-44465Y6377D01*
X-44456Y6379D01*
X-44445Y6380D01*
X-44434Y6382D01*
X-44422Y6384D01*
X-44408Y6385D01*
X-44380Y6387D01*
X-44347Y6388D01*
X-44333D01*
X-44327Y6387D01*
D02*
G37*
G36*
X-44041Y5756D02*
X-44666D01*
Y5860D01*
X-44041D01*
Y5756D01*
D02*
G37*
G36*
X-44380Y9089D02*
X-44371D01*
X-44362Y9088D01*
X-44352D01*
X-44330Y9085D01*
X-44306Y9083D01*
X-44282Y9078D01*
X-44259Y9071D01*
X-44258D01*
X-44256Y9071D01*
X-44253Y9070D01*
X-44248Y9068D01*
X-44237Y9064D01*
X-44224Y9058D01*
X-44209Y9052D01*
X-44193Y9044D01*
X-44177Y9034D01*
X-44163Y9024D01*
X-44162Y9023D01*
X-44158Y9020D01*
X-44151Y9013D01*
X-44144Y9006D01*
X-44136Y8996D01*
X-44127Y8985D01*
X-44119Y8972D01*
X-44112Y8957D01*
X-44111Y8955D01*
X-44109Y8949D01*
X-44106Y8941D01*
X-44103Y8929D01*
X-44100Y8914D01*
X-44097Y8897D01*
X-44095Y8876D01*
X-44094Y8854D01*
Y8660D01*
X-44719D01*
Y8849D01*
Y8850D01*
Y8851D01*
Y8855D01*
Y8861D01*
X-44718Y8866D01*
Y8873D01*
X-44717Y8888D01*
X-44715Y8906D01*
X-44712Y8923D01*
X-44708Y8941D01*
X-44702Y8956D01*
X-44701Y8958D01*
X-44700Y8962D01*
X-44695Y8969D01*
X-44689Y8978D01*
X-44682Y8988D01*
X-44673Y9000D01*
X-44662Y9011D01*
X-44649Y9023D01*
X-44647Y9025D01*
X-44642Y9029D01*
X-44634Y9034D01*
X-44622Y9041D01*
X-44608Y9049D01*
X-44591Y9058D01*
X-44572Y9065D01*
X-44550Y9072D01*
X-44549D01*
X-44547Y9073D01*
X-44543Y9074D01*
X-44539Y9075D01*
X-44533Y9076D01*
X-44526Y9078D01*
X-44518Y9080D01*
X-44508Y9082D01*
X-44498Y9083D01*
X-44487Y9084D01*
X-44475Y9086D01*
X-44461Y9087D01*
X-44432Y9089D01*
X-44400Y9090D01*
X-44386D01*
X-44380Y9089D01*
D02*
G37*
G36*
X-44294Y7934D02*
X-44131D01*
Y7845D01*
X-44294D01*
Y7710D01*
X-44406D01*
Y7845D01*
X-44568D01*
Y7934D01*
X-44406D01*
Y8069D01*
X-44294D01*
Y7934D01*
D02*
G37*
G36*
X-44359Y5165D02*
X-44351D01*
X-44341Y5164D01*
X-44331D01*
X-44309Y5161D01*
X-44285Y5158D01*
X-44261Y5153D01*
X-44238Y5147D01*
X-44237D01*
X-44235Y5146D01*
X-44232Y5145D01*
X-44228Y5143D01*
X-44217Y5140D01*
X-44204Y5134D01*
X-44188Y5128D01*
X-44172Y5119D01*
X-44157Y5110D01*
X-44143Y5100D01*
X-44141Y5099D01*
X-44137Y5095D01*
X-44131Y5089D01*
X-44123Y5081D01*
X-44115Y5071D01*
X-44107Y5060D01*
X-44098Y5047D01*
X-44091Y5032D01*
X-44090Y5031D01*
X-44088Y5025D01*
X-44085Y5017D01*
X-44083Y5005D01*
X-44079Y4990D01*
X-44076Y4972D01*
X-44074Y4952D01*
X-44073Y4930D01*
Y4736D01*
X-44698D01*
Y4924D01*
Y4925D01*
Y4927D01*
Y4931D01*
Y4936D01*
X-44697Y4942D01*
Y4948D01*
X-44696Y4964D01*
X-44695Y4982D01*
X-44691Y4999D01*
X-44687Y5017D01*
X-44682Y5031D01*
X-44681Y5033D01*
X-44679Y5038D01*
X-44674Y5044D01*
X-44669Y5054D01*
X-44661Y5064D01*
X-44652Y5076D01*
X-44641Y5087D01*
X-44628Y5099D01*
X-44626Y5101D01*
X-44622Y5104D01*
X-44613Y5110D01*
X-44601Y5116D01*
X-44587Y5125D01*
X-44571Y5133D01*
X-44551Y5141D01*
X-44529Y5148D01*
X-44528D01*
X-44526Y5149D01*
X-44523Y5150D01*
X-44518Y5151D01*
X-44512Y5152D01*
X-44505Y5153D01*
X-44497Y5155D01*
X-44487Y5157D01*
X-44477Y5158D01*
X-44466Y5160D01*
X-44454Y5162D01*
X-44440Y5163D01*
X-44412Y5165D01*
X-44379Y5165D01*
X-44365D01*
X-44359Y5165D01*
D02*
G37*
%LPC*%
G36*
X-37939Y14405D02*
X-38043D01*
Y14246D01*
X-37944D01*
X-37929Y14247D01*
X-37914D01*
X-37900Y14249D01*
X-37887Y14250D01*
X-37882Y14251D01*
X-37877Y14252D01*
X-37876D01*
X-37874Y14253D01*
X-37871Y14255D01*
X-37866Y14257D01*
X-37861Y14261D01*
X-37856Y14265D01*
X-37851Y14270D01*
X-37846Y14277D01*
X-37845Y14278D01*
X-37844Y14280D01*
X-37842Y14284D01*
X-37839Y14291D01*
X-37838Y14297D01*
X-37836Y14306D01*
X-37835Y14316D01*
X-37834Y14327D01*
Y14328D01*
Y14331D01*
X-37835Y14337D01*
X-37836Y14344D01*
X-37839Y14360D01*
X-37842Y14367D01*
X-37846Y14375D01*
X-37847Y14376D01*
X-37848Y14378D01*
X-37851Y14381D01*
X-37854Y14385D01*
X-37859Y14389D01*
X-37864Y14393D01*
X-37871Y14397D01*
X-37878Y14400D01*
X-37879D01*
X-37882Y14401D01*
X-37887Y14402D01*
X-37894Y14403D01*
X-37900Y14403D01*
X-37905D01*
X-37913Y14404D01*
X-37929D01*
X-37939Y14405D01*
D02*
G37*
G36*
X-44260Y10236D02*
X-44266D01*
X-44271Y10235D01*
X-44278Y10234D01*
X-44286Y10232D01*
X-44294Y10230D01*
X-44303Y10227D01*
X-44310Y10222D01*
X-44311Y10221D01*
X-44314Y10219D01*
X-44316Y10216D01*
X-44321Y10213D01*
X-44326Y10208D01*
X-44330Y10202D01*
X-44334Y10195D01*
X-44338Y10188D01*
Y10187D01*
X-44339Y10183D01*
X-44340Y10178D01*
X-44342Y10169D01*
X-44343Y10157D01*
X-44345Y10141D01*
Y10133D01*
X-44346Y10123D01*
Y10112D01*
Y10100D01*
Y10017D01*
X-44179D01*
Y10112D01*
Y10113D01*
Y10115D01*
Y10117D01*
Y10122D01*
Y10133D01*
X-44180Y10145D01*
X-44181Y10159D01*
X-44181Y10172D01*
X-44183Y10184D01*
X-44184Y10189D01*
X-44185Y10192D01*
Y10193D01*
X-44186Y10195D01*
X-44188Y10199D01*
X-44191Y10203D01*
X-44194Y10208D01*
X-44199Y10213D01*
X-44205Y10218D01*
X-44211Y10223D01*
X-44212Y10224D01*
X-44215Y10225D01*
X-44218Y10227D01*
X-44225Y10229D01*
X-44231Y10232D01*
X-44240Y10234D01*
X-44250Y10235D01*
X-44260Y10236D01*
D02*
G37*
G36*
X-44524Y10217D02*
X-44528D01*
X-44533Y10216D01*
X-44539Y10215D01*
X-44553Y10212D01*
X-44561Y10209D01*
X-44567Y10204D01*
X-44568Y10203D01*
X-44570Y10202D01*
X-44573Y10200D01*
X-44576Y10196D01*
X-44584Y10187D01*
X-44587Y10181D01*
X-44589Y10175D01*
Y10174D01*
X-44590Y10171D01*
X-44591Y10166D01*
Y10161D01*
X-44592Y10156D01*
Y10151D01*
Y10143D01*
X-44593Y10135D01*
Y10126D01*
X-44594Y10116D01*
Y10104D01*
Y10091D01*
Y10076D01*
Y10017D01*
X-44451D01*
Y10084D01*
Y10085D01*
Y10087D01*
Y10090D01*
Y10094D01*
Y10104D01*
Y10117D01*
X-44451Y10130D01*
Y10142D01*
Y10153D01*
X-44452Y10157D01*
Y10161D01*
Y10162D01*
X-44453Y10166D01*
X-44454Y10170D01*
X-44456Y10176D01*
X-44459Y10182D01*
X-44463Y10189D01*
X-44468Y10196D01*
X-44474Y10202D01*
X-44475Y10202D01*
X-44477Y10204D01*
X-44481Y10206D01*
X-44487Y10210D01*
X-44494Y10213D01*
X-44502Y10215D01*
X-44512Y10216D01*
X-44524Y10217D01*
D02*
G37*
G36*
X-34508Y14389D02*
X-34576D01*
Y13975D01*
X-34491D01*
X-34482Y13976D01*
X-34471D01*
X-34459Y13977D01*
X-34447Y13979D01*
X-34436Y13981D01*
X-34427Y13984D01*
X-34426Y13985D01*
X-34423Y13986D01*
X-34420Y13988D01*
X-34414Y13992D01*
X-34402Y14000D01*
X-34391Y14012D01*
X-34390Y14013D01*
X-34388Y14016D01*
X-34385Y14020D01*
X-34383Y14027D01*
X-34379Y14035D01*
X-34374Y14045D01*
X-34371Y14058D01*
X-34367Y14072D01*
Y14073D01*
X-34366Y14074D01*
X-34365Y14079D01*
X-34363Y14089D01*
X-34361Y14101D01*
X-34359Y14116D01*
X-34359Y14135D01*
X-34357Y14156D01*
Y14180D01*
Y14181D01*
Y14183D01*
Y14187D01*
Y14191D01*
Y14198D01*
X-34358Y14204D01*
Y14220D01*
X-34359Y14238D01*
X-34361Y14255D01*
X-34363Y14274D01*
X-34367Y14289D01*
Y14290D01*
Y14291D01*
X-34369Y14296D01*
X-34371Y14303D01*
X-34374Y14312D01*
X-34378Y14323D01*
X-34384Y14334D01*
X-34389Y14344D01*
X-34396Y14353D01*
X-34397Y14354D01*
X-34400Y14357D01*
X-34405Y14360D01*
X-34410Y14366D01*
X-34418Y14371D01*
X-34426Y14376D01*
X-34435Y14380D01*
X-34445Y14384D01*
X-34446D01*
X-34450Y14385D01*
X-34456Y14385D01*
X-34464Y14386D01*
X-34476Y14387D01*
X-34490Y14388D01*
X-34508Y14389D01*
D02*
G37*
G36*
X-44328Y7538D02*
X-44370D01*
X-44376Y7538D01*
X-44392D01*
X-44409Y7536D01*
X-44427Y7534D01*
X-44445Y7532D01*
X-44461Y7528D01*
X-44463D01*
X-44468Y7526D01*
X-44475Y7525D01*
X-44484Y7521D01*
X-44494Y7517D01*
X-44505Y7512D01*
X-44516Y7506D01*
X-44525Y7499D01*
X-44526Y7498D01*
X-44529Y7495D01*
X-44532Y7490D01*
X-44538Y7485D01*
X-44542Y7477D01*
X-44548Y7469D01*
X-44552Y7460D01*
X-44555Y7450D01*
Y7449D01*
X-44556Y7445D01*
X-44557Y7440D01*
X-44558Y7431D01*
X-44559Y7419D01*
X-44560Y7405D01*
X-44561Y7387D01*
Y7377D01*
Y7366D01*
Y7319D01*
X-44147D01*
Y7396D01*
Y7397D01*
Y7398D01*
Y7401D01*
Y7404D01*
X-44148Y7413D01*
Y7424D01*
X-44149Y7436D01*
X-44150Y7448D01*
X-44153Y7459D01*
X-44156Y7468D01*
X-44157Y7469D01*
X-44158Y7472D01*
X-44160Y7476D01*
X-44163Y7481D01*
X-44172Y7493D01*
X-44184Y7504D01*
X-44185Y7505D01*
X-44187Y7507D01*
X-44192Y7510D01*
X-44198Y7513D01*
X-44207Y7516D01*
X-44217Y7521D01*
X-44230Y7525D01*
X-44244Y7528D01*
X-44245D01*
X-44246Y7529D01*
X-44251Y7530D01*
X-44260Y7532D01*
X-44272Y7534D01*
X-44288Y7536D01*
X-44307Y7537D01*
X-44328Y7538D01*
D02*
G37*
G36*
Y6280D02*
X-44370D01*
X-44376Y6279D01*
X-44392D01*
X-44409Y6278D01*
X-44427Y6276D01*
X-44445Y6274D01*
X-44461Y6270D01*
X-44463D01*
X-44468Y6268D01*
X-44475Y6266D01*
X-44484Y6263D01*
X-44494Y6259D01*
X-44505Y6253D01*
X-44516Y6248D01*
X-44525Y6241D01*
X-44526Y6240D01*
X-44529Y6237D01*
X-44532Y6232D01*
X-44538Y6227D01*
X-44542Y6219D01*
X-44548Y6211D01*
X-44552Y6202D01*
X-44555Y6192D01*
Y6191D01*
X-44556Y6187D01*
X-44557Y6181D01*
X-44558Y6173D01*
X-44559Y6161D01*
X-44560Y6147D01*
X-44561Y6129D01*
Y6118D01*
Y6107D01*
Y6061D01*
X-44147D01*
Y6138D01*
Y6139D01*
Y6140D01*
Y6143D01*
Y6146D01*
X-44148Y6155D01*
Y6166D01*
X-44149Y6178D01*
X-44150Y6190D01*
X-44153Y6201D01*
X-44156Y6210D01*
X-44157Y6211D01*
X-44158Y6214D01*
X-44160Y6217D01*
X-44163Y6223D01*
X-44172Y6235D01*
X-44184Y6246D01*
X-44185Y6247D01*
X-44187Y6249D01*
X-44192Y6252D01*
X-44198Y6254D01*
X-44207Y6258D01*
X-44217Y6263D01*
X-44230Y6266D01*
X-44244Y6270D01*
X-44245D01*
X-44246Y6271D01*
X-44251Y6272D01*
X-44260Y6274D01*
X-44272Y6276D01*
X-44288Y6278D01*
X-44307Y6278D01*
X-44328Y6280D01*
D02*
G37*
G36*
X-44381Y8983D02*
X-44422D01*
X-44429Y8982D01*
X-44444D01*
X-44462Y8980D01*
X-44480Y8978D01*
X-44498Y8976D01*
X-44514Y8972D01*
X-44516D01*
X-44520Y8971D01*
X-44528Y8969D01*
X-44537Y8965D01*
X-44547Y8961D01*
X-44558Y8956D01*
X-44568Y8950D01*
X-44578Y8943D01*
X-44579Y8942D01*
X-44581Y8939D01*
X-44585Y8935D01*
X-44591Y8929D01*
X-44595Y8922D01*
X-44601Y8913D01*
X-44604Y8904D01*
X-44608Y8894D01*
Y8893D01*
X-44609Y8889D01*
X-44610Y8884D01*
X-44611Y8875D01*
X-44612Y8863D01*
X-44613Y8850D01*
X-44614Y8831D01*
Y8821D01*
Y8810D01*
Y8764D01*
X-44199D01*
Y8840D01*
Y8841D01*
Y8842D01*
Y8845D01*
Y8849D01*
X-44200Y8857D01*
Y8868D01*
X-44201Y8880D01*
X-44203Y8892D01*
X-44206Y8903D01*
X-44209Y8912D01*
X-44210Y8913D01*
X-44211Y8916D01*
X-44212Y8920D01*
X-44216Y8925D01*
X-44224Y8937D01*
X-44236Y8948D01*
X-44237Y8949D01*
X-44240Y8951D01*
X-44245Y8954D01*
X-44251Y8957D01*
X-44260Y8960D01*
X-44270Y8965D01*
X-44283Y8969D01*
X-44297Y8972D01*
X-44297D01*
X-44298Y8973D01*
X-44304Y8974D01*
X-44313Y8976D01*
X-44325Y8978D01*
X-44341Y8980D01*
X-44359Y8981D01*
X-44381Y8983D01*
D02*
G37*
G36*
X-44360Y5058D02*
X-44402D01*
X-44408Y5057D01*
X-44424D01*
X-44441Y5055D01*
X-44459Y5054D01*
X-44477Y5052D01*
X-44493Y5048D01*
X-44495D01*
X-44500Y5046D01*
X-44507Y5044D01*
X-44516Y5041D01*
X-44526Y5037D01*
X-44537Y5031D01*
X-44548Y5026D01*
X-44557Y5018D01*
X-44558Y5018D01*
X-44561Y5015D01*
X-44564Y5010D01*
X-44570Y5005D01*
X-44574Y4997D01*
X-44580Y4989D01*
X-44584Y4980D01*
X-44587Y4969D01*
Y4969D01*
X-44588Y4965D01*
X-44589Y4959D01*
X-44590Y4951D01*
X-44591Y4939D01*
X-44592Y4925D01*
X-44593Y4907D01*
Y4896D01*
Y4885D01*
Y4839D01*
X-44179D01*
Y4916D01*
Y4917D01*
Y4918D01*
Y4920D01*
Y4924D01*
X-44180Y4932D01*
Y4944D01*
X-44181Y4956D01*
X-44182Y4968D01*
X-44185Y4979D01*
X-44188Y4988D01*
X-44189Y4989D01*
X-44190Y4992D01*
X-44192Y4995D01*
X-44195Y5001D01*
X-44204Y5013D01*
X-44216Y5024D01*
X-44217Y5025D01*
X-44219Y5027D01*
X-44224Y5030D01*
X-44230Y5032D01*
X-44239Y5036D01*
X-44249Y5041D01*
X-44262Y5044D01*
X-44276Y5048D01*
X-44277D01*
X-44278Y5049D01*
X-44283Y5050D01*
X-44292Y5052D01*
X-44304Y5054D01*
X-44320Y5055D01*
X-44339Y5056D01*
X-44360Y5058D01*
D02*
G37*
%LPD*%
D13*
X-27981Y9242D02*
X-27981Y12702D01*
X-29981Y12702D02*
X-27981Y12702D01*
X-29981Y9242D02*
X-27981Y9242D01*
X-29981Y9242D02*
X-29981Y12702D01*
X-27775Y9242D02*
X-26575Y9242D01*
X-27775Y11417D02*
X-26575D01*
X-26575Y9242D01*
X-27775Y11417D02*
X-27775Y9242D01*
X-35275Y10900D02*
X-35275Y9700D01*
X-33100D02*
X-33100Y10900D01*
X-35275Y9700D02*
X-33100D01*
X-35275Y10900D02*
X-33100Y10900D01*
X-35275Y9492D02*
X-35275Y8292D01*
X-33100Y8292D02*
Y9492D01*
X-35275Y8292D02*
X-33100Y8292D01*
X-35275Y9492D02*
X-33100Y9492D01*
X-38300Y6200D02*
X-37100D01*
X-38300Y8375D02*
X-37100D01*
Y6200D02*
Y8375D01*
X-38300Y6200D02*
Y8375D01*
X-36470Y12200D02*
X-36470Y11000D01*
X-34295Y11000D02*
Y12200D01*
X-36470Y11000D02*
X-34295Y11000D01*
X-36470Y12200D02*
X-34295Y12200D01*
X-27925Y-5750D02*
X-25750Y-5750D01*
X-27925Y-6950D02*
X-25750Y-6950D01*
Y-5750D01*
X-27925Y-6950D02*
Y-5750D01*
X-22035Y-2419D02*
X-18575Y-2419D01*
X-18575Y-419D01*
X-22035Y-2419D02*
Y-419D01*
X-18575D01*
X-43925Y13000D02*
X-40850D01*
X-43925Y11450D02*
X-40850D01*
Y13000D01*
X-43925Y11450D02*
Y13000D01*
X-42175Y9250D02*
X-38715D01*
Y11250D01*
X-42175Y9250D02*
Y11250D01*
X-38715D01*
X-24485Y-8900D02*
X-21025Y-8900D01*
X-24485Y-8900D02*
X-24485Y-10900D01*
X-21025Y-8900D02*
X-21025Y-10900D01*
X-24485Y-10900D02*
X-21025Y-10900D01*
X-44800Y-10475D02*
X-44800Y-13550D01*
X-43250Y-13550D02*
X-43250Y-10475D01*
X-44800Y-10475D02*
X-43250Y-10475D01*
X-44800Y-13550D02*
X-43250Y-13550D01*
X-43005Y495D02*
X-39930D01*
X-43005Y-1055D02*
X-39930Y-1055D01*
X-39930Y495D01*
X-43005D02*
X-43005Y-1055D01*
X-35320Y3069D02*
X-31320Y3069D01*
X-35320Y8069D02*
X-31320Y8069D01*
X-35320Y8044D02*
X-35320Y3094D01*
X-31320Y3069D02*
X-31320Y8069D01*
X-26990Y-4380D02*
X-26990Y-2580D01*
X-30050Y-4380D02*
X-30050Y-2580D01*
X-26990Y-2580D01*
X-30050Y-4380D02*
X-26990Y-4380D01*
X-25311Y-2019D02*
X-25311Y-819D01*
X-23136Y-819D02*
X-23136Y-2019D01*
X-25311Y-2019D02*
X-23136Y-2019D01*
X-25311Y-819D02*
X-23136Y-819D01*
X-20600Y5900D02*
X-20600Y9525D01*
X-18575Y9525D02*
X-18575Y5900D01*
X-20600Y5900D02*
X-18575Y5900D01*
X-20600Y9525D02*
X-18575Y9525D01*
X-19558Y-9675D02*
Y-7500D01*
X-20758Y-9675D02*
Y-7500D01*
Y-9675D02*
X-19558D01*
X-20758Y-7500D02*
X-19558D01*
X-42200Y6046D02*
X-40025Y6046D01*
X-42200Y4846D02*
X-40025Y4846D01*
Y6046D01*
X-42200Y6046D02*
X-42200Y4846D01*
Y8900D02*
X-40025D01*
X-42200Y7700D02*
X-40025D01*
Y8900D01*
X-42200Y7700D02*
Y8900D01*
Y7400D02*
X-40025D01*
X-42200Y6200D02*
X-40025D01*
Y7400D01*
X-42200Y6200D02*
Y7400D01*
X-23200Y-7500D02*
X-21025D01*
X-23200Y-8700D02*
X-21025D01*
Y-7500D01*
X-23200Y-8700D02*
Y-7500D01*
X-39750Y2403D02*
Y3673D01*
X-37450Y2403D02*
Y3673D01*
X-27100Y-7150D02*
X-27100Y-10550D01*
X-29200Y-7150D02*
X-27100D01*
X-29200Y-10550D02*
Y-7150D01*
Y-10550D02*
X-27100Y-10550D01*
X-32755Y11096D02*
X-31430Y11096D01*
X-32755Y13421D02*
X-31430Y13421D01*
X-32755Y11096D02*
X-32755Y13421D01*
X-31430Y11096D02*
X-31430Y13421D01*
D14*
X-31300Y-12650D02*
G03*
X-31300Y-12650I-125J0D01*
G01*
X-35810Y8469D02*
G03*
X-35810Y8469I-125J0D01*
G01*
X-37205Y4181D02*
G03*
X-37205Y4181I-125J0D01*
G01*
X-25184Y13921D02*
G03*
X-25184Y13921I-125J0D01*
G01*
X-33549Y13696D02*
G03*
X-33549Y13696I-106J0D01*
G01*
D54*
X-32900Y-10850D02*
G03*
X-32900Y-10850I-300J0D01*
G01*
D55*
X-16195Y-12250D02*
G03*
X-16195Y-12250I-70J0D01*
G01*
X-25154Y9050D02*
G03*
X-25161Y9050I-7J70D01*
G01*
X-32250Y-3350D02*
X-32250Y-2850D01*
X-32750Y-2850D02*
X-32250Y-2850D01*
X-41250D02*
X-40750Y-2850D01*
X-41250Y-3350D02*
X-41250Y-2850D01*
Y-11850D02*
Y-11350D01*
Y-11850D02*
X-40750Y-11850D01*
X-32750Y-11850D02*
X-32250Y-11850D01*
X-32250Y-11350D02*
X-32250Y-11850D01*
X-17885Y-12250D02*
X-16585Y-12250D01*
X-17040Y-12150D02*
X-17040Y-11250D01*
X-17885Y-11150D02*
X-16585Y-11150D01*
X-5605Y-14800D02*
X-5605Y-12000D01*
X-18545Y-12000D02*
X-5605Y-12000D01*
X-18545Y-14800D02*
X-5605Y-14800D01*
X-18545Y-12000D02*
X-18545Y-14800D01*
X-33980Y1270D02*
Y2330D01*
X-32020Y1270D02*
X-32020Y2330D01*
X-33980Y1270D02*
X-32020Y1270D01*
X-33980Y2330D02*
X-32020Y2330D01*
X-20153Y11523D02*
X-19093D01*
X-20153Y13483D02*
X-19093Y13483D01*
X-19093Y11523D02*
X-19093Y13483D01*
X-20153Y13483D02*
X-20153Y11523D01*
X-30075Y-6905D02*
X-28115Y-6905D01*
X-30075Y-5845D02*
X-28115Y-5845D01*
X-30075Y-6905D02*
X-30075Y-5845D01*
X-28115Y-6905D02*
X-28115Y-5845D01*
X-30075Y-4570D02*
X-28115Y-4570D01*
X-30075Y-5630D02*
X-28115Y-5630D01*
X-28115Y-4570D01*
X-30075Y-5630D02*
Y-4570D01*
X-29630Y4854D02*
X-28570Y4854D01*
X-29630Y2894D02*
X-28570Y2894D01*
X-29630Y4854D02*
X-29630Y2894D01*
X-28570Y4854D02*
X-28570Y2894D01*
X-36495Y8248D02*
X-35435D01*
X-36495Y10208D02*
X-35435Y10208D01*
X-35435Y8248D01*
X-36495D02*
Y10208D01*
X-29630Y6954D02*
X-28570Y6954D01*
X-29630Y4994D02*
X-28570Y4994D01*
X-29630Y4994D02*
X-29630Y6954D01*
X-28570Y6954D02*
X-28570Y4994D01*
X-30075Y-10795D02*
X-28115D01*
X-30075Y-11855D02*
X-28115D01*
X-28115Y-10795D01*
X-30075Y-11855D02*
X-30075Y-10795D01*
X-34480Y180D02*
X-32520Y180D01*
X-34480Y-880D02*
X-32520Y-880D01*
Y180D01*
X-34480Y-880D02*
X-34480Y180D01*
X-32485Y-12515D02*
X-30525Y-12515D01*
X-32485Y-13575D02*
X-30525Y-13575D01*
X-30525Y-12515D01*
X-32485Y-13575D02*
X-32485Y-12515D01*
X-41970Y-11615D02*
X-41970Y-13575D01*
X-43030Y-13575D02*
X-43030Y-11615D01*
X-43030Y-13575D02*
X-41970Y-13575D01*
X-43030Y-11615D02*
X-41970D01*
X-43030Y-2380D02*
X-41070Y-2380D01*
X-43030Y-1320D02*
X-41070Y-1320D01*
X-43030Y-2380D02*
X-43030Y-1320D01*
X-41070Y-2380D02*
X-41070Y-1320D01*
X-26686Y8250D02*
X-25061Y8250D01*
X-25061Y6925D02*
X-25061Y8825D01*
X-26711Y6925D02*
X-26711Y8825D01*
X-29961Y13966D02*
X-29961Y12906D01*
X-28001Y13966D02*
X-28001Y12906D01*
X-29961Y12906D02*
X-28001Y12906D01*
X-29961Y13966D02*
X-28001Y13966D01*
D56*
X-34245Y12166D02*
Y13766D01*
X-40345Y12466D02*
Y13766D01*
X-34245D01*
X-40345Y12166D02*
X-34245D01*
X-40345D02*
Y12466D01*
X-43975Y3600D02*
X-42375D01*
X-43675Y11300D02*
X-42375D01*
Y3600D02*
Y11300D01*
X-43975Y3600D02*
Y11300D01*
X-43675D01*
D57*
X-19098Y2072D02*
Y5628D01*
X-25677Y2072D02*
X-19098Y2072D01*
X-25677Y5628D02*
X-25677Y2072D01*
X-25677Y5628D02*
X-19098Y5628D01*
D58*
X-24751Y10361D02*
X-21399Y10361D01*
X-24751Y13714D02*
X-21399D01*
M02*
