G04 Layer_Physical_Order=4*
G04 Layer_Color=16711680*
%FSLAX43Y43*%
%MOMM*%
G71*
G01*
G75*
%ADD10C,0.300*%
%ADD11C,1.000*%
%ADD12C,1.000*%
%ADD13C,0.200*%
%ADD15C,0.300*%
%ADD17C,0.400*%
G04:AMPARAMS|DCode=18|XSize=1.21mm|YSize=1.46mm|CornerRadius=0.151mm|HoleSize=0mm|Usage=FLASHONLY|Rotation=270.000|XOffset=0mm|YOffset=0mm|HoleType=Round|Shape=RoundedRectangle|*
%AMROUNDEDRECTD18*
21,1,1.210,1.157,0,0,270.0*
21,1,0.907,1.460,0,0,270.0*
1,1,0.302,-0.579,-0.454*
1,1,0.302,-0.579,0.454*
1,1,0.302,0.579,0.454*
1,1,0.302,0.579,-0.454*
%
%ADD18ROUNDEDRECTD18*%
G04:AMPARAMS|DCode=19|XSize=0.61mm|YSize=0.6mm|CornerRadius=0.075mm|HoleSize=0mm|Usage=FLASHONLY|Rotation=90.000|XOffset=0mm|YOffset=0mm|HoleType=Round|Shape=RoundedRectangle|*
%AMROUNDEDRECTD19*
21,1,0.610,0.450,0,0,90.0*
21,1,0.460,0.600,0,0,90.0*
1,1,0.150,0.225,0.230*
1,1,0.150,0.225,-0.230*
1,1,0.150,-0.225,-0.230*
1,1,0.150,-0.225,0.230*
%
%ADD19ROUNDEDRECTD19*%
G04:AMPARAMS|DCode=20|XSize=0.61mm|YSize=0.6mm|CornerRadius=0.075mm|HoleSize=0mm|Usage=FLASHONLY|Rotation=0.000|XOffset=0mm|YOffset=0mm|HoleType=Round|Shape=RoundedRectangle|*
%AMROUNDEDRECTD20*
21,1,0.610,0.450,0,0,0.0*
21,1,0.460,0.600,0,0,0.0*
1,1,0.150,0.230,-0.225*
1,1,0.150,-0.230,-0.225*
1,1,0.150,-0.230,0.225*
1,1,0.150,0.230,0.225*
%
%ADD20ROUNDEDRECTD20*%
G04:AMPARAMS|DCode=25|XSize=0.59mm|YSize=0.6mm|CornerRadius=0.074mm|HoleSize=0mm|Usage=FLASHONLY|Rotation=0.000|XOffset=0mm|YOffset=0mm|HoleType=Round|Shape=RoundedRectangle|*
%AMROUNDEDRECTD25*
21,1,0.590,0.453,0,0,0.0*
21,1,0.443,0.600,0,0,0.0*
1,1,0.147,0.221,-0.226*
1,1,0.147,-0.221,-0.226*
1,1,0.147,-0.221,0.226*
1,1,0.147,0.221,0.226*
%
%ADD25ROUNDEDRECTD25*%
G04:AMPARAMS|DCode=26|XSize=1.21mm|YSize=1.46mm|CornerRadius=0.151mm|HoleSize=0mm|Usage=FLASHONLY|Rotation=180.000|XOffset=0mm|YOffset=0mm|HoleType=Round|Shape=RoundedRectangle|*
%AMROUNDEDRECTD26*
21,1,1.210,1.157,0,0,180.0*
21,1,0.907,1.460,0,0,180.0*
1,1,0.302,-0.454,0.579*
1,1,0.302,0.454,0.579*
1,1,0.302,0.454,-0.579*
1,1,0.302,-0.454,-0.579*
%
%ADD26ROUNDEDRECTD26*%
G04:AMPARAMS|DCode=27|XSize=0.59mm|YSize=0.6mm|CornerRadius=0.074mm|HoleSize=0mm|Usage=FLASHONLY|Rotation=90.000|XOffset=0mm|YOffset=0mm|HoleType=Round|Shape=RoundedRectangle|*
%AMROUNDEDRECTD27*
21,1,0.590,0.453,0,0,90.0*
21,1,0.443,0.600,0,0,90.0*
1,1,0.147,0.226,0.221*
1,1,0.147,0.226,-0.221*
1,1,0.147,-0.226,-0.221*
1,1,0.147,-0.226,0.221*
%
%ADD27ROUNDEDRECTD27*%
G04:AMPARAMS|DCode=33|XSize=1.26mm|YSize=0.58mm|CornerRadius=0.072mm|HoleSize=0mm|Usage=FLASHONLY|Rotation=90.000|XOffset=0mm|YOffset=0mm|HoleType=Round|Shape=RoundedRectangle|*
%AMROUNDEDRECTD33*
21,1,1.260,0.435,0,0,90.0*
21,1,1.115,0.580,0,0,90.0*
1,1,0.145,0.217,0.557*
1,1,0.145,0.217,-0.557*
1,1,0.145,-0.217,-0.557*
1,1,0.145,-0.217,0.557*
%
%ADD33ROUNDEDRECTD33*%
G04:AMPARAMS|DCode=34|XSize=0.97mm|YSize=1.85mm|CornerRadius=0.121mm|HoleSize=0mm|Usage=FLASHONLY|Rotation=0.000|XOffset=0mm|YOffset=0mm|HoleType=Round|Shape=RoundedRectangle|*
%AMROUNDEDRECTD34*
21,1,0.970,1.607,0,0,0.0*
21,1,0.728,1.850,0,0,0.0*
1,1,0.242,0.364,-0.804*
1,1,0.242,-0.364,-0.804*
1,1,0.242,-0.364,0.804*
1,1,0.242,0.364,0.804*
%
%ADD34ROUNDEDRECTD34*%
G04:AMPARAMS|DCode=35|XSize=3.27mm|YSize=1.85mm|CornerRadius=0.231mm|HoleSize=0mm|Usage=FLASHONLY|Rotation=0.000|XOffset=0mm|YOffset=0mm|HoleType=Round|Shape=RoundedRectangle|*
%AMROUNDEDRECTD35*
21,1,3.270,1.387,0,0,0.0*
21,1,2.808,1.850,0,0,0.0*
1,1,0.463,1.404,-0.694*
1,1,0.463,-1.404,-0.694*
1,1,0.463,-1.404,0.694*
1,1,0.463,1.404,0.694*
%
%ADD35ROUNDEDRECTD35*%
G04:AMPARAMS|DCode=37|XSize=1.372mm|YSize=0.406mm|CornerRadius=0.051mm|HoleSize=0mm|Usage=FLASHONLY|Rotation=0.000|XOffset=0mm|YOffset=0mm|HoleType=Round|Shape=RoundedRectangle|*
%AMROUNDEDRECTD37*
21,1,1.372,0.305,0,0,0.0*
21,1,1.270,0.406,0,0,0.0*
1,1,0.102,0.635,-0.152*
1,1,0.102,-0.635,-0.152*
1,1,0.102,-0.635,0.152*
1,1,0.102,0.635,0.152*
%
%ADD37ROUNDEDRECTD37*%
%ADD39C,0.500*%
%ADD40C,1.700*%
%ADD41R,1.700X1.700*%
G04:AMPARAMS|DCode=42|XSize=1mm|YSize=1.4mm|CornerRadius=0.125mm|HoleSize=0mm|Usage=FLASHONLY|Rotation=0.000|XOffset=0mm|YOffset=0mm|HoleType=Round|Shape=RoundedRectangle|*
%AMROUNDEDRECTD42*
21,1,1.000,1.150,0,0,0.0*
21,1,0.750,1.400,0,0,0.0*
1,1,0.250,0.375,-0.575*
1,1,0.250,-0.375,-0.575*
1,1,0.250,-0.375,0.575*
1,1,0.250,0.375,0.575*
%
%ADD42ROUNDEDRECTD42*%
%ADD43C,0.700*%
G04:AMPARAMS|DCode=44|XSize=1.53mm|YSize=1.02mm|CornerRadius=0.128mm|HoleSize=0mm|Usage=FLASHONLY|Rotation=270.000|XOffset=0mm|YOffset=0mm|HoleType=Round|Shape=RoundedRectangle|*
%AMROUNDEDRECTD44*
21,1,1.530,0.765,0,0,270.0*
21,1,1.275,1.020,0,0,270.0*
1,1,0.255,-0.383,-0.637*
1,1,0.255,-0.383,0.637*
1,1,0.255,0.383,0.637*
1,1,0.255,0.383,-0.637*
%
%ADD44ROUNDEDRECTD44*%
G04:AMPARAMS|DCode=45|XSize=0.61mm|YSize=1.35mm|CornerRadius=0.076mm|HoleSize=0mm|Usage=FLASHONLY|Rotation=270.000|XOffset=0mm|YOffset=0mm|HoleType=Round|Shape=RoundedRectangle|*
%AMROUNDEDRECTD45*
21,1,0.610,1.198,0,0,270.0*
21,1,0.458,1.350,0,0,270.0*
1,1,0.152,-0.599,-0.229*
1,1,0.152,-0.599,0.229*
1,1,0.152,0.599,0.229*
1,1,0.152,0.599,-0.229*
%
%ADD45ROUNDEDRECTD45*%
G04:AMPARAMS|DCode=46|XSize=1.2mm|YSize=2.2mm|CornerRadius=0.15mm|HoleSize=0mm|Usage=FLASHONLY|Rotation=0.000|XOffset=0mm|YOffset=0mm|HoleType=Round|Shape=RoundedRectangle|*
%AMROUNDEDRECTD46*
21,1,1.200,1.900,0,0,0.0*
21,1,0.900,2.200,0,0,0.0*
1,1,0.300,0.450,-0.950*
1,1,0.300,-0.450,-0.950*
1,1,0.300,-0.450,0.950*
1,1,0.300,0.450,0.950*
%
%ADD46ROUNDEDRECTD46*%
G04:AMPARAMS|DCode=47|XSize=0.7mm|YSize=1.6mm|CornerRadius=0.087mm|HoleSize=0mm|Usage=FLASHONLY|Rotation=180.000|XOffset=0mm|YOffset=0mm|HoleType=Round|Shape=RoundedRectangle|*
%AMROUNDEDRECTD47*
21,1,0.700,1.425,0,0,180.0*
21,1,0.525,1.600,0,0,180.0*
1,1,0.175,-0.263,0.713*
1,1,0.175,0.263,0.713*
1,1,0.175,0.263,-0.713*
1,1,0.175,-0.263,-0.713*
%
%ADD47ROUNDEDRECTD47*%
G04:AMPARAMS|DCode=48|XSize=1.6mm|YSize=1.4mm|CornerRadius=0.175mm|HoleSize=0mm|Usage=FLASHONLY|Rotation=0.000|XOffset=0mm|YOffset=0mm|HoleType=Round|Shape=RoundedRectangle|*
%AMROUNDEDRECTD48*
21,1,1.600,1.050,0,0,0.0*
21,1,1.250,1.400,0,0,0.0*
1,1,0.350,0.625,-0.525*
1,1,0.350,-0.625,-0.525*
1,1,0.350,-0.625,0.525*
1,1,0.350,0.625,0.525*
%
%ADD48ROUNDEDRECTD48*%
G04:AMPARAMS|DCode=49|XSize=1.2mm|YSize=1.4mm|CornerRadius=0.15mm|HoleSize=0mm|Usage=FLASHONLY|Rotation=0.000|XOffset=0mm|YOffset=0mm|HoleType=Round|Shape=RoundedRectangle|*
%AMROUNDEDRECTD49*
21,1,1.200,1.100,0,0,0.0*
21,1,0.900,1.400,0,0,0.0*
1,1,0.300,0.450,-0.550*
1,1,0.300,-0.450,-0.550*
1,1,0.300,-0.450,0.550*
1,1,0.300,0.450,0.550*
%
%ADD49ROUNDEDRECTD49*%
G04:AMPARAMS|DCode=50|XSize=1.05mm|YSize=1.07mm|CornerRadius=0.131mm|HoleSize=0mm|Usage=FLASHONLY|Rotation=90.000|XOffset=0mm|YOffset=0mm|HoleType=Round|Shape=RoundedRectangle|*
%AMROUNDEDRECTD50*
21,1,1.050,0.807,0,0,90.0*
21,1,0.787,1.070,0,0,90.0*
1,1,0.263,0.404,0.394*
1,1,0.263,0.404,-0.394*
1,1,0.263,-0.404,-0.394*
1,1,0.263,-0.404,0.394*
%
%ADD50ROUNDEDRECTD50*%
G04:AMPARAMS|DCode=51|XSize=0.61mm|YSize=1.26mm|CornerRadius=0.076mm|HoleSize=0mm|Usage=FLASHONLY|Rotation=270.000|XOffset=0mm|YOffset=0mm|HoleType=Round|Shape=RoundedRectangle|*
%AMROUNDEDRECTD51*
21,1,0.610,1.107,0,0,270.0*
21,1,0.458,1.260,0,0,270.0*
1,1,0.152,-0.554,-0.229*
1,1,0.152,-0.554,0.229*
1,1,0.152,0.554,0.229*
1,1,0.152,0.554,-0.229*
%
%ADD51ROUNDEDRECTD51*%
G04:AMPARAMS|DCode=52|XSize=1mm|YSize=1.4mm|CornerRadius=0.125mm|HoleSize=0mm|Usage=FLASHONLY|Rotation=90.000|XOffset=0mm|YOffset=0mm|HoleType=Round|Shape=RoundedRectangle|*
%AMROUNDEDRECTD52*
21,1,1.000,1.150,0,0,90.0*
21,1,0.750,1.400,0,0,90.0*
1,1,0.250,0.575,0.375*
1,1,0.250,0.575,-0.375*
1,1,0.250,-0.575,-0.375*
1,1,0.250,-0.575,0.375*
%
%ADD52ROUNDEDRECTD52*%
G04:AMPARAMS|DCode=53|XSize=1.28mm|YSize=1.87mm|CornerRadius=0.16mm|HoleSize=0mm|Usage=FLASHONLY|Rotation=0.000|XOffset=0mm|YOffset=0mm|HoleType=Round|Shape=RoundedRectangle|*
%AMROUNDEDRECTD53*
21,1,1.280,1.550,0,0,0.0*
21,1,0.960,1.870,0,0,0.0*
1,1,0.320,0.480,-0.775*
1,1,0.320,-0.480,-0.775*
1,1,0.320,-0.480,0.775*
1,1,0.320,0.480,0.775*
%
%ADD53ROUNDEDRECTD53*%
G36*
X-15200Y10500D02*
X-15017Y10424D01*
X-14876Y10283D01*
X-14834Y10182D01*
X-14800Y10000D01*
Y10000D01*
X-14800Y10000D01*
X-14800Y10000D01*
X-14800Y8492D01*
X-14800Y8374D01*
X-14890Y8157D01*
X-15057Y7990D01*
X-15204Y7929D01*
X-15316Y7912D01*
X-15392Y7900D01*
X-15592Y7900D01*
X-18629Y7900D01*
X-18723Y7900D01*
X-18896Y7972D01*
X-19028Y8104D01*
X-19100Y8277D01*
X-19100Y8371D01*
X-19100D01*
X-19100Y10000D01*
X-19100Y10099D01*
X-19024Y10283D01*
X-18883Y10424D01*
X-18700Y10500D01*
X-18600Y10500D01*
X-18600Y10500D01*
X-15200Y10500D01*
D02*
G37*
G36*
X-27948Y14200D02*
X-24181Y14200D01*
X-24181Y14200D01*
X-24181Y14200D01*
X-24181D01*
X-23998Y14172D01*
X-23852Y14111D01*
X-23689Y13948D01*
X-23600Y13734D01*
X-23600Y13619D01*
X-23600Y10666D01*
X-23747Y10511D01*
X-23767Y10500D01*
X-24700D01*
X-24700Y10500D01*
X-24779D01*
X-24926Y10561D01*
X-25039Y10673D01*
X-25100Y10820D01*
X-25100Y12573D01*
X-25100Y12573D01*
X-25100Y12573D01*
X-25100Y12573D01*
X-25103Y12639D01*
X-25129Y12770D01*
X-25180Y12894D01*
X-25254Y13004D01*
X-25349Y13099D01*
X-25460Y13173D01*
X-25583Y13224D01*
X-25714Y13250D01*
X-25781Y13253D01*
X-26914Y13253D01*
X-26968Y13289D01*
X-27075Y13310D01*
X-27525D01*
X-27632Y13289D01*
X-27686Y13253D01*
X-27975Y13253D01*
X-27975Y13253D01*
X-28034Y13253D01*
X-28145Y13299D01*
X-28229Y13383D01*
X-28275Y13494D01*
X-28275Y13874D01*
X-28227Y14054D01*
X-28225Y14058D01*
X-28133Y14150D01*
X-28013Y14200D01*
X-27948Y14200D01*
D02*
G37*
G36*
X-21263Y9650D02*
X-21171Y9650D01*
X-21001Y9580D01*
X-20870Y9450D01*
X-20852Y9406D01*
Y8462D01*
X-20842Y8410D01*
Y6787D01*
X-20827Y6675D01*
Y5983D01*
X-20802Y5857D01*
X-20800Y5854D01*
X-20800Y1858D01*
X-20823Y1825D01*
X-21000Y1711D01*
X-21044Y1720D01*
X-22047D01*
Y688D01*
Y-343D01*
X-21044D01*
X-21000Y-334D01*
X-20823Y-448D01*
X-20800Y-482D01*
X-20800Y-1775D01*
X-20800Y-1856D01*
X-20861Y-2004D01*
X-20975Y-2118D01*
X-21015Y-2134D01*
X-21204Y-2179D01*
Y-2179D01*
X-21204Y-2179D01*
X-21550Y-2179D01*
X-21625Y-2164D01*
X-21700Y-2179D01*
X-21769Y-2179D01*
X-21872Y-2189D01*
X-22064Y-2269D01*
X-22210Y-2415D01*
X-22257Y-2528D01*
X-22290Y-2607D01*
X-22300Y-2710D01*
X-22300Y-2711D01*
X-22300D01*
X-22300Y-2711D01*
Y-2908D01*
X-22300Y-3554D01*
X-22300Y-3642D01*
X-22368Y-3805D01*
X-22493Y-3930D01*
X-22553Y-3955D01*
X-22744Y-3998D01*
Y-3998D01*
X-22744Y-3998D01*
X-24002Y-3998D01*
X-24081Y-3998D01*
X-24228Y-3937D01*
X-24339Y-3825D01*
X-24400Y-3679D01*
X-24400Y-3600D01*
Y-2347D01*
X-24209Y-2235D01*
X-24200Y-2236D01*
X-24110Y-2254D01*
X-24056D01*
Y-1419D01*
Y-584D01*
X-24110D01*
X-24200Y-602D01*
X-24209Y-603D01*
X-24400Y-492D01*
Y2323D01*
X-24087Y4695D01*
Y5880D01*
X-24067Y5983D01*
Y7590D01*
X-24082Y7666D01*
X-23989Y7889D01*
X-23808Y8071D01*
X-23571Y8169D01*
X-23443D01*
X-23443Y8169D01*
X-22875Y8169D01*
Y8544D01*
X-22847Y8576D01*
Y9087D01*
X-22447D01*
Y9487D01*
X-22101D01*
X-22070Y9650D01*
X-21263Y9650D01*
D02*
G37*
G36*
X-24725Y-211D02*
X-24725Y-428D01*
X-24869Y-562D01*
X-24925Y-584D01*
X-24946D01*
Y-1419D01*
Y-2254D01*
X-24892D01*
X-24725Y-2410D01*
X-24725Y-3598D01*
X-24725Y-3598D01*
X-24725Y-3677D01*
X-24786Y-3824D01*
X-24898Y-3937D01*
X-25045Y-3998D01*
X-25125Y-3998D01*
X-25970Y-3998D01*
X-26040Y-3998D01*
X-26171Y-3944D01*
X-26271Y-3844D01*
X-26325Y-3713D01*
X-26325Y-3642D01*
X-26325Y-516D01*
X-26267Y-376D01*
X-26160Y-269D01*
X-26020Y-211D01*
X-25944D01*
X-24725Y-211D01*
D02*
G37*
G36*
X-30000Y14315D02*
X-30000Y14315D01*
X-30043Y14100D01*
X-30000Y13885D01*
X-30000Y13885D01*
Y13275D01*
X-29195Y13275D01*
Y12962D01*
X-29216Y12930D01*
X-29370Y12809D01*
X-29820D01*
X-29862Y12800D01*
X-29595D01*
Y12000D01*
X-29863D01*
X-29888Y12005D01*
X-29946Y12044D01*
X-29985Y12102D01*
X-29998Y12170D01*
Y12325D01*
X-30099Y12127D01*
X-30105Y12125D01*
X-30114Y12121D01*
X-30121Y12114D01*
X-30125Y12105D01*
X-30125Y12100D01*
X-30125Y12100D01*
X-30125Y11892D01*
X-30206Y11841D01*
X-30250Y11828D01*
Y11434D01*
X-31050D01*
Y11810D01*
X-31132Y11819D01*
X-31210Y11840D01*
X-31222Y11857D01*
X-31281Y11897D01*
Y12286D01*
X-31219Y12328D01*
X-31176Y12392D01*
X-31163Y12396D01*
X-31051Y12408D01*
X-31013Y12405D01*
Y12751D01*
Y13098D01*
X-31051Y13094D01*
X-31163Y13106D01*
X-31176Y13111D01*
X-31219Y13175D01*
X-31309Y13235D01*
X-31400Y13253D01*
Y13275D01*
X-32084Y13275D01*
X-32225Y13416D01*
Y14550D01*
X-31400Y14550D01*
X-30000Y14550D01*
Y14315D01*
D02*
G37*
G36*
X-35300Y11993D02*
X-35497Y11884D01*
X-35578Y11900D01*
Y10864D01*
Y9828D01*
X-35497Y9844D01*
X-35300Y9735D01*
Y9400D01*
X-36100D01*
X-36100Y8000D01*
X-36100Y7921D01*
X-36131Y7767D01*
X-36191Y7621D01*
X-36279Y7490D01*
X-36390Y7379D01*
X-36521Y7291D01*
X-36562Y7274D01*
X-36660Y7328D01*
X-36741Y7409D01*
X-36746Y7419D01*
Y8125D01*
X-36763Y8213D01*
X-36813Y8287D01*
X-36887Y8337D01*
X-36975Y8354D01*
X-37050D01*
Y7750D01*
X-38050D01*
Y8354D01*
X-38125D01*
X-38294Y8496D01*
X-38300Y8508D01*
Y9400D01*
Y9887D01*
X-38259Y9949D01*
X-38231Y10089D01*
Y11639D01*
X-38259Y11779D01*
X-38300Y11841D01*
Y12200D01*
X-35300D01*
Y11993D01*
D02*
G37*
G36*
X-27805Y11570D02*
X-27784Y11463D01*
X-27783Y11461D01*
Y10832D01*
X-28098D01*
X-28131Y10881D01*
X-28222Y10942D01*
X-28329Y10963D01*
X-28781D01*
X-28888Y10942D01*
X-28979Y10881D01*
X-29039Y10791D01*
X-29060Y10684D01*
Y10302D01*
X-29184Y10192D01*
X-29249Y10165D01*
X-29256Y10168D01*
X-29491D01*
Y9852D01*
X-29891D01*
Y9452D01*
X-30665D01*
X-30689Y9344D01*
X-30689Y9281D01*
Y9040D01*
X-30843Y8888D01*
X-32776D01*
X-32776Y8888D01*
Y8891D01*
X-32811Y8905D01*
X-32825Y8940D01*
X-32827D01*
Y10258D01*
X-32828Y10264D01*
X-32853Y10453D01*
X-32883Y10525D01*
X-32758Y10725D01*
X-30000Y10725D01*
Y10839D01*
X-29995Y10847D01*
Y11400D01*
X-29195D01*
Y11153D01*
X-29192Y11170D01*
Y11630D01*
X-29205Y11698D01*
X-29219Y11718D01*
X-29225Y11745D01*
X-29210Y11882D01*
X-29189Y11960D01*
X-29172Y11972D01*
X-29170Y11975D01*
X-28958D01*
Y11591D01*
X-28955Y11574D01*
Y11812D01*
X-28155D01*
Y11574D01*
X-28152Y11591D01*
Y11975D01*
X-27805D01*
Y11570D01*
D02*
G37*
%LPC*%
G36*
X-18521Y9966D02*
X-18592Y9952D01*
X-18668Y9902D01*
X-18718Y9826D01*
X-18735Y9738D01*
Y9500D01*
X-18521D01*
Y9966D01*
D02*
G37*
G36*
X-15600Y9454D02*
Y9400D01*
X-15546D01*
X-15567Y9433D01*
X-15600Y9454D01*
D02*
G37*
G36*
X-17721Y9966D02*
Y9500D01*
X-17507D01*
Y9738D01*
X-17524Y9826D01*
X-17574Y9902D01*
X-17650Y9952D01*
X-17721Y9966D01*
D02*
G37*
G36*
X-18521Y8700D02*
X-18735D01*
Y8462D01*
X-18718Y8374D01*
X-18668Y8298D01*
X-18592Y8248D01*
X-18521Y8234D01*
Y8700D01*
D02*
G37*
G36*
X-17507D02*
X-17721D01*
Y8234D01*
X-17650Y8248D01*
X-17574Y8298D01*
X-17524Y8374D01*
X-17507Y8462D01*
Y8700D01*
D02*
G37*
G36*
X-16400Y8600D02*
X-16454D01*
X-16433Y8567D01*
X-16400Y8546D01*
Y8600D01*
D02*
G37*
G36*
Y9454D02*
X-16433Y9433D01*
X-16454Y9400D01*
X-16400D01*
Y9454D01*
D02*
G37*
G36*
X-15546Y8600D02*
X-15600D01*
Y8546D01*
X-15567Y8567D01*
X-15546Y8600D01*
D02*
G37*
G36*
X-22847Y6387D02*
X-23037D01*
Y5983D01*
X-23020Y5896D01*
X-22971Y5823D01*
X-22897Y5774D01*
X-22847Y5764D01*
Y6387D01*
D02*
G37*
G36*
Y1720D02*
X-23851D01*
X-23980Y1694D01*
X-24090Y1621D01*
X-24163Y1511D01*
X-24189Y1382D01*
Y1088D01*
X-22847D01*
Y1720D01*
D02*
G37*
G36*
Y7809D02*
X-22897Y7799D01*
X-22971Y7750D01*
X-23020Y7677D01*
X-23037Y7590D01*
Y7187D01*
X-22847D01*
Y7809D01*
D02*
G37*
G36*
X-21858Y6387D02*
X-22047D01*
Y5764D01*
X-21997Y5774D01*
X-21924Y5823D01*
X-21875Y5896D01*
X-21858Y5983D01*
Y6387D01*
D02*
G37*
G36*
X-22946Y-1819D02*
X-23256D01*
Y-2254D01*
X-23202D01*
X-23104Y-2235D01*
X-23021Y-2179D01*
X-22966Y-2096D01*
X-22946Y-1998D01*
Y-1819D01*
D02*
G37*
G36*
X-22847Y288D02*
X-24189D01*
Y-5D01*
X-24163Y-135D01*
X-24090Y-244D01*
X-23980Y-317D01*
X-23851Y-343D01*
X-22847D01*
Y288D01*
D02*
G37*
G36*
X-23202Y-584D02*
X-23256D01*
Y-1019D01*
X-22946D01*
Y-840D01*
X-22966Y-742D01*
X-23021Y-659D01*
X-23104Y-604D01*
X-23202Y-584D01*
D02*
G37*
G36*
X-22047Y7809D02*
Y7187D01*
X-21858D01*
Y7590D01*
X-21875Y7677D01*
X-21924Y7750D01*
X-21997Y7799D01*
X-22047Y7809D01*
D02*
G37*
G36*
X-25746Y-1819D02*
X-26056D01*
Y-1998D01*
X-26037Y-2096D01*
X-25981Y-2179D01*
X-25898Y-2235D01*
X-25800Y-2254D01*
X-25746D01*
Y-1819D01*
D02*
G37*
G36*
Y-584D02*
X-25800D01*
X-25898Y-604D01*
X-25981Y-659D01*
X-26037Y-742D01*
X-26056Y-840D01*
Y-1019D01*
X-25746D01*
Y-584D01*
D02*
G37*
G36*
X-36578Y11900D02*
X-36659Y11884D01*
X-36745Y11826D01*
X-36803Y11740D01*
X-36823Y11639D01*
Y11364D01*
X-36578D01*
Y11900D01*
D02*
G37*
G36*
Y10364D02*
X-36823D01*
Y10089D01*
X-36803Y9988D01*
X-36745Y9902D01*
X-36659Y9844D01*
X-36578Y9828D01*
Y10364D01*
D02*
G37*
%LPD*%
D10*
X-19394Y10373D02*
G03*
X-19700Y10500I-306J-306D01*
G01*
X-20328D02*
G03*
X-20750Y10325I0J-596D01*
G01*
X-21354Y10075D02*
G03*
X-20750Y10325I0J854D01*
G01*
X-24235Y10075D02*
G03*
X-24975Y9335I0J-740D01*
G01*
X-25746Y7929D02*
G03*
X-24975Y8700I0J771D01*
G01*
X-27300Y8075D02*
G03*
X-27154Y7929I146J0D01*
G01*
X-23276Y345D02*
G03*
X-22447Y688I0J1172D01*
G01*
X-23014Y10725D02*
G03*
X-21841Y11210I0J1658D01*
G01*
D02*
G03*
X-21229Y12690I-1480J1480D01*
G01*
X-22466Y11796D02*
G03*
X-22254Y12308I-512J512D01*
G01*
X-23656Y-1419D02*
G03*
X-23865Y-915I-713J0D01*
G01*
X-25500Y-7500D02*
G03*
X-24776Y-7800I724J724D01*
G01*
X-17956Y-8544D02*
G03*
X-19752Y-7800I-1796J-1796D01*
G01*
X-25500Y-7500D02*
G03*
X-26265Y-7183I-765J-765D01*
G01*
X-8161Y-12244D02*
G03*
X-9957Y-11500I-1796J-1796D01*
G01*
X-15744Y-10756D02*
G03*
X-13948Y-11500I1796J1796D01*
G01*
X-37550Y1579D02*
G03*
X-37600Y1700I-171J0D01*
G01*
X-33525Y1033D02*
G03*
X-33477Y917I165J0D01*
G01*
D02*
G03*
X-33981Y708I0J-713D01*
G01*
D02*
G03*
X-34250Y58I650J-650D01*
G01*
X-30500Y1700D02*
G03*
X-30146Y846I1207J0D01*
G01*
X-35825Y4075D02*
G03*
X-35600Y4300I0J225D01*
G01*
X-35575Y4700D02*
G03*
X-35600Y4675I0J-25D01*
G01*
X-38003Y4075D02*
G03*
X-39295Y3540I0J-1827D01*
G01*
X-32220Y-7156D02*
G03*
X-30424Y-7900I1796J1796D01*
G01*
X-26133Y-8200D02*
G03*
X-25457Y-8480I676J676D01*
G01*
X-26133Y-8200D02*
G03*
X-26857Y-7900I-724J-724D01*
G01*
X-21089Y14050D02*
G03*
X-21139Y14000I0J-50D01*
G01*
X-30950Y-475D02*
G03*
X-31631Y1169I-2325J0D01*
G01*
X-31900Y1700D02*
G03*
X-31715Y1253I633J0D01*
G01*
X-35100Y1700D02*
G03*
X-35350Y1096I604J-604D01*
G01*
X-30527Y-2038D02*
G03*
X-29850Y-404I-1634J1634D01*
G01*
Y131D02*
G03*
X-30146Y846I-1012J0D01*
G01*
X-33420Y-4932D02*
G03*
X-33821Y-5900I968J-968D01*
G01*
X-34048Y-6448D02*
G03*
X-33821Y-5900I-548J548D01*
G01*
X-37000Y-10500D02*
G03*
X-35700Y-9200I0J1300D01*
G01*
X-34956Y-3556D02*
G03*
X-35700Y-5352I1796J-1796D01*
G01*
X-33894Y-2494D02*
G03*
X-33150Y-698I-1796J1796D01*
G01*
X-35512Y-3384D02*
G03*
X-35350Y-2993I-392J392D01*
G01*
X-37400Y-9700D02*
G03*
X-37700Y-10424I724J-724D01*
G01*
X-36954Y-9254D02*
G03*
X-36210Y-7458I-1796J1796D01*
G01*
X-35512Y-3384D02*
G03*
X-36210Y-5068I1684J-1684D01*
G01*
X-37527Y-9027D02*
G03*
X-36783Y-7231I-1796J1796D01*
G01*
X-36615Y-3885D02*
G03*
X-36450Y-3486I-398J398D01*
G01*
X-36615Y-3885D02*
G03*
X-36783Y-4291I406J-406D01*
G01*
X-39295Y-9600D02*
G03*
X-40000Y-11302I1702J-1702D01*
G01*
X-38294Y-8599D02*
G03*
X-37550Y-6803I-1796J1796D01*
G01*
X-43125Y1702D02*
G03*
X-43000Y1400I427J0D01*
G01*
X-42900Y950D02*
G03*
X-42779Y900I121J121D01*
G01*
X-42900Y1159D02*
G03*
X-43000Y1400I-341J0D01*
G01*
X-42200Y900D02*
G03*
X-41745Y1355I0J455D01*
G01*
X-33184Y10258D02*
G03*
X-33300Y10538I-397J0D01*
G01*
X-33184Y8940D02*
G03*
X-32776Y8532I408J0D01*
G01*
X-32549Y11170D02*
G03*
X-32175Y11325I0J529D01*
G01*
X-31912Y11434D02*
G03*
X-32175Y11325I0J-372D01*
G01*
X-33100Y11375D02*
G03*
X-32605Y11170I495J495D01*
G01*
X-33584Y11223D02*
G03*
X-33300Y10538I969J0D01*
G01*
X-33100Y11375D02*
G03*
X-33242Y11434I-142J-142D01*
G01*
X-34801Y-5591D02*
G03*
X-34878Y-5778I187J-187D01*
G01*
X-22139Y14000D02*
G03*
X-22254Y13885I0J-115D01*
G01*
X-35100Y2700D02*
G03*
X-33589Y3326I0J2137D01*
G01*
X-33496Y3361D02*
G03*
X-31900Y2700I1596J1596D01*
G01*
X-28275Y6625D02*
G03*
X-28200Y6700I0J75D01*
G01*
X-17700Y12075D02*
G03*
X-17350Y11930I350J350D01*
G01*
X-17700Y12075D02*
G03*
X-17881Y12150I-181J-181D01*
G01*
X-42525Y2800D02*
G03*
X-42018Y2590I507J507D01*
G01*
X-44088Y4154D02*
G03*
X-43900Y3700I642J0D01*
G01*
X-43700Y3500D02*
G03*
X-43125Y3262I575J575D01*
G01*
X-43764Y9911D02*
G03*
X-44088Y9265I811J-811D01*
G01*
X-34325Y9918D02*
G03*
X-34259Y9852I66J0D01*
G01*
X-27300Y3940D02*
G03*
X-27208Y3848I92J0D01*
G01*
X-27337Y9438D02*
G03*
X-27300Y9475I0J38D01*
G01*
X-43882Y-10230D02*
G03*
X-43050Y-10575I832J832D01*
G01*
X-43900Y950D02*
G03*
X-43582Y182I1086J0D01*
G01*
X-41855Y-975D02*
G03*
X-40059Y-231I0J2540D01*
G01*
X-40039Y-211D02*
G03*
X-39295Y1585I-1796J1796D01*
G01*
X-41000Y6875D02*
G03*
X-40400Y7475I0J600D01*
G01*
X-39923Y4800D02*
G03*
X-39995Y4770I0J-102D01*
G01*
X-39599D02*
G03*
X-39453Y4831I0J207D01*
G01*
X-39156Y4953D02*
G03*
X-39453Y4831I0J-419D01*
G01*
X-39728Y9100D02*
G03*
X-40400Y8428I0J-672D01*
G01*
X-34232Y5468D02*
G03*
X-34550Y4700I768J-768D01*
G01*
Y6334D02*
G03*
X-34246Y5600I1038J0D01*
G01*
X-39100Y9100D02*
G03*
X-39078Y9153I-53J53D01*
G01*
X-28800Y-2096D02*
G03*
X-28580Y-2005I0J312D01*
G01*
X-28800Y-2096D02*
G03*
X-28750Y-1975I-121J121D01*
G01*
X-32050Y-121D02*
G03*
X-32450Y845I-1366J0D01*
G01*
X-20328Y10500D02*
X-19700D01*
X-19394Y10373D02*
X-18121Y9100D01*
X-24235Y10075D02*
X-21354D01*
X-24975Y8700D02*
Y9335D01*
X-27154Y7929D02*
X-25746D01*
X-25886Y8759D02*
Y9950D01*
X-27300Y8075D02*
X-27300D01*
X-23565Y345D02*
X-23276D01*
X-27300Y8075D02*
Y9475D01*
X-23760Y10725D02*
X-23014D01*
X-22700Y11562D02*
X-22466Y11796D01*
X-30913Y12751D02*
X-30875Y12789D01*
X-24776Y-7800D02*
X-19752D01*
X-27325Y-7183D02*
X-26265D01*
X-8161Y-12244D02*
X-7005Y-13400D01*
X-17956Y-8544D02*
X-15744Y-10756D01*
X-13948Y-11500D02*
X-9957D01*
X-31211Y9275D02*
X-31128Y9192D01*
X-29891D01*
X-29891Y9192D02*
X-29891Y9192D01*
X-29891Y9192D02*
Y9852D01*
X-27300Y4775D02*
X-27208Y4683D01*
X-29220Y3130D02*
X-29100Y3250D01*
X-33525Y1033D02*
Y1870D01*
X-34250Y-475D02*
Y58D01*
X-39078Y9153D02*
Y10864D01*
X-39295Y1585D02*
Y1640D01*
X-28580Y-2005D02*
X-27550Y-975D01*
X-37750Y-11350D02*
X-37700Y-11400D01*
X-33637Y1758D02*
X-33525Y1870D01*
X-17525Y13125D02*
X-17500Y13100D01*
X-27300Y5800D02*
Y7075D01*
X-27300Y5800D02*
X-27300D01*
X-28555Y10462D02*
Y10475D01*
X-29100Y5625D02*
X-28217Y5625D01*
X-29100Y4250D02*
Y5625D01*
X-29100Y4250D02*
X-29100Y4250D01*
X-36450Y2700D02*
X-36450Y2700D01*
X-33550Y3415D02*
X-33525Y3390D01*
X-33589Y3326D02*
X-33525Y3390D01*
X-36450Y2700D02*
X-35800D01*
X-20545Y-11100D02*
X-19500D01*
X-22300Y-13475D02*
X-22300Y-13475D01*
X-23010Y-13475D02*
X-22300D01*
X-21275Y-13475D02*
X-21275Y-13475D01*
X-20561D01*
X-24700Y-9505D02*
X-23905D01*
X-22545Y-12050D02*
X-22545Y-12050D01*
X-23600Y-12050D02*
X-22545D01*
X-28750Y-1975D02*
Y-475D01*
X-27550Y-10575D02*
X-26543D01*
X-34801Y-5591D02*
X-30950Y-1741D01*
X-36450Y-475D02*
Y1700D01*
X-37600Y2700D02*
X-36450D01*
X-41745Y1355D02*
Y1640D01*
Y2590D02*
Y2600D01*
Y3540D02*
Y3540D01*
X-36825Y4075D02*
X-35825D01*
X-35600Y4300D02*
Y4675D01*
X-41745Y3540D02*
X-39295D01*
X-38003Y4075D02*
X-37825D01*
X-30424Y-7900D02*
X-26857D01*
X-25457Y-8480D02*
X-23905D01*
X-21089Y14050D02*
X-19500D01*
X-30950Y-1741D02*
Y-475D01*
X-31900Y1583D02*
Y1700D01*
X-31715Y1253D02*
X-31631Y1169D01*
X-16025Y12955D02*
X-15450D01*
X-15217Y13188D01*
X-16025Y11930D02*
X-15995Y11900D01*
X-15200D01*
X-17500Y13100D02*
Y13895D01*
X-32776Y-6600D02*
X-32220Y-7156D01*
X-34500Y-6900D02*
X-34369D01*
X-29850Y-475D02*
Y131D01*
X-33420Y-4932D02*
X-30527Y-2038D01*
X-34500Y-6900D02*
X-34048Y-6448D01*
X-33150Y-698D02*
Y-475D01*
X-35700Y-9200D02*
Y-5352D01*
X-34956Y-3556D02*
X-33894Y-2494D01*
X-35350Y-2993D02*
Y-475D01*
X-37700Y-11400D02*
Y-10424D01*
X-37400Y-9700D02*
X-36954Y-9254D01*
X-36210Y-7458D02*
Y-5068D01*
X-35350Y-475D02*
Y1096D01*
X-39000Y-10500D02*
X-37527Y-9027D01*
X-36450Y-3486D02*
Y-475D01*
X-36783Y-7231D02*
Y-4291D01*
X-37550Y-6803D02*
Y-475D01*
X-40000Y-11400D02*
Y-11302D01*
X-39295Y-9600D02*
X-38294Y-8599D01*
X-37550Y-475D02*
Y1579D01*
X-33525Y6522D02*
X-33525Y6522D01*
X-32800D01*
X-29891Y7871D02*
X-29271D01*
X-28900Y7500D01*
X-43125Y1702D02*
Y2262D01*
X-42900Y950D02*
Y1159D01*
X-42779Y900D02*
X-42200D01*
X-43764Y9911D02*
X-43175Y10500D01*
X-43900Y3700D02*
X-43700Y3500D01*
X-33184Y8940D02*
Y10258D01*
X-32776Y8532D02*
Y8532D01*
Y8532D02*
X-29891D01*
X-31912Y11434D02*
X-31650D01*
X-31638D02*
Y12751D01*
X-32605Y11170D02*
X-32549D01*
X-33684Y11434D02*
X-33584D01*
X-33242D01*
X-33584Y11223D02*
Y11434D01*
X-34801Y-5591D02*
X-34801Y-5591D01*
X-29100Y2431D02*
Y3250D01*
X-22254Y12308D02*
Y12690D01*
X-25886Y8759D02*
X-25886D01*
X-22254Y12690D02*
Y13885D01*
X-28555Y10475D02*
X-27300D01*
X-35800Y2700D02*
X-35100D01*
X-35100Y2700D01*
X-33525Y3390D02*
X-33496Y3361D01*
X-31900Y2700D02*
X-30500D01*
X-29100Y6625D02*
X-28275D01*
X-19500Y12150D02*
X-17881D01*
X-17350Y11930D02*
X-16025D01*
X-42525Y2800D02*
X-42525Y2800D01*
X-43125Y3262D02*
X-42525Y2800D01*
X-42525Y2800D02*
X-42525Y2800D01*
X-44088Y4154D02*
Y9265D01*
X-42018Y2590D02*
X-41745D01*
X-27300Y3940D02*
Y4775D01*
X-28555Y9438D02*
X-27337D01*
X-44012Y-10100D02*
X-43882Y-10230D01*
X-43582Y182D02*
X-43582Y182D01*
X-43100Y-300D01*
X-42150Y-975D02*
X-41855D01*
X-40059Y-231D02*
X-40039Y-211D01*
X-41745Y6875D02*
X-41000D01*
X-39995Y4770D02*
X-39599D01*
X-40400Y7475D02*
Y8428D01*
X-39156Y4953D02*
X-38600D01*
X-34232Y5468D02*
X-34100Y5600D01*
X-34246D02*
X-34100D01*
X-39728Y9100D02*
X-39100D01*
X-34550Y6334D02*
Y6522D01*
X-32050Y-475D02*
Y-121D01*
D11*
X-22628Y763D02*
G03*
X-22447Y688I181J181D01*
G01*
X-21600Y-176D02*
G03*
X-21400Y-659I683J0D01*
G01*
X-23565Y345D02*
G03*
X-22946Y-840I2197J393D01*
G01*
X-22597Y2862D02*
X-22597Y2300D01*
X-22597Y2100D01*
X-21600Y-176D02*
Y2300D01*
X-23865Y2000D02*
X-22628Y763D01*
X-22597Y1561D02*
Y2100D01*
Y1561D02*
X-22597Y1561D01*
X-20136Y6787D02*
Y9100D01*
D12*
X-16000Y9000D02*
D03*
Y-9000D02*
D03*
X-35045Y12966D02*
D03*
X-36545D02*
D03*
X-39545D02*
D03*
X-38045D02*
D03*
X-43175Y4500D02*
D03*
Y6000D02*
D03*
Y7500D02*
D03*
Y10500D02*
D03*
Y9000D02*
D03*
D13*
X-27068Y11800D02*
G03*
X-26400Y12468I0J668D01*
G01*
X-40613Y889D02*
G03*
X-40458Y1261I-372J372D01*
G01*
X-27300Y12800D02*
G03*
X-27338Y12838I-38J0D01*
G01*
X-38480Y-459D02*
G03*
X-38256Y81I-541J541D01*
G01*
X-37781Y3415D02*
G03*
X-38256Y2940I0J-475D01*
G01*
X-37194Y3415D02*
G03*
X-36825Y3784I0J369D01*
G01*
X-22445Y-8625D02*
G03*
X-22590Y-8480I-145J0D01*
G01*
X-21759Y-10150D02*
G03*
X-21409Y-9800I0J350D01*
G01*
Y-8661D02*
G03*
X-21445Y-8625I-36J0D01*
G01*
X-44538Y-1510D02*
G03*
X-43794Y-3306I2540J0D01*
G01*
X-44277Y12259D02*
G03*
X-44538Y11628I631J-631D01*
G01*
X-27300Y11800D02*
X-27068D01*
X-27300D02*
X-27300D01*
X-40701Y800D02*
X-40613Y889D01*
X-40800Y800D02*
X-40701D01*
X-40458Y1261D02*
Y2800D01*
X-27300Y10475D02*
Y11800D01*
X-36825Y3784D02*
Y4075D01*
X-38256Y81D02*
Y2940D01*
X-37781Y3415D02*
X-37194D01*
X-23905Y-8480D02*
X-22590D01*
X-22545Y-10150D02*
X-21759D01*
X-21409Y-9800D02*
Y-8661D01*
X-28555Y12838D02*
X-27338D01*
X-43794Y-3306D02*
X-39100Y-8000D01*
X-44538Y-1510D02*
Y11628D01*
X-27646Y304D02*
X-27638Y311D01*
D15*
X-34801Y-5591D02*
D03*
X-43582Y182D02*
D03*
X-34246Y5600D02*
D03*
D17*
X-23858Y9087D02*
G03*
X-24400Y8546I0J-542D01*
G01*
X-24600Y7875D02*
G03*
X-24758Y7493I382J-382D01*
G01*
X-24969Y6699D02*
G03*
X-24758Y6787I0J298D01*
G01*
X-24600Y7875D02*
G03*
X-24400Y8358I-483J483D01*
G01*
X-23500Y3200D02*
G03*
X-23550Y3250I-50J0D01*
G01*
X-34500Y10433D02*
G03*
X-34259Y9852I821J0D01*
G01*
X-34166Y12234D02*
G03*
X-34500Y11427I807J-807D01*
G01*
X-33684Y12434D02*
G03*
X-34166Y12234I0J-681D01*
G01*
X-23858Y9087D02*
X-23447D01*
X-24400Y8358D02*
Y8546D01*
X-25886Y6699D02*
X-24969D01*
X-24758Y6787D02*
Y7493D01*
X-41300Y12190D02*
X-41300Y12190D01*
X-41300Y12190D02*
Y13400D01*
X-34500Y10433D02*
Y11427D01*
D18*
X-41300Y12190D02*
D03*
X-41300Y10500D02*
D03*
D19*
X-29595Y12400D02*
D03*
Y11400D02*
D03*
X-27300Y11800D02*
D03*
Y12800D02*
D03*
X-43125Y3262D02*
D03*
Y2262D02*
D03*
X-37600Y2700D02*
D03*
Y1700D02*
D03*
X-36450Y2700D02*
D03*
Y1700D02*
D03*
X-27300Y7075D02*
D03*
Y8075D02*
D03*
X-27300Y10475D02*
D03*
Y9475D02*
D03*
X-35100Y2700D02*
D03*
Y1700D02*
D03*
X-31900Y2700D02*
D03*
Y1700D02*
D03*
X-30500Y2700D02*
D03*
Y1700D02*
D03*
X-29100Y6625D02*
D03*
X-29100Y5625D02*
D03*
X-29100Y4250D02*
D03*
X-29100Y3250D02*
D03*
X-33684Y12434D02*
D03*
Y11434D02*
D03*
D20*
X-31650Y11434D02*
D03*
X-30650D02*
D03*
X-42900Y950D02*
D03*
X-43900D02*
D03*
X-37825Y4075D02*
D03*
X-36825D02*
D03*
X-23447Y9087D02*
D03*
X-22447D02*
D03*
X-22445Y-8625D02*
D03*
X-21445D02*
D03*
X-21139Y14000D02*
D03*
X-22139D02*
D03*
D25*
X-30612Y12751D02*
D03*
X-31638D02*
D03*
X-39995Y4770D02*
D03*
X-41020D02*
D03*
X-34550Y4700D02*
D03*
X-35575Y4700D02*
D03*
X-22300Y-13475D02*
D03*
X-21275D02*
D03*
X-22254Y12690D02*
D03*
X-21229Y12690D02*
D03*
X-33525Y6522D02*
D03*
X-34550Y6522D02*
D03*
D26*
X-23656Y-1419D02*
D03*
X-25346Y-1419D02*
D03*
D27*
X-28555Y11813D02*
D03*
Y12838D02*
D03*
X-27300Y5800D02*
D03*
Y4775D02*
D03*
X-28555Y9438D02*
D03*
Y10462D02*
D03*
X-23905Y-8480D02*
D03*
Y-9505D02*
D03*
X-16025Y11930D02*
D03*
X-16025Y12955D02*
D03*
D33*
X-25886Y6899D02*
D03*
X-25886Y8959D02*
D03*
D34*
X-24758Y6787D02*
D03*
X-22447Y6787D02*
D03*
X-20136Y6787D02*
D03*
D35*
X-22447Y688D02*
D03*
D37*
X-29891Y9852D02*
D03*
X-29891Y9192D02*
D03*
X-29891Y8532D02*
D03*
X-29891Y7871D02*
D03*
X-34259Y7871D02*
D03*
X-34259Y8532D02*
D03*
X-34259Y9192D02*
D03*
X-34259Y9852D02*
D03*
D39*
X-37625Y5925D02*
G03*
X-37550Y6000I0J75D01*
G01*
X-41745Y7825D02*
G03*
X-41300Y8899I-1074J1074D01*
G01*
X-34247Y13822D02*
G03*
X-34248Y13823I-1362J-1360D01*
G01*
X-37550Y7750D02*
G03*
X-37625Y7825I-75J0D01*
G01*
X-41818Y4517D02*
G03*
X-41817Y4518I-176J176D01*
G01*
D02*
G03*
X-41745Y4693I-177J176D01*
G01*
X-41900Y14300D02*
G03*
X-43175Y13025I0J-1275D01*
G01*
X-41208Y4770D02*
G03*
X-41817Y4518I0J-863D01*
G01*
X-33684Y12461D02*
G03*
X-34247Y13822I-1925J0D01*
G01*
X-34248Y13823D02*
G03*
X-35400Y14300I-1152J-1152D01*
G01*
X-41745Y4693D02*
Y5925D01*
X-39295Y5925D02*
X-37625D01*
X-41300Y8899D02*
Y10500D01*
X-43175D02*
X-41300D01*
X-39295Y7825D02*
X-37625D01*
X-43175Y10500D02*
Y13025D01*
X-41208Y4770D02*
X-41020D01*
X-41900Y14300D02*
X-35400D01*
X-33684Y12434D02*
Y12461D01*
D40*
X-7005Y-13400D02*
D03*
X-12085Y-13400D02*
D03*
X-14625Y-13400D02*
D03*
X-9545Y-13400D02*
D03*
D41*
X-17165Y-13400D02*
D03*
D42*
X-23968Y-6575D02*
D03*
X-20158D02*
D03*
X-22698D02*
D03*
X-21428D02*
D03*
D43*
X-25886Y9950D02*
D03*
X-24200Y11047D02*
D03*
X-26400Y12468D02*
D03*
X-19600Y11215D02*
D03*
X-18835Y13038D02*
D03*
X-40800Y800D02*
D03*
X-43100Y-300D02*
D03*
X-40458Y2800D02*
D03*
X-38600Y4953D02*
D03*
X-41818Y4517D02*
D03*
X-31331Y13900D02*
D03*
X-30575Y13919D02*
D03*
X-40912Y-8100D02*
D03*
X-36895Y9501D02*
D03*
X-32000Y9275D02*
D03*
Y10000D02*
D03*
X-31211D02*
D03*
Y9275D02*
D03*
X-27208Y3848D02*
D03*
X-39754Y-3150D02*
D03*
X-28800Y-2096D02*
D03*
X-38480Y-459D02*
D03*
X-27325Y-7183D02*
D03*
X-26543Y-10575D02*
D03*
X-43050Y-2850D02*
D03*
X-43100Y-1292D02*
D03*
X-19300Y-8900D02*
D03*
X-32000Y-13683D02*
D03*
X-30231Y-13433D02*
D03*
X-39000Y-10500D02*
D03*
X-37700Y-11400D02*
D03*
X-37000Y-10500D02*
D03*
X-40000Y-11400D02*
D03*
X-37700Y8683D02*
D03*
X-27760Y-2557D02*
D03*
X-21625Y-2725D02*
D03*
X-20875D02*
D03*
Y-3500D02*
D03*
X-21625D02*
D03*
X-24000D02*
D03*
X-23250D02*
D03*
Y-2725D02*
D03*
X-24000D02*
D03*
X-19658Y-3500D02*
D03*
X-18908D02*
D03*
Y-2725D02*
D03*
X-19658D02*
D03*
X-25900Y-2725D02*
D03*
X-25150D02*
D03*
Y-3500D02*
D03*
X-25900D02*
D03*
X-36783Y8728D02*
D03*
X-28217Y5625D02*
D03*
X-32450Y845D02*
D03*
X-24800Y-10500D02*
D03*
X-41617Y-12095D02*
D03*
X-29595Y-12208D02*
D03*
X-27687Y-5100D02*
D03*
X-26700Y-8850D02*
D03*
X-44025Y-13683D02*
D03*
X-39100Y9100D02*
D03*
X-35000Y-11324D02*
D03*
X-33500Y-11324D02*
D03*
X-31211Y2700D02*
D03*
X-35800D02*
D03*
X-17935Y-10844D02*
D03*
X-19500Y-11100D02*
D03*
X-23010Y-13475D02*
D03*
X-20561Y-13475D02*
D03*
X-24700Y-9505D02*
D03*
X-23600Y-12050D02*
D03*
X-28581Y-10600D02*
D03*
X-44012Y-10100D02*
D03*
X-42500Y-13800D02*
D03*
X-34878Y-5778D02*
D03*
X-32776Y-5300D02*
D03*
X-25650Y-6350D02*
D03*
X-29868Y-7056D02*
D03*
X-32243Y-1819D02*
D03*
X-33500Y-3176D02*
D03*
X-33477Y917D02*
D03*
X-37700Y9475D02*
D03*
Y10200D02*
D03*
X-15217Y13188D02*
D03*
X-15200Y11900D02*
D03*
X-17500Y13895D02*
D03*
X-32776Y-6600D02*
D03*
X-34500Y-6900D02*
D03*
X-32800Y6522D02*
D03*
X-34100Y5600D02*
D03*
X-32400Y4000D02*
D03*
X-28200Y6700D02*
D03*
X-28121Y8592D02*
D03*
X-28900Y7500D02*
D03*
X-27700Y13700D02*
D03*
X-29482Y14100D02*
D03*
X-39100Y-8000D02*
D03*
X-44277Y12259D02*
D03*
X-41300Y13400D02*
D03*
X-32501Y12025D02*
D03*
X-27550Y400D02*
D03*
Y1355D02*
D03*
X-29100Y2431D02*
D03*
X-22700Y11562D02*
D03*
D44*
X-18121Y9100D02*
D03*
X-20136D02*
D03*
D45*
X-19500Y12150D02*
D03*
Y14050D02*
D03*
X-17500Y13100D02*
D03*
X-22545Y-12050D02*
D03*
Y-10150D02*
D03*
X-20545Y-11100D02*
D03*
D46*
X-43050Y-10575D02*
D03*
X-27550D02*
D03*
D47*
X-37550Y-475D02*
D03*
X-36450D02*
D03*
X-35350D02*
D03*
X-34250D02*
D03*
X-33150D02*
D03*
X-32050D02*
D03*
X-30950D02*
D03*
X-29850D02*
D03*
X-28750D02*
D03*
D48*
X-42150Y-975D02*
D03*
D49*
X-27550D02*
D03*
D50*
X-33525Y3390D02*
D03*
Y1870D02*
D03*
D51*
X-39295Y5925D02*
D03*
X-39295Y7825D02*
D03*
X-41745Y7825D02*
D03*
Y6875D02*
D03*
Y5925D02*
D03*
Y1640D02*
D03*
Y2590D02*
D03*
Y3540D02*
D03*
X-39295Y3540D02*
D03*
X-39295Y1640D02*
D03*
D52*
X-37550Y6000D02*
D03*
X-37550Y7750D02*
D03*
D53*
X-39078Y10864D02*
D03*
X-36078D02*
D03*
M02*
