M48
;Layer_Color=9474304
;FILE_FORMAT=4:3
METRIC,LZ
;TYPE=PLATED
T1F00S00C0.300
T2F00S00C0.400
T3F00S00C0.750
T4F00S00C0.900
;TYPE=NON_PLATED
T5F00S00C0.600
T6F00S00C2.000
%
T01
X-0028581Y-00106
X-0026543Y-0010575
X-00248Y-00105
X-00247Y-0009505
X-00267Y-000885
X-0027325Y-0007183
X-0027687Y-00051
X-002776Y-0002557
X-00259Y-0002725
X-002515
Y-00035
X-00259
X-0024Y-00035
X-002325
Y-0002725
X-0024
X-0021625
X-0020875
Y-00035
X-0021625
X-0019658
X-0018908
Y-0002725
X-0019658
X-00193Y-00089
X-00195Y-00111
X-0017935Y-0010844
X-0020561Y-0013475
X-002301Y-0013475
X-00236Y-001205
X-002565Y-000635
X-002755Y00004
Y0001355
X-0027208Y0003848
X-0028217Y0005625
X-00282Y00067
X-0028121Y0008592
X-0025886Y000995
X-00242Y0011047
X-00227Y0011562
X-00196Y0011215
X-0018835Y0013038
X-00175Y0013895
X-0015217Y0013188
X-00152Y00119
X-00264Y0012468
X-00277Y00137
X-0029482Y00141
X-0030575Y0013919
X-0031331Y00139
X-0032501Y0012025
X-0032Y001
Y0009275
X-0031211
Y001
X-00289Y00075
X-00328Y0006522
X-00341Y00056
X-00324Y0004
X-0031211Y00027
X-00291Y0002431
X-00288Y-0002096
X-0032243Y-0001819
X-00335Y-0003176
X-0032776Y-00053
X-0032776Y-00066
X-00345Y-00069
X-0034878Y-0005778
X-0035Y-0011324
X-00335Y-0011324
X-0032Y-0013683
X-0030231Y-0013433
X-0029595Y-0012208
X-0029868Y-0007056
X-00391Y-0008
X-0040912Y-00081
X-004Y-00114
X-0039Y-00105
X-0037
X-00377Y-00114
X-0041617Y-0012095
X-00425Y-00138
X-0044025Y-0013683
X-0044012Y-00101
X-004305Y-000285
X-00431Y-0001292
Y-00003
X-00408Y00008
X-0040458Y00028
X-0041818Y0004517
X-00386Y0004953
X-00377Y0008683
Y0009475
Y00102
X-0036895Y0009501
X-0036783Y0008728
X-00391Y00091
X-00413Y00134
X-0044277Y0012259
X-00358Y00027
X-0033477Y0000917
X-003245Y0000845
X-003848Y-0000459
X-0039754Y-000315
T02
X-0016Y-0009
Y0009
X-0035045Y0012966
X-0036545
X-0038045
X-0039545
X-0043175Y00105
Y0009
Y00075
Y0006
Y00045
T03
X-0023968Y-0006575
X-0022698
X-0021428
X-0020158
T04
X-0017165Y-00134
X-0014625Y-00134
X-0012085Y-00134
X-0009545Y-00134
X-0007005Y-00134
T05
X-0044342Y0014333
T06
X-0016Y-0005
Y0005
X-00025Y00125
Y-00125
M30
