G04 Layer_Physical_Order=1*
G04 Layer_Color=16776960*
%FSLAX43Y43*%
%MOMM*%
G71*
G01*
G75*
%ADD10C,0.300*%
%ADD11C,1.000*%
%ADD12C,1.000*%
%ADD13C,0.200*%
%ADD14C,0.250*%
%ADD15C,0.300*%
%ADD16C,0.200*%
%ADD17C,0.400*%
G04:AMPARAMS|DCode=18|XSize=1.21mm|YSize=1.46mm|CornerRadius=0.151mm|HoleSize=0mm|Usage=FLASHONLY|Rotation=270.000|XOffset=0mm|YOffset=0mm|HoleType=Round|Shape=RoundedRectangle|*
%AMROUNDEDRECTD18*
21,1,1.210,1.157,0,0,270.0*
21,1,0.907,1.460,0,0,270.0*
1,1,0.302,-0.579,-0.454*
1,1,0.302,-0.579,0.454*
1,1,0.302,0.579,0.454*
1,1,0.302,0.579,-0.454*
%
%ADD18ROUNDEDRECTD18*%
G04:AMPARAMS|DCode=19|XSize=0.61mm|YSize=0.6mm|CornerRadius=0.075mm|HoleSize=0mm|Usage=FLASHONLY|Rotation=90.000|XOffset=0mm|YOffset=0mm|HoleType=Round|Shape=RoundedRectangle|*
%AMROUNDEDRECTD19*
21,1,0.610,0.450,0,0,90.0*
21,1,0.460,0.600,0,0,90.0*
1,1,0.150,0.225,0.230*
1,1,0.150,0.225,-0.230*
1,1,0.150,-0.225,-0.230*
1,1,0.150,-0.225,0.230*
%
%ADD19ROUNDEDRECTD19*%
G04:AMPARAMS|DCode=20|XSize=0.61mm|YSize=0.6mm|CornerRadius=0.075mm|HoleSize=0mm|Usage=FLASHONLY|Rotation=0.000|XOffset=0mm|YOffset=0mm|HoleType=Round|Shape=RoundedRectangle|*
%AMROUNDEDRECTD20*
21,1,0.610,0.450,0,0,0.0*
21,1,0.460,0.600,0,0,0.0*
1,1,0.150,0.230,-0.225*
1,1,0.150,-0.230,-0.225*
1,1,0.150,-0.230,0.225*
1,1,0.150,0.230,0.225*
%
%ADD20ROUNDEDRECTD20*%
G04:AMPARAMS|DCode=21|XSize=0.3mm|YSize=1.5mm|CornerRadius=0.037mm|HoleSize=0mm|Usage=FLASHONLY|Rotation=180.000|XOffset=0mm|YOffset=0mm|HoleType=Round|Shape=RoundedRectangle|*
%AMROUNDEDRECTD21*
21,1,0.300,1.425,0,0,180.0*
21,1,0.225,1.500,0,0,180.0*
1,1,0.075,-0.113,0.713*
1,1,0.075,0.113,0.713*
1,1,0.075,0.113,-0.713*
1,1,0.075,-0.113,-0.713*
%
%ADD21ROUNDEDRECTD21*%
G04:AMPARAMS|DCode=22|XSize=0.3mm|YSize=1.5mm|CornerRadius=0.037mm|HoleSize=0mm|Usage=FLASHONLY|Rotation=90.000|XOffset=0mm|YOffset=0mm|HoleType=Round|Shape=RoundedRectangle|*
%AMROUNDEDRECTD22*
21,1,0.300,1.425,0,0,90.0*
21,1,0.225,1.500,0,0,90.0*
1,1,0.075,0.713,0.113*
1,1,0.075,0.713,-0.113*
1,1,0.075,-0.713,-0.113*
1,1,0.075,-0.713,0.113*
%
%ADD22ROUNDEDRECTD22*%
G04:AMPARAMS|DCode=23|XSize=0.4mm|YSize=1.05mm|CornerRadius=0.1mm|HoleSize=0mm|Usage=FLASHONLY|Rotation=0.000|XOffset=0mm|YOffset=0mm|HoleType=Round|Shape=RoundedRectangle|*
%AMROUNDEDRECTD23*
21,1,0.400,0.850,0,0,0.0*
21,1,0.200,1.050,0,0,0.0*
1,1,0.200,0.100,-0.425*
1,1,0.200,-0.100,-0.425*
1,1,0.200,-0.100,0.425*
1,1,0.200,0.100,0.425*
%
%ADD23ROUNDEDRECTD23*%
G04:AMPARAMS|DCode=24|XSize=0.5mm|YSize=0.5mm|CornerRadius=0.063mm|HoleSize=0mm|Usage=FLASHONLY|Rotation=0.000|XOffset=0mm|YOffset=0mm|HoleType=Round|Shape=RoundedRectangle|*
%AMROUNDEDRECTD24*
21,1,0.500,0.375,0,0,0.0*
21,1,0.375,0.500,0,0,0.0*
1,1,0.125,0.188,-0.188*
1,1,0.125,-0.188,-0.188*
1,1,0.125,-0.188,0.188*
1,1,0.125,0.188,0.188*
%
%ADD24ROUNDEDRECTD24*%
G04:AMPARAMS|DCode=25|XSize=0.59mm|YSize=0.6mm|CornerRadius=0.074mm|HoleSize=0mm|Usage=FLASHONLY|Rotation=0.000|XOffset=0mm|YOffset=0mm|HoleType=Round|Shape=RoundedRectangle|*
%AMROUNDEDRECTD25*
21,1,0.590,0.453,0,0,0.0*
21,1,0.443,0.600,0,0,0.0*
1,1,0.147,0.221,-0.226*
1,1,0.147,-0.221,-0.226*
1,1,0.147,-0.221,0.226*
1,1,0.147,0.221,0.226*
%
%ADD25ROUNDEDRECTD25*%
G04:AMPARAMS|DCode=26|XSize=1.21mm|YSize=1.46mm|CornerRadius=0.151mm|HoleSize=0mm|Usage=FLASHONLY|Rotation=180.000|XOffset=0mm|YOffset=0mm|HoleType=Round|Shape=RoundedRectangle|*
%AMROUNDEDRECTD26*
21,1,1.210,1.157,0,0,180.0*
21,1,0.907,1.460,0,0,180.0*
1,1,0.302,-0.454,0.579*
1,1,0.302,0.454,0.579*
1,1,0.302,0.454,-0.579*
1,1,0.302,-0.454,-0.579*
%
%ADD26ROUNDEDRECTD26*%
G04:AMPARAMS|DCode=27|XSize=0.59mm|YSize=0.6mm|CornerRadius=0.074mm|HoleSize=0mm|Usage=FLASHONLY|Rotation=90.000|XOffset=0mm|YOffset=0mm|HoleType=Round|Shape=RoundedRectangle|*
%AMROUNDEDRECTD27*
21,1,0.590,0.453,0,0,90.0*
21,1,0.443,0.600,0,0,90.0*
1,1,0.147,0.226,0.221*
1,1,0.147,0.226,-0.221*
1,1,0.147,-0.226,-0.221*
1,1,0.147,-0.226,0.221*
%
%ADD27ROUNDEDRECTD27*%
G04:AMPARAMS|DCode=28|XSize=0.94mm|YSize=1.03mm|CornerRadius=0.117mm|HoleSize=0mm|Usage=FLASHONLY|Rotation=0.000|XOffset=0mm|YOffset=0mm|HoleType=Round|Shape=RoundedRectangle|*
%AMROUNDEDRECTD28*
21,1,0.940,0.795,0,0,0.0*
21,1,0.705,1.030,0,0,0.0*
1,1,0.235,0.352,-0.398*
1,1,0.235,-0.352,-0.398*
1,1,0.235,-0.352,0.398*
1,1,0.235,0.352,0.398*
%
%ADD28ROUNDEDRECTD28*%
G04:AMPARAMS|DCode=29|XSize=0.94mm|YSize=1.03mm|CornerRadius=0.117mm|HoleSize=0mm|Usage=FLASHONLY|Rotation=90.000|XOffset=0mm|YOffset=0mm|HoleType=Round|Shape=RoundedRectangle|*
%AMROUNDEDRECTD29*
21,1,0.940,0.795,0,0,90.0*
21,1,0.705,1.030,0,0,90.0*
1,1,0.235,0.398,0.352*
1,1,0.235,0.398,-0.352*
1,1,0.235,-0.398,-0.352*
1,1,0.235,-0.398,0.352*
%
%ADD29ROUNDEDRECTD29*%
G04:AMPARAMS|DCode=30|XSize=0.68mm|YSize=2.17mm|CornerRadius=0.085mm|HoleSize=0mm|Usage=FLASHONLY|Rotation=90.000|XOffset=0mm|YOffset=0mm|HoleType=Round|Shape=RoundedRectangle|*
%AMROUNDEDRECTD30*
21,1,0.680,2.000,0,0,90.0*
21,1,0.510,2.170,0,0,90.0*
1,1,0.170,1.000,0.255*
1,1,0.170,1.000,-0.255*
1,1,0.170,-1.000,-0.255*
1,1,0.170,-1.000,0.255*
%
%ADD30ROUNDEDRECTD30*%
G04:AMPARAMS|DCode=31|XSize=1.05mm|YSize=1.07mm|CornerRadius=0.131mm|HoleSize=0mm|Usage=FLASHONLY|Rotation=180.000|XOffset=0mm|YOffset=0mm|HoleType=Round|Shape=RoundedRectangle|*
%AMROUNDEDRECTD31*
21,1,1.050,0.807,0,0,180.0*
21,1,0.787,1.070,0,0,180.0*
1,1,0.263,-0.394,0.404*
1,1,0.263,0.394,0.404*
1,1,0.263,0.394,-0.404*
1,1,0.263,-0.394,-0.404*
%
%ADD31ROUNDEDRECTD31*%
G04:AMPARAMS|DCode=32|XSize=1.53mm|YSize=1.02mm|CornerRadius=0.128mm|HoleSize=0mm|Usage=FLASHONLY|Rotation=0.000|XOffset=0mm|YOffset=0mm|HoleType=Round|Shape=RoundedRectangle|*
%AMROUNDEDRECTD32*
21,1,1.530,0.765,0,0,0.0*
21,1,1.275,1.020,0,0,0.0*
1,1,0.255,0.637,-0.383*
1,1,0.255,-0.637,-0.383*
1,1,0.255,-0.637,0.383*
1,1,0.255,0.637,0.383*
%
%ADD32ROUNDEDRECTD32*%
G04:AMPARAMS|DCode=33|XSize=1.26mm|YSize=0.58mm|CornerRadius=0.072mm|HoleSize=0mm|Usage=FLASHONLY|Rotation=90.000|XOffset=0mm|YOffset=0mm|HoleType=Round|Shape=RoundedRectangle|*
%AMROUNDEDRECTD33*
21,1,1.260,0.435,0,0,90.0*
21,1,1.115,0.580,0,0,90.0*
1,1,0.145,0.217,0.557*
1,1,0.145,0.217,-0.557*
1,1,0.145,-0.217,-0.557*
1,1,0.145,-0.217,0.557*
%
%ADD33ROUNDEDRECTD33*%
G04:AMPARAMS|DCode=34|XSize=0.97mm|YSize=1.85mm|CornerRadius=0.121mm|HoleSize=0mm|Usage=FLASHONLY|Rotation=0.000|XOffset=0mm|YOffset=0mm|HoleType=Round|Shape=RoundedRectangle|*
%AMROUNDEDRECTD34*
21,1,0.970,1.607,0,0,0.0*
21,1,0.728,1.850,0,0,0.0*
1,1,0.242,0.364,-0.804*
1,1,0.242,-0.364,-0.804*
1,1,0.242,-0.364,0.804*
1,1,0.242,0.364,0.804*
%
%ADD34ROUNDEDRECTD34*%
G04:AMPARAMS|DCode=35|XSize=3.27mm|YSize=1.85mm|CornerRadius=0.231mm|HoleSize=0mm|Usage=FLASHONLY|Rotation=0.000|XOffset=0mm|YOffset=0mm|HoleType=Round|Shape=RoundedRectangle|*
%AMROUNDEDRECTD35*
21,1,3.270,1.387,0,0,0.0*
21,1,2.808,1.850,0,0,0.0*
1,1,0.463,1.404,-0.694*
1,1,0.463,-1.404,-0.694*
1,1,0.463,-1.404,0.694*
1,1,0.463,1.404,0.694*
%
%ADD35ROUNDEDRECTD35*%
%ADD36R,1.600X0.300*%
G04:AMPARAMS|DCode=37|XSize=1.372mm|YSize=0.406mm|CornerRadius=0.051mm|HoleSize=0mm|Usage=FLASHONLY|Rotation=0.000|XOffset=0mm|YOffset=0mm|HoleType=Round|Shape=RoundedRectangle|*
%AMROUNDEDRECTD37*
21,1,1.372,0.305,0,0,0.0*
21,1,1.270,0.406,0,0,0.0*
1,1,0.102,0.635,-0.152*
1,1,0.102,-0.635,-0.152*
1,1,0.102,-0.635,0.152*
1,1,0.102,0.635,0.152*
%
%ADD37ROUNDEDRECTD37*%
G04:AMPARAMS|DCode=38|XSize=0.3mm|YSize=1mm|CornerRadius=0.037mm|HoleSize=0mm|Usage=FLASHONLY|Rotation=90.000|XOffset=0mm|YOffset=0mm|HoleType=Round|Shape=RoundedRectangle|*
%AMROUNDEDRECTD38*
21,1,0.300,0.925,0,0,90.0*
21,1,0.225,1.000,0,0,90.0*
1,1,0.075,0.463,0.113*
1,1,0.075,0.463,-0.113*
1,1,0.075,-0.463,-0.113*
1,1,0.075,-0.463,0.113*
%
%ADD38ROUNDEDRECTD38*%
%ADD39C,0.500*%
%ADD40C,1.700*%
%ADD41R,1.700X1.700*%
G04:AMPARAMS|DCode=42|XSize=1mm|YSize=1.4mm|CornerRadius=0.125mm|HoleSize=0mm|Usage=FLASHONLY|Rotation=0.000|XOffset=0mm|YOffset=0mm|HoleType=Round|Shape=RoundedRectangle|*
%AMROUNDEDRECTD42*
21,1,1.000,1.150,0,0,0.0*
21,1,0.750,1.400,0,0,0.0*
1,1,0.250,0.375,-0.575*
1,1,0.250,-0.375,-0.575*
1,1,0.250,-0.375,0.575*
1,1,0.250,0.375,0.575*
%
%ADD42ROUNDEDRECTD42*%
%ADD43C,0.700*%
G36*
X-18755Y7625D02*
X-18644D01*
X-18441Y7541D01*
X-18284Y7384D01*
X-18230Y7253D01*
X-18200Y7070D01*
Y7070D01*
X-18200Y7070D01*
X-18200Y7070D01*
X-18200Y315D01*
Y203D01*
X-18286Y-5D01*
X-18445Y-164D01*
X-18653Y-250D01*
X-19401D01*
X-19513Y-70D01*
X-19514Y-50D01*
X-19499Y22D01*
Y426D01*
X-20089D01*
Y826D01*
X-20489D01*
Y1896D01*
X-20600Y2019D01*
X-20600Y6047D01*
X-20590Y6062D01*
X-20581Y6105D01*
X-20513Y6140D01*
X-20364Y6171D01*
X-20326Y6146D01*
X-20237Y6128D01*
X-20000D01*
Y6742D01*
Y7357D01*
X-20142D01*
X-20282Y7514D01*
X-20292Y7550D01*
X-20276Y7602D01*
X-20219Y7625D01*
X-20125Y7625D01*
X-20125Y7625D01*
X-18755Y7625D01*
D02*
G37*
G36*
X-15375Y9875D02*
X-15276Y9875D01*
X-15092Y9799D01*
X-14951Y9658D01*
X-14910Y9558D01*
X-14875Y9375D01*
Y9375D01*
X-14875Y9375D01*
X-14875Y9375D01*
X-14875Y8375D01*
X-14875Y8276D01*
X-14951Y8092D01*
X-15092Y7951D01*
X-15190Y7911D01*
X-15375Y7875D01*
X-15375Y7875D01*
X-15375Y7875D01*
X-20101Y7875D01*
X-20200Y7875D01*
X-20249Y7895D01*
X-20272Y7948D01*
X-20268Y7972D01*
X-20139Y8143D01*
X-20000D01*
Y8757D01*
Y9372D01*
X-20237D01*
X-20326Y9354D01*
X-20534Y9438D01*
X-20575Y9555D01*
X-20528Y9669D01*
X-20394Y9803D01*
X-20219Y9875D01*
X-20125D01*
X-20125Y9875D01*
X-15375Y9875D01*
D02*
G37*
G36*
X-18500Y-900D02*
X-18500Y-900D01*
X-18500Y-900D01*
X-18500Y-3917D01*
X-18493Y-4055D01*
X-18439Y-4326D01*
X-18334Y-4580D01*
X-18181Y-4810D01*
X-18088Y-4912D01*
X-16477Y-6523D01*
X-14912Y-8088D01*
X-14834Y-8166D01*
X-14713Y-8348D01*
X-14629Y-8551D01*
X-14601Y-8689D01*
X-14586Y-8876D01*
Y-8876D01*
X-14586Y-8876D01*
X-14586Y-8876D01*
X-14586Y-9086D01*
X-14586Y-9168D01*
X-14649Y-9320D01*
X-14765Y-9437D01*
X-14817Y-9458D01*
X-15000Y-9500D01*
X-15372D01*
X-15425Y-9400D01*
X-16575D01*
X-16628Y-9500D01*
X-16699D01*
X-17006Y-9426D01*
X-17452Y-9391D01*
Y-9394D01*
X-18365D01*
X-18530Y-9229D01*
X-18625Y-8999D01*
X-18625Y-8875D01*
X-18625D01*
Y-7319D01*
X-18631Y-7196D01*
X-18679Y-6954D01*
X-18773Y-6726D01*
X-18869Y-6583D01*
X-18910Y-6521D01*
X-18993Y-6430D01*
X-18993Y-6430D01*
X-19458Y-5965D01*
X-19476Y-5873D01*
X-19548Y-5766D01*
X-19656Y-5694D01*
X-19748Y-5676D01*
X-19827Y-5596D01*
X-19961Y-5396D01*
X-20053Y-5173D01*
X-20100Y-4937D01*
Y-4817D01*
X-20100Y-4817D01*
X-20100Y-2405D01*
X-20094Y-2393D01*
X-19914Y-2254D01*
X-19860D01*
Y-1419D01*
X-19460D01*
Y-1019D01*
X-18750D01*
Y-926D01*
X-18592Y-806D01*
X-18589Y-806D01*
X-18500Y-900D01*
D02*
G37*
G36*
X-21900Y5893D02*
X-20996D01*
X-20875Y5793D01*
X-20875Y1475D01*
X-20875Y-244D01*
X-20868Y-319D01*
X-20840Y-384D01*
X-20932Y-562D01*
X-20958Y-584D01*
X-21604D01*
X-21702Y-604D01*
X-21785Y-659D01*
X-21840Y-742D01*
X-21860Y-840D01*
Y-919D01*
X-21150D01*
Y-1419D01*
X-20650D01*
Y-2245D01*
X-20598Y-2235D01*
X-20526Y-2187D01*
X-20465Y-2200D01*
X-20326Y-2256D01*
X-20326Y-3451D01*
X-20326Y-3560D01*
X-20410Y-3762D01*
X-20564Y-3917D01*
X-20688Y-3968D01*
X-20875Y-4000D01*
X-21075Y-4000D01*
X-21975Y-4000D01*
X-22079Y-4000D01*
X-22272Y-3920D01*
X-22420Y-3772D01*
X-22500Y-3579D01*
X-22500Y-3475D01*
X-22500Y-3475D01*
X-22500Y-2450D01*
X-22510Y-2348D01*
X-22588Y-2158D01*
X-22733Y-2013D01*
X-22839Y-1970D01*
X-22844Y-1967D01*
X-22844Y-1967D01*
X-22923Y-1935D01*
X-23025Y-1925D01*
X-23025Y-1925D01*
X-23236Y-1925D01*
X-23240Y-1919D01*
X-23711D01*
Y-1016D01*
X-23941D01*
X-24050Y-834D01*
Y-111D01*
X-24045Y-103D01*
X-24020Y22D01*
Y1630D01*
X-24045Y1755D01*
X-24050Y1763D01*
X-24050Y5756D01*
X-24026Y5790D01*
X-23850Y5902D01*
X-23804Y5893D01*
X-22900D01*
Y6924D01*
X-21900D01*
Y5893D01*
D02*
G37*
G36*
X-34200Y11900D02*
X-34183D01*
X-34166Y11816D01*
X-34113Y11737D01*
X-34062Y11703D01*
X-34062Y11703D01*
X-34035Y11684D01*
X-33942Y11666D01*
X-33480D01*
Y11521D01*
X-33080D01*
Y11259D01*
X-33017D01*
X-32854Y11136D01*
X-32883Y11010D01*
X-34200D01*
Y10806D01*
X-34275Y10757D01*
Y10300D01*
X-34675D01*
Y9900D01*
X-34933D01*
X-34907Y9867D01*
X-34886Y9824D01*
X-34851Y9697D01*
X-34942Y9561D01*
X-34977Y9383D01*
X-35012Y9376D01*
X-35103Y9316D01*
X-35111Y9304D01*
X-35441Y9304D01*
X-35482Y9353D01*
X-35965D01*
Y9753D01*
X-36365D01*
Y10248D01*
X-36400Y10284D01*
Y11004D01*
X-36208Y11115D01*
X-36200Y11115D01*
X-36100Y11095D01*
X-35640D01*
X-35533Y11116D01*
X-35442Y11177D01*
X-35430Y11194D01*
X-35352Y11215D01*
X-35270Y11224D01*
Y11600D01*
Y11868D01*
X-35265Y11893D01*
X-35226Y11951D01*
X-35188Y11976D01*
X-35215Y11970D01*
X-35352Y11985D01*
X-35430Y12006D01*
X-35442Y12023D01*
X-35513Y12071D01*
Y12317D01*
X-35313Y12424D01*
X-35445Y12512D01*
Y12966D01*
X-35045D01*
Y13366D01*
X-34591D01*
X-34612Y13399D01*
X-34633Y13413D01*
X-34573Y13613D01*
X-34200D01*
Y11900D01*
D02*
G37*
G36*
X-40445Y12800D02*
Y9455D01*
X-40445Y9455D01*
X-40445Y9404D01*
X-40484Y9311D01*
X-40556Y9239D01*
X-40649Y9200D01*
X-40700Y9200D01*
X-42366Y9200D01*
X-42402Y9200D01*
X-42468Y9227D01*
X-42518Y9277D01*
X-42545Y9343D01*
X-42545Y9379D01*
X-42545Y9501D01*
X-42545Y9501D01*
X-42545Y9501D01*
X-42549Y9540D01*
X-42578Y9612D01*
X-42578Y9612D01*
X-42582Y9615D01*
X-42633Y9667D01*
X-42705Y9696D01*
X-42744Y9700D01*
X-43129Y9700D01*
X-43175Y9706D01*
X-43221Y9700D01*
X-44145Y9700D01*
X-44145Y10979D01*
X-44145Y10979D01*
X-44133Y11101D01*
X-44073Y11246D01*
X-43941Y11378D01*
X-43767Y11450D01*
X-43674Y11450D01*
X-42705D01*
X-42646Y11456D01*
X-42536Y11501D01*
X-42451Y11586D01*
X-42406Y11695D01*
X-42400Y11755D01*
X-42400Y12670D01*
X-42299Y12772D01*
X-42214Y12772D01*
X-42156Y12690D01*
X-42141Y12663D01*
X-42149Y12623D01*
Y11828D01*
X-42132Y11743D01*
X-42084Y11671D01*
X-42075Y11664D01*
Y12225D01*
X-41575D01*
Y12725D01*
X-40981D01*
X-40955Y12772D01*
X-40927Y12800D01*
X-40445Y12800D01*
D02*
G37*
%LPC*%
G36*
X-19689Y1848D02*
Y1226D01*
X-19499D01*
Y1630D01*
X-19516Y1716D01*
X-19565Y1789D01*
X-19639Y1838D01*
X-19689Y1848D01*
D02*
G37*
G36*
X-18734Y6342D02*
X-19200D01*
Y6128D01*
X-18962D01*
X-18874Y6146D01*
X-18798Y6196D01*
X-18748Y6271D01*
X-18734Y6342D01*
D02*
G37*
G36*
X-18962Y7357D02*
X-19200D01*
Y7142D01*
X-18734D01*
X-18748Y7214D01*
X-18798Y7289D01*
X-18874Y7339D01*
X-18962Y7357D01*
D02*
G37*
G36*
X-15600Y9454D02*
Y9400D01*
X-15546D01*
X-15567Y9433D01*
X-15600Y9454D01*
D02*
G37*
G36*
X-16400D02*
X-16433Y9433D01*
X-16454Y9400D01*
X-16400D01*
Y9454D01*
D02*
G37*
G36*
X-18734Y8357D02*
X-19200D01*
Y8143D01*
X-18962D01*
X-18874Y8161D01*
X-18798Y8211D01*
X-18748Y8286D01*
X-18734Y8357D01*
D02*
G37*
G36*
X-16400Y8600D02*
X-16454D01*
X-16433Y8567D01*
X-16400Y8546D01*
Y8600D01*
D02*
G37*
G36*
X-18962Y9372D02*
X-19200D01*
Y9157D01*
X-18734D01*
X-18748Y9229D01*
X-18798Y9304D01*
X-18874Y9354D01*
X-18962Y9372D01*
D02*
G37*
G36*
X-15546Y8600D02*
X-15600D01*
Y8546D01*
X-15567Y8567D01*
X-15546Y8600D01*
D02*
G37*
G36*
X-15600Y-8546D02*
Y-8600D01*
X-15546D01*
X-15567Y-8567D01*
X-15600Y-8546D01*
D02*
G37*
G36*
X-16400D02*
X-16433Y-8567D01*
X-16454Y-8600D01*
X-16400D01*
Y-8546D01*
D02*
G37*
G36*
X-18750Y-1819D02*
X-19060D01*
Y-2254D01*
X-19006D01*
X-18908Y-2235D01*
X-18825Y-2179D01*
X-18770Y-2096D01*
X-18750Y-1998D01*
Y-1819D01*
D02*
G37*
G36*
X-22900Y1805D02*
X-22923Y1789D01*
X-22972Y1716D01*
X-22989Y1630D01*
Y1326D01*
X-22900D01*
Y1805D01*
D02*
G37*
G36*
X-21900D02*
Y1326D01*
X-21811D01*
Y1630D01*
X-21828Y1716D01*
X-21877Y1789D01*
X-21900Y1805D01*
D02*
G37*
G36*
X-21811Y326D02*
X-21900D01*
Y-153D01*
X-21877Y-137D01*
X-21828Y-64D01*
X-21811Y22D01*
Y326D01*
D02*
G37*
G36*
X-22900D02*
X-22989D01*
Y22D01*
X-22972Y-64D01*
X-22923Y-137D01*
X-22900Y-153D01*
Y326D01*
D02*
G37*
G36*
X-21650Y-1919D02*
X-21860D01*
Y-1998D01*
X-21840Y-2096D01*
X-21785Y-2179D01*
X-21702Y-2235D01*
X-21650Y-2245D01*
Y-1919D01*
D02*
G37*
G36*
X-34591Y12566D02*
X-34645D01*
Y12512D01*
X-34612Y12534D01*
X-34591Y12566D01*
D02*
G37*
G36*
X-41029Y11725D02*
X-41075D01*
Y11664D01*
X-41066Y11671D01*
X-41029Y11725D01*
D02*
G37*
G36*
X-41790Y9750D02*
X-42000D01*
Y9671D01*
X-41980Y9573D01*
X-41925Y9490D01*
X-41842Y9435D01*
X-41790Y9424D01*
Y9750D01*
D02*
G37*
G36*
X-40580D02*
X-40790D01*
Y9424D01*
X-40738Y9435D01*
X-40655Y9490D01*
X-40600Y9573D01*
X-40580Y9671D01*
Y9750D01*
D02*
G37*
G36*
X-40790Y11076D02*
Y10750D01*
X-40580D01*
Y10829D01*
X-40600Y10927D01*
X-40655Y11010D01*
X-40738Y11065D01*
X-40790Y11076D01*
D02*
G37*
G36*
X-41790Y11076D02*
X-41842Y11065D01*
X-41925Y11010D01*
X-41980Y10927D01*
X-42000Y10829D01*
Y10750D01*
X-41790D01*
Y11076D01*
D02*
G37*
%LPD*%
D10*
X-24303Y9950D02*
G03*
X-23411Y10842I0J892D01*
G01*
X-19623Y11239D02*
G03*
X-19600Y11215I24J0D01*
G01*
X-23411Y12239D02*
G03*
X-24200Y13028I-789J0D01*
G01*
X-40000Y-935D02*
G03*
X-40655Y-280I-655J0D01*
G01*
X-41600Y5446D02*
G03*
X-42154Y6000I-554J0D01*
G01*
X-28535Y-6350D02*
G03*
X-28575Y-6390I0J-40D01*
G01*
X-30250Y-8100D02*
G03*
X-29482Y-7782I0J1086D01*
G01*
X-39500Y-12091D02*
G03*
X-39600Y-11850I-341J0D01*
G01*
X-28981Y10127D02*
G03*
X-27857Y10593I0J1589D01*
G01*
X-35870Y12491D02*
G03*
X-36545Y13166I-675J0D01*
G01*
X-43175Y7500D02*
G03*
X-42475Y6800I700J0D01*
G01*
X-43175Y9000D02*
G03*
X-42475Y8300I700J0D01*
G01*
X-29280Y-3480D02*
G03*
X-29595Y-4240I760J-760D01*
G01*
X-33500Y973D02*
G03*
X-33477Y917I80J0D01*
G01*
X-43254Y-10600D02*
G03*
X-43375Y-10650I0J-171D01*
G01*
X-29450Y-9525D02*
G03*
X-29175Y-9800I275J0D01*
G01*
X-29450Y-9375D02*
G03*
X-29725Y-9100I-275J0D01*
G01*
X-40000Y-11350D02*
G03*
X-39929Y-11521I241J0D01*
G01*
X-17165Y-13400D02*
G03*
X-16535Y-12770I0J630D01*
G01*
X-21910Y-9900D02*
G03*
X-21600Y-9590I0J310D01*
G01*
X-44025Y-11200D02*
G03*
X-43854Y-11129I0J241D01*
G01*
X-24800Y-10500D02*
G03*
X-23776Y-10076I0J1449D01*
G01*
X-28620Y-5220D02*
G03*
X-28570Y-5100I-119J119D01*
G01*
X-29546Y-8600D02*
G03*
X-29305Y-8500I0J341D01*
G01*
X-28150Y-7900D02*
G03*
X-29097Y-8292I0J-1340D01*
G01*
X-28646Y-6946D02*
G03*
X-28575Y-6775I-171J171D01*
G01*
X-38146Y-10846D02*
G03*
X-38500Y-11700I854J-854D01*
G01*
X-37376Y-10500D02*
G03*
X-38100Y-10800I0J-1024D01*
G01*
X-29611Y4586D02*
G03*
X-29100Y4374I510J510D01*
G01*
X-29611Y4586D02*
G03*
X-30452Y4934I-842J-842D01*
G01*
X-28641Y5449D02*
G03*
X-28217Y5625I0J601D01*
G01*
X-36920Y6500D02*
G03*
X-37644Y6800I-724J-724D01*
G01*
X-36920Y6500D02*
G03*
X-36196Y6200I724J724D01*
G01*
X-21428Y-6575D02*
G03*
X-21600Y-6747I0J-172D01*
G01*
X-37700Y-11400D02*
G03*
X-38000Y-12124I724J-724D01*
G01*
X-36752Y-6600D02*
G03*
X-34956Y-5856I0J2540D01*
G01*
X-22698Y-8002D02*
G03*
X-22600Y-8100I98J0D01*
G01*
X-26716Y-3924D02*
G03*
X-25240Y-5400I1476J0D01*
G01*
X-22698Y-5802D02*
G03*
X-23100Y-5400I-402J0D01*
G01*
X-26716Y1616D02*
G03*
X-27400Y2300I-684J0D01*
G01*
X-31744Y-2400D02*
G03*
X-31400Y-1570I-830J830D01*
G01*
X-31084Y-736D02*
G03*
X-31400Y-1500I764J-764D01*
G01*
X-32227Y-2600D02*
G03*
X-31744Y-2400I0J683D01*
G01*
X-27769Y2300D02*
G03*
X-28245Y2103I0J-673D01*
G01*
X-33000Y-2129D02*
G03*
X-32529Y-2600I471J0D01*
G01*
X-25886Y4468D02*
G03*
X-25450Y3415I1489J0D01*
G01*
X-24711Y1631D02*
G03*
X-25450Y3415I-2523J0D01*
G01*
X-27255Y10842D02*
G03*
X-27857Y10593I0J-852D01*
G01*
X-26768Y11707D02*
G03*
X-27175Y11300I0J-407D01*
G01*
X-42250Y-11100D02*
G03*
X-42500Y-11704I604J-604D01*
G01*
X-41550Y-1850D02*
G03*
X-41232Y-2618I1086J0D01*
G01*
D02*
G03*
X-39948Y-3150I1284J1284D01*
G01*
X-33000Y-12850D02*
G03*
X-32529Y-13045I471J471D01*
G01*
X-29595Y-11325D02*
G03*
X-30138Y-11100I-543J-543D01*
G01*
X-19783Y-9100D02*
G03*
X-19300Y-8900I0J683D01*
G01*
X-28581Y6474D02*
G03*
X-28217Y6625I0J515D01*
G01*
X-28121Y8592D02*
G03*
X-28066Y8594I0J946D01*
G01*
D02*
G03*
X-27175Y9539I-55J945D01*
G01*
X-43100Y-1325D02*
G03*
X-42575Y-1850I525J0D01*
G01*
X-43080Y-280D02*
G03*
X-43100Y-300I0J-20D01*
G01*
X-43175Y4500D02*
G03*
X-42475Y3800I700J0D01*
G01*
X-32776Y-5300D02*
G03*
X-32052Y-5600I724J724D01*
G01*
X-41400Y3800D02*
G03*
X-40600Y4600I0J800D01*
G01*
X-32243Y-789D02*
G03*
X-32682Y-350I-439J0D01*
G01*
X-33113Y5600D02*
G03*
X-32147Y6000I0J1366D01*
G01*
X-32475Y905D02*
G03*
X-32450Y845I85J0D01*
G01*
X-32400Y4000D02*
G03*
X-32064Y3664I336J0D01*
G01*
X-31654Y6204D02*
G03*
X-32147Y6000I0J-697D01*
G01*
X-25886Y8955D02*
Y9950D01*
X-24303D01*
X-23411Y10842D02*
Y12239D01*
X-25886Y8755D02*
Y8955D01*
X-19623Y11239D02*
Y12003D01*
X-20891Y13028D02*
X-18844D01*
X-18835Y13038D01*
X-25259Y13028D02*
X-24200D01*
X-40000Y-1850D02*
Y-935D01*
X-38600Y3963D02*
Y4953D01*
X-38600Y3963D02*
X-38600Y3963D01*
X-43175Y6000D02*
X-42154D01*
X-28535Y-6350D02*
X-27325D01*
X-28575Y-6775D02*
Y-6390D01*
X-29482Y-7782D02*
X-28646Y-6946D01*
X-31250Y-8100D02*
X-30250D01*
X-42250Y-8100D02*
X-40912D01*
X-42250Y-8100D02*
X-42250Y-8100D01*
X-43200Y12200D02*
X-43175Y12225D01*
X-39500Y-12850D02*
Y-12091D01*
X-35870Y11600D02*
Y12491D01*
X-36545Y12966D02*
X-36500Y12921D01*
X-42475Y6800D02*
X-41600D01*
X-42475Y8300D02*
X-41600D01*
X-29595Y-5100D02*
Y-4240D01*
X-33500Y973D02*
Y1800D01*
X-43254Y-10600D02*
X-42250D01*
X-43375Y-10650D02*
X-43375Y-10650D01*
X-43854Y-11129D02*
X-43375Y-10650D01*
X-27325Y-7183D02*
X-27325Y-6350D01*
X-29450Y-9525D02*
Y-9375D01*
X-29175Y-9800D02*
X-28150D01*
X-31250Y-9100D02*
X-29725D01*
X-32000Y-13683D02*
Y-13050D01*
X-32005Y-13045D02*
X-32000Y-13050D01*
X-39000Y-12850D02*
Y-10500D01*
X-39000Y-10500D02*
X-39000Y-10500D01*
X-39500Y-12850D02*
X-39500Y-12850D01*
X-21600Y-9590D02*
Y-8100D01*
X-37700Y7800D02*
X-37700Y8683D01*
X-27760Y-3440D02*
X-27760Y-2557D01*
X-29100Y5449D02*
Y5449D01*
Y5449D01*
X-29100Y5449D02*
X-29100Y5449D01*
X-29100Y5449D02*
X-29100D01*
X-21600Y-8100D02*
X-20158D01*
X-42500Y-12095D02*
X-41617Y-12095D01*
X-28570Y-5100D02*
X-27687Y-5100D01*
X-31250Y-5100D02*
X-29595D01*
X-28150Y-8850D02*
X-26700D01*
X-44025Y-13683D02*
X-44025Y-12800D01*
X-35000Y-12850D02*
X-35000Y-11324D01*
X-33500Y-12850D02*
X-33500Y-11324D01*
X-16535Y-12770D02*
Y-11700D01*
X-28570Y-11325D02*
X-28545Y-11300D01*
X-28581Y-11264D02*
Y-10600D01*
X-23776Y-10076D02*
X-23600Y-9900D01*
X-42500Y-13120D02*
X-42500Y-13120D01*
X-42500Y-13800D02*
Y-13120D01*
X-25650Y-6350D02*
X-25650Y-6350D01*
X-29620Y-6375D02*
X-29588Y-6413D01*
X-31250Y-8600D02*
X-29546D01*
X-29305Y-8500D02*
X-29097Y-8292D01*
X-29868Y-7056D02*
X-29620Y-6375D01*
X-38500Y-12850D02*
Y-11700D01*
X-38146Y-10846D02*
X-38100Y-10800D01*
X-33500Y-2231D02*
X-33500D01*
Y-3176D02*
Y-2231D01*
Y-3276D02*
Y-3176D01*
X-40600Y4600D02*
Y5446D01*
X-30890Y4934D02*
X-30452D01*
X-29100Y4374D02*
Y5449D01*
Y5449D02*
X-28641D01*
X-42250Y-6600D02*
X-36752D01*
X-38000Y-12850D02*
Y-12124D01*
X-42250Y-7100D02*
X-34700D01*
X-37700Y6800D02*
X-37644D01*
X-36196Y6200D02*
X-35867D01*
X-21600Y-8100D02*
Y-6747D01*
X-32776Y-6600D02*
X-31250D01*
X-34700Y-7100D02*
X-34500Y-6900D01*
X-34369D01*
X-37376Y-10500D02*
X-37000D01*
X-40025Y-11425D02*
X-39600Y-11850D01*
X-28067Y8592D02*
X-28000Y8525D01*
X-27175Y9539D02*
Y9842D01*
X-28161Y6700D02*
X-28152Y6690D01*
X-28200Y6700D02*
X-28161D01*
X-29481Y13436D02*
Y14099D01*
X-29482Y14100D02*
X-29481Y14099D01*
X-30680Y13021D02*
X-30254D01*
X-29839Y13436D01*
X-29481D01*
X-34956Y-5856D02*
X-34878Y-5778D01*
X-33000Y-2129D02*
Y-1850D01*
X-22698Y-8102D02*
Y-8002D01*
Y-6575D01*
Y-5802D01*
X-25240Y-5400D02*
X-23100D01*
X-29100Y2431D02*
X-29100Y2432D01*
Y3349D01*
X-26716Y-3924D02*
Y1616D01*
X-31400Y-1570D02*
Y-1500D01*
X-31084Y-736D02*
X-28245Y2103D01*
X-27769Y2300D02*
X-27400D01*
X-32529Y-2600D02*
X-32227D01*
X-24711Y-1419D02*
Y826D01*
X-25886Y4468D02*
Y6899D01*
X-24711Y826D02*
Y1631D01*
X-27255Y10842D02*
X-27175D01*
Y11300D01*
X-26768Y11707D02*
X-25559D01*
X-42500Y-12095D02*
Y-11704D01*
X-39948Y-3150D02*
X-39754D01*
X-41550Y-1850D02*
X-40500D01*
X-34000Y-1850D02*
Y-350D01*
X-32529Y-13045D02*
X-32005D01*
X-29595Y-12208D02*
X-29595Y-11325D01*
X-31250Y-11100D02*
X-30138D01*
X-20158Y-9100D02*
X-19783D01*
X-29100Y6474D02*
X-28581D01*
X-28217Y6625D02*
X-28217Y6625D01*
X-28152Y6690D01*
X-26375Y-6350D02*
X-25650D01*
X-28121Y8592D02*
Y8765D01*
Y8592D02*
X-28067D01*
X-28066Y8594D01*
X-28121Y8592D02*
X-28000Y8714D01*
X-28066Y8594D02*
X-28000Y8660D01*
X-42699Y-1974D02*
X-42575Y-1850D01*
X-43100Y-1325D02*
Y-1292D01*
X-43080Y-280D02*
X-42255D01*
X-32975Y-350D02*
X-32682D01*
X-42475Y3800D02*
X-41400D01*
X-39600Y10250D02*
X-39550Y10300D01*
X-34100Y5600D02*
X-33113D01*
X-28581Y-11264D02*
X-28545Y-11300D01*
X-32052Y-5600D02*
X-31250D01*
X-32243Y-1819D02*
Y-789D01*
X-32475Y905D02*
Y1800D01*
X-32064Y3664D02*
X-30890D01*
X-31654Y6204D02*
X-30890D01*
X-25259Y11047D02*
X-24200D01*
D11*
X-21975Y2105D02*
G03*
X-21600Y1200I1280J0D01*
G01*
X-21911Y-125D02*
G03*
X-21900Y-153I39J0D01*
G01*
X-22761Y-45D02*
G03*
X-22400Y826I-871J871D01*
G01*
X-23500Y6000D02*
G03*
X-23200Y6124I0J424D01*
G01*
X-21496Y6020D02*
G03*
X-21400Y5980I96J96D01*
G01*
X-21911Y-125D02*
Y783D01*
X-21975Y2105D02*
Y2300D01*
X-23200Y6124D02*
X-22400Y6924D01*
X-23200Y6124D02*
X-23200Y6124D01*
X-21496Y6020D02*
X-21496Y6020D01*
X-22400Y6924D02*
X-21496Y6020D01*
X-23291Y1632D02*
X-22962Y1303D01*
X-23391Y1632D02*
X-23291Y1632D01*
D12*
X-23200Y6124D02*
D03*
X-21496Y6020D02*
D03*
X-16000Y9000D02*
D03*
Y-9000D02*
D03*
X-35045Y12966D02*
D03*
X-36545D02*
D03*
X-39545D02*
D03*
X-38045D02*
D03*
X-43175Y4500D02*
D03*
Y6000D02*
D03*
Y7500D02*
D03*
Y10500D02*
D03*
Y9000D02*
D03*
D13*
X-26400Y12468D02*
G03*
X-26159Y12368I241J241D01*
G01*
X-40100Y1100D02*
G03*
X-40524Y1524I-424J0D01*
G01*
X-38400Y800D02*
G03*
X-37950Y1250I0J450D01*
G01*
X-40100Y1100D02*
G03*
X-39800Y800I300J0D01*
G01*
X-42342Y1524D02*
G03*
X-44277Y-411I0J-1935D01*
G01*
Y-8623D02*
G03*
X-43300Y-9600I977J0D01*
G01*
X-39569Y2432D02*
G03*
X-40458Y2800I-889J-889D01*
G01*
X-42641Y800D02*
G03*
X-43832Y-391I0J-1191D01*
G01*
Y-8568D02*
G03*
X-43300Y-9100I532J0D01*
G01*
X-43050Y-2850D02*
G03*
X-43400Y-3695I845J-845D01*
G01*
Y-8200D02*
G03*
X-43000Y-8600I400J0D01*
G01*
X-30728Y11521D02*
G03*
X-32401Y10828I0J-2366D01*
G01*
X-33675Y10300D02*
G03*
X-32401Y10828I0J1802D01*
G01*
X-33675Y10300D02*
G03*
X-33700Y10275I0J-25D01*
G01*
X-33931Y9612D02*
G03*
X-33700Y9842I0J231D01*
G01*
X-34400Y9612D02*
G03*
X-34675Y9337I0J-275D01*
G01*
X-39300Y4013D02*
G03*
X-39250Y3963I50J0D01*
G01*
X-39300Y7625D02*
G03*
X-39975Y8300I-675J0D01*
G01*
X-38262Y3038D02*
G03*
X-37950Y3349I0J312D01*
G01*
X-39770Y3408D02*
G03*
X-39400Y3038I370J0D01*
G01*
X-39770Y6400D02*
G03*
X-40170Y6800I-400J0D01*
G01*
X-35831Y3469D02*
G03*
X-35750Y3664I-195J195D01*
G01*
X-36900Y800D02*
G03*
X-36440Y-310I1569J0D01*
G01*
X-36757Y3247D02*
G03*
X-36900Y2901I346J-346D01*
G01*
X-36000Y-1316D02*
G03*
X-36400Y-350I-1366J0D01*
G01*
X-35750Y3664D02*
G03*
X-36757Y3247I0J-1424D01*
G01*
X-40500Y-13875D02*
G03*
X-39975Y-14400I525J0D01*
G01*
X-22857D02*
G03*
X-22374Y-14200I0J683D01*
G01*
D02*
G03*
X-22150Y-13660I-540J540D01*
G01*
X-21911Y-12324D02*
G03*
X-22150Y-12900I577J-576D01*
G01*
X-14625Y-13327D02*
G03*
X-15369Y-11531I-2540J0D01*
G01*
X-18910Y-10100D02*
G03*
X-20237Y-10650I0J-1877D01*
G01*
X-16056Y-10844D02*
G03*
X-17852Y-10100I-1796J-1796D01*
G01*
X-32147Y-11691D02*
G03*
X-31400Y-12000I747J747D01*
G01*
X-30495Y-12375D02*
G03*
X-31400Y-12000I-905J-905D01*
G01*
X-30495Y-12375D02*
G03*
X-28986Y-13000I1509J1509D01*
G01*
X-40033Y-10100D02*
G03*
X-39550Y-9900I0J683D01*
G01*
X-33494Y-10344D02*
G03*
X-35290Y-9600I-1796J-1796D01*
G01*
X-38826D02*
G03*
X-39550Y-9900I0J-1024D01*
G01*
X-24159Y-13000D02*
G03*
X-22650Y-12375I0J2135D01*
G01*
X-10201Y-12744D02*
G03*
X-11997Y-12000I-1796J-1796D01*
G01*
X-15656Y-10444D02*
G03*
X-17452Y-9700I-1796J-1796D01*
G01*
X-18923D02*
G03*
X-20719Y-10444I0J-2540D01*
G01*
X-14844Y-11256D02*
G03*
X-13048Y-12000I1796J1796D01*
G01*
X-34300Y4600D02*
G03*
X-34634Y4934I-334J0D01*
G01*
X-34500Y2500D02*
G03*
X-34300Y2983I-483J483D01*
G01*
X-35282Y1718D02*
G03*
X-35600Y950I768J-768D01*
G01*
Y304D02*
G03*
X-35350Y-300I854J0D01*
G01*
X-35000Y-1145D02*
G03*
X-35350Y-300I-1195J0D01*
G01*
X-38000Y-1271D02*
G03*
X-38234Y-705I-800J0D01*
G01*
X-37400Y881D02*
G03*
X-36820Y-520I1981J0D01*
G01*
X-36895Y5730D02*
G03*
X-37400Y4511I1219J-1219D01*
G01*
X-36500Y-1292D02*
G03*
X-36820Y-520I-1092J0D01*
G01*
X-35867Y6200D02*
G03*
X-36895Y5730I117J-1615D01*
G01*
X-38944Y-8156D02*
G03*
X-37148Y-8900I1796J1796D01*
G01*
X-34961D02*
G03*
X-33619Y-8344I0J1898D01*
G01*
X-31823Y-7600D02*
G03*
X-33619Y-8344I0J-2540D01*
G01*
X-36384Y13919D02*
G03*
X-37594Y13418I0J-1710D01*
G01*
X-33480Y13416D02*
G03*
X-33982Y13919I-502J0D01*
G01*
X-31744Y12250D02*
G03*
X-31190Y12021I554J554D01*
G01*
X-32118Y12624D02*
G03*
X-32318Y12707I-200J-200D01*
G01*
X-32612D02*
G03*
X-32833Y12615I0J-313D01*
G01*
X-33061Y12521D02*
G03*
X-32833Y12615I0J323D01*
G01*
X-31638Y12751D02*
G03*
X-31081Y12521I556J556D01*
G01*
X-32575Y13688D02*
G03*
X-34151Y14341I-1576J-1576D01*
G01*
X-41872D02*
G03*
X-43668Y13597I0J-2540D01*
G01*
X-43761Y13505D02*
G03*
X-44277Y12261I1245J-1245D01*
G01*
D02*
G03*
X-44277Y12259I1761J-2D01*
G01*
X-27583Y321D02*
G03*
X-27550Y400I-79J79D01*
G01*
X-33675Y-6700D02*
G03*
X-33056Y-7319I619J0D01*
G01*
X-32737D02*
G03*
X-32450Y-7200I0J406D01*
G01*
X-32209Y-7100D02*
G03*
X-32450Y-7200I0J-341D01*
G01*
X-32931Y-3979D02*
G03*
X-33675Y-5775I1796J-1796D01*
G01*
X-31812Y-3011D02*
G03*
X-32071Y-3119I0J-367D01*
G01*
X-31334Y-3011D02*
G03*
X-30728Y-2405I0J606D01*
G01*
X-30500Y-1595D02*
G03*
X-30728Y-2145I550J-550D01*
G01*
X-28154Y751D02*
G03*
X-28155Y750I151J-151D01*
G01*
X-30405Y-4100D02*
G03*
X-30105Y-3800I0J300D01*
G01*
X-29700Y-1819D02*
G03*
X-30105Y-2797I978J-978D01*
G01*
X-27599Y282D02*
G03*
X-27583Y321I-39J39D01*
G01*
X-44300Y4400D02*
G03*
X-42000Y2100I2300J0D01*
G01*
X-39750Y1630D02*
G03*
X-39408Y1288I342J0D01*
G01*
X-39750Y1817D02*
G03*
X-40033Y2100I-283J0D01*
G01*
X-43175Y10500D02*
G03*
X-44300Y9375I0J-1125D01*
G01*
X-38826Y1288D02*
G03*
X-38600Y1513I0J226D01*
G01*
X-26159Y12368D02*
X-25259D01*
X-39800Y800D02*
X-38400D01*
X-42342Y1524D02*
X-40524D01*
X-44277Y-8623D02*
Y-411D01*
X-43300Y-9600D02*
X-42250D01*
X-39569Y2432D02*
X-39250Y2113D01*
X-43832Y-8568D02*
Y-391D01*
X-43300Y-9100D02*
X-42250D01*
X-42641Y800D02*
X-40800D01*
X-38600Y1513D02*
Y2113D01*
X-43050Y-2850D02*
X-43000Y-2800D01*
X-43000Y-8600D02*
X-42250D01*
X-43400Y-8200D02*
Y-3695D01*
X-30728Y11521D02*
X-30680D01*
X-33700Y9842D02*
Y10275D01*
X-34400Y9612D02*
X-33931D01*
X-34675Y8892D02*
Y9337D01*
X-28981Y11817D02*
Y12021D01*
X-39300Y4013D02*
Y7625D01*
X-40600Y8300D02*
X-39975D01*
X-39770Y3408D02*
Y6400D01*
X-39400Y3038D02*
X-38262D01*
X-40600Y6800D02*
X-40170D01*
X-37950Y3349D02*
Y3963D01*
Y1250D02*
Y2113D01*
X-36757Y3247D02*
X-36757Y3247D01*
X-36000Y-1850D02*
Y-1316D01*
X-36440Y-310D02*
X-36400Y-350D01*
X-39975Y-14400D02*
X-22857D01*
X-40500Y-13875D02*
Y-12850D01*
X-14625Y-13400D02*
Y-13327D01*
X-21911Y-12324D02*
X-21911Y-12324D01*
X-20237Y-10650D01*
X-16056Y-10844D02*
X-15369Y-11531D01*
X-18910Y-10100D02*
X-17852D01*
X-33494Y-10344D02*
X-32147Y-11691D01*
X-28986Y-13000D02*
X-24159D01*
X-42250Y-10100D02*
X-40033D01*
X-38826Y-9600D02*
X-35290D01*
X-22650Y-12375D02*
X-20719Y-10444D01*
X-10201Y-12744D02*
X-9545Y-13400D01*
X-18923Y-9700D02*
X-17452D01*
X-13048Y-12000D02*
X-11997D01*
X-15656Y-10444D02*
X-14844Y-11256D01*
X-22150Y-13660D02*
Y-12900D01*
X-36900Y800D02*
Y2901D01*
X-34300Y2983D02*
Y4600D01*
X-35000Y-1850D02*
Y-1145D01*
X-35750Y4934D02*
X-34634D01*
X-35282Y1718D02*
X-34500Y2500D01*
X-35600Y304D02*
Y950D01*
X-38480Y-459D02*
X-38480Y-459D01*
X-38234Y-705D01*
X-38000Y-1850D02*
Y-1271D01*
X-37400Y881D02*
Y4511D01*
X-36500Y-1850D02*
Y-1292D01*
X-37148Y-8900D02*
X-34961D01*
X-31823Y-7600D02*
X-31250D01*
X-38045Y12966D02*
X-37594Y13418D01*
X-36384Y13919D02*
X-33982D01*
X-33480Y13021D02*
Y13416D01*
X-32505Y12021D02*
X-32501Y12025D01*
X-33480Y12021D02*
X-32505D01*
X-32118Y12624D02*
X-31744Y12250D01*
X-31190Y12021D02*
X-30680D01*
X-28981D01*
X-32612Y12707D02*
X-32318D01*
X-33480Y12521D02*
X-33061D01*
X-31081Y12521D02*
X-30680D01*
X-32575Y13688D02*
X-31638Y12751D01*
X-41872Y14341D02*
X-34151D01*
X-43761Y13505D02*
X-43668Y13597D01*
X-33056Y-7319D02*
X-32737D01*
X-33675Y-6700D02*
Y-5775D01*
X-32209Y-7100D02*
X-31250D01*
X-32931Y-3979D02*
X-32071Y-3119D01*
X-31812Y-3011D02*
X-31334D01*
X-30728Y-2405D02*
Y-2145D01*
X-30500Y-1595D02*
X-28155Y750D01*
X-28154Y751D01*
X-27550Y1355D01*
X-31250Y-4100D02*
X-30405D01*
X-30105Y-3800D02*
Y-2797D01*
X-29700Y-1819D02*
X-27599Y282D01*
X-27599Y282D01*
X-39750Y1630D02*
Y1817D01*
X-42000Y2100D02*
X-40033D01*
X-44300Y4400D02*
Y9375D01*
X-39408Y1288D02*
X-38826D01*
D14*
X-38370Y12125D02*
G03*
X-38045Y12450I0J325D01*
G01*
X-39545Y12495D02*
G03*
X-39175Y12125I370J0D01*
G01*
X-32229Y8029D02*
G03*
X-30890Y7474I1339J1339D01*
G01*
X-32680Y8480D02*
G03*
X-33675Y8892I-995J-995D01*
G01*
D02*
G03*
X-33700Y8867I0J-25D01*
G01*
X-34200Y133D02*
G03*
X-34000Y-350I683J0D01*
G01*
X-33939Y2410D02*
G03*
X-34200Y1781I629J-629D01*
G01*
X-33270Y2700D02*
G03*
X-33918Y2431I0J-917D01*
G01*
X-35965Y7993D02*
G03*
X-35750Y7474I734J0D01*
G01*
X-39545Y12495D02*
Y12966D01*
X-39175Y12125D02*
X-38370D01*
X-38045Y12450D02*
Y12966D01*
X-17935Y-11700D02*
Y-10844D01*
X-36783Y8728D02*
X-35965D01*
X-35965Y8728D01*
X-32680Y8480D02*
X-32229Y8029D01*
X-28456Y13436D02*
X-27964D01*
X-27700Y13700D01*
X-34200Y133D02*
Y1781D01*
X-33939Y2410D02*
X-33918Y2431D01*
X-33270Y2700D02*
X-31211D01*
X-35965Y7993D02*
Y8728D01*
D15*
X-43375Y-10650D02*
D03*
X-28217Y6625D02*
D03*
D16*
X-21911Y-12324D02*
D03*
X-38480Y-459D02*
D03*
X-27599Y282D02*
D03*
D17*
X-42675Y13400D02*
G03*
X-43175Y12900I0J-500D01*
G01*
X-39600Y10250D02*
G03*
X-39140Y9140I1569J0D01*
G01*
X-30363Y-13301D02*
G03*
X-30980Y-13045I-617J-617D01*
G01*
X-39140Y9140D02*
X-39100Y9100D01*
X-43175Y12225D02*
X-43175D01*
Y12900D01*
X-42675Y13400D02*
X-41300D01*
X-30363Y-13301D02*
X-30231Y-13433D01*
D18*
X-28981Y11817D02*
D03*
X-28981Y10127D02*
D03*
D19*
X-27175Y10842D02*
D03*
Y9842D02*
D03*
X-37700Y7800D02*
D03*
Y6800D02*
D03*
X-20158Y-8100D02*
D03*
Y-9100D02*
D03*
D20*
X-33675Y10300D02*
D03*
X-34675Y10300D02*
D03*
X-33675Y8892D02*
D03*
X-34675D02*
D03*
X-34870Y11600D02*
D03*
X-35870D02*
D03*
X-27325Y-6350D02*
D03*
X-26325D02*
D03*
X-23711Y-1419D02*
D03*
X-24711D02*
D03*
X-41600Y5446D02*
D03*
X-40600D02*
D03*
X-41600Y8300D02*
D03*
X-40600D02*
D03*
X-41600Y6800D02*
D03*
X-40600D02*
D03*
X-22600Y-8100D02*
D03*
X-21600D02*
D03*
D21*
X-33000Y-12850D02*
D03*
X-33500Y-12850D02*
D03*
X-34000D02*
D03*
X-34500D02*
D03*
X-35000Y-12850D02*
D03*
X-35500Y-12850D02*
D03*
X-36000Y-12850D02*
D03*
X-36500D02*
D03*
X-37000Y-12850D02*
D03*
X-37500Y-12850D02*
D03*
X-38000Y-12850D02*
D03*
X-38500Y-12850D02*
D03*
X-39000Y-12850D02*
D03*
X-39500D02*
D03*
X-40000Y-12850D02*
D03*
X-40500D02*
D03*
X-40500Y-1850D02*
D03*
X-40000Y-1850D02*
D03*
X-39500Y-1850D02*
D03*
X-39000Y-1850D02*
D03*
X-38500D02*
D03*
X-38000Y-1850D02*
D03*
X-37500Y-1850D02*
D03*
X-37000Y-1850D02*
D03*
X-36500Y-1850D02*
D03*
X-36000Y-1850D02*
D03*
X-35500Y-1850D02*
D03*
X-35000Y-1850D02*
D03*
X-34500D02*
D03*
X-34000Y-1850D02*
D03*
X-33500D02*
D03*
X-33000Y-1850D02*
D03*
D22*
X-42250Y-11100D02*
D03*
X-42250Y-10600D02*
D03*
X-42250Y-10100D02*
D03*
X-42250Y-9600D02*
D03*
X-42250Y-9100D02*
D03*
X-42250Y-8600D02*
D03*
X-42250Y-8100D02*
D03*
X-42250Y-7600D02*
D03*
X-42250Y-7100D02*
D03*
X-42250Y-6600D02*
D03*
X-42250Y-6100D02*
D03*
X-42250Y-5600D02*
D03*
X-42250Y-5100D02*
D03*
X-42250Y-4600D02*
D03*
X-42250Y-4100D02*
D03*
X-42250Y-3600D02*
D03*
X-31250Y-3600D02*
D03*
X-31250Y-4100D02*
D03*
X-31250Y-4600D02*
D03*
X-31250Y-5100D02*
D03*
X-31250Y-5600D02*
D03*
X-31250Y-6100D02*
D03*
X-31250Y-6600D02*
D03*
X-31250Y-7100D02*
D03*
X-31250Y-7600D02*
D03*
X-31250Y-8100D02*
D03*
X-31250Y-8600D02*
D03*
X-31250Y-9100D02*
D03*
X-31250Y-9600D02*
D03*
X-31250Y-10100D02*
D03*
X-31250Y-10600D02*
D03*
X-31250Y-11100D02*
D03*
D23*
X-39250Y2113D02*
D03*
X-37950D02*
D03*
X-39250Y3963D02*
D03*
X-38600D02*
D03*
X-37950D02*
D03*
X-38600Y2113D02*
D03*
D24*
X-16535Y-11700D02*
D03*
X-17935Y-11700D02*
D03*
D25*
X-32475Y1800D02*
D03*
X-33500Y1800D02*
D03*
X-28595Y-6375D02*
D03*
X-29620Y-6375D02*
D03*
X-29595Y-5100D02*
D03*
X-28570Y-5100D02*
D03*
X-29595Y-11325D02*
D03*
X-28570D02*
D03*
X-34000Y-350D02*
D03*
X-32975D02*
D03*
X-32005Y-13045D02*
D03*
X-30980D02*
D03*
X-41550Y-1850D02*
D03*
X-42575Y-1850D02*
D03*
X-28456Y13436D02*
D03*
X-29481Y13436D02*
D03*
D26*
X-19460Y-1419D02*
D03*
X-21150Y-1419D02*
D03*
X-39600Y10250D02*
D03*
X-41290D02*
D03*
X-23600Y-9900D02*
D03*
X-21910Y-9900D02*
D03*
D27*
X-19623Y13028D02*
D03*
X-19623Y12003D02*
D03*
X-29100Y3349D02*
D03*
Y4374D02*
D03*
X-35965Y9753D02*
D03*
X-35965Y8728D02*
D03*
X-29100Y5449D02*
D03*
X-29100Y6474D02*
D03*
X-42500Y-12095D02*
D03*
X-42500Y-13120D02*
D03*
D28*
X-43175Y12225D02*
D03*
X-41575D02*
D03*
X-42255Y-280D02*
D03*
X-40655Y-280D02*
D03*
D29*
X-44025Y-12800D02*
D03*
X-44025Y-11200D02*
D03*
D30*
X-35750Y7474D02*
D03*
X-35750Y6204D02*
D03*
X-35750Y4934D02*
D03*
X-35750Y3664D02*
D03*
X-30890Y7474D02*
D03*
X-30890Y6204D02*
D03*
X-30890Y4934D02*
D03*
X-30890Y3664D02*
D03*
D31*
X-27760Y-3480D02*
D03*
X-29280Y-3480D02*
D03*
D32*
X-19600Y6742D02*
D03*
X-19600Y8757D02*
D03*
D33*
X-25886Y8955D02*
D03*
X-25886Y6895D02*
D03*
D34*
X-24711Y826D02*
D03*
X-22400Y826D02*
D03*
X-20089Y826D02*
D03*
D35*
X-22400Y6924D02*
D03*
D36*
X-28150Y-7900D02*
D03*
Y-8850D02*
D03*
Y-9800D02*
D03*
D37*
X-25259Y13028D02*
D03*
X-25259Y12368D02*
D03*
X-25259Y11707D02*
D03*
Y11047D02*
D03*
X-20891Y11047D02*
D03*
Y11707D02*
D03*
X-20891Y12368D02*
D03*
X-20891Y13028D02*
D03*
D38*
X-33480Y13021D02*
D03*
X-33480Y12521D02*
D03*
X-33480Y12021D02*
D03*
X-33480Y11521D02*
D03*
X-30680Y13021D02*
D03*
X-30680Y12521D02*
D03*
X-30680Y12021D02*
D03*
X-30680Y11521D02*
D03*
D39*
X-21150Y-1419D02*
Y-82D01*
X-42075Y12225D02*
X-41575D01*
D40*
X-7005Y-13400D02*
D03*
X-12085Y-13400D02*
D03*
X-14625Y-13400D02*
D03*
X-9545Y-13400D02*
D03*
D41*
X-17165Y-13400D02*
D03*
D42*
X-23968Y-6575D02*
D03*
X-20158D02*
D03*
X-22698D02*
D03*
X-21428D02*
D03*
D43*
X-25886Y9950D02*
D03*
X-24200Y11047D02*
D03*
X-26400Y12468D02*
D03*
X-19600Y11215D02*
D03*
X-18835Y13038D02*
D03*
X-40800Y800D02*
D03*
X-43100Y-300D02*
D03*
X-40458Y2800D02*
D03*
X-38600Y4953D02*
D03*
X-41818Y4517D02*
D03*
X-31331Y13900D02*
D03*
X-30575Y13919D02*
D03*
X-40912Y-8100D02*
D03*
X-36895Y9501D02*
D03*
X-32000Y9275D02*
D03*
Y10000D02*
D03*
X-31211D02*
D03*
Y9275D02*
D03*
X-27208Y3848D02*
D03*
X-39754Y-3150D02*
D03*
X-28800Y-2096D02*
D03*
X-38480Y-459D02*
D03*
X-27325Y-7183D02*
D03*
X-26543Y-10575D02*
D03*
X-43050Y-2850D02*
D03*
X-43100Y-1292D02*
D03*
X-19300Y-8900D02*
D03*
X-32000Y-13683D02*
D03*
X-30231Y-13433D02*
D03*
X-39000Y-10500D02*
D03*
X-37700Y-11400D02*
D03*
X-37000Y-10500D02*
D03*
X-40000Y-11400D02*
D03*
X-37700Y8683D02*
D03*
X-27760Y-2557D02*
D03*
X-21625Y-2725D02*
D03*
X-20875D02*
D03*
Y-3500D02*
D03*
X-21625D02*
D03*
X-24000D02*
D03*
X-23250D02*
D03*
Y-2725D02*
D03*
X-24000D02*
D03*
X-19658Y-3500D02*
D03*
X-18908D02*
D03*
Y-2725D02*
D03*
X-19658D02*
D03*
X-25900Y-2725D02*
D03*
X-25150D02*
D03*
Y-3500D02*
D03*
X-25900D02*
D03*
X-36783Y8728D02*
D03*
X-28217Y5625D02*
D03*
X-32450Y845D02*
D03*
X-24800Y-10500D02*
D03*
X-41617Y-12095D02*
D03*
X-29595Y-12208D02*
D03*
X-27687Y-5100D02*
D03*
X-26700Y-8850D02*
D03*
X-44025Y-13683D02*
D03*
X-39100Y9100D02*
D03*
X-35000Y-11324D02*
D03*
X-33500Y-11324D02*
D03*
X-31211Y2700D02*
D03*
X-35800D02*
D03*
X-17935Y-10844D02*
D03*
X-19500Y-11100D02*
D03*
X-23010Y-13475D02*
D03*
X-20561Y-13475D02*
D03*
X-24700Y-9505D02*
D03*
X-23600Y-12050D02*
D03*
X-28581Y-10600D02*
D03*
X-44012Y-10100D02*
D03*
X-42500Y-13800D02*
D03*
X-34878Y-5778D02*
D03*
X-32776Y-5300D02*
D03*
X-25650Y-6350D02*
D03*
X-29868Y-7056D02*
D03*
X-32243Y-1819D02*
D03*
X-33500Y-3176D02*
D03*
X-33477Y917D02*
D03*
X-37700Y9475D02*
D03*
Y10200D02*
D03*
X-15217Y13188D02*
D03*
X-15200Y11900D02*
D03*
X-17500Y13895D02*
D03*
X-32776Y-6600D02*
D03*
X-34500Y-6900D02*
D03*
X-32800Y6522D02*
D03*
X-34100Y5600D02*
D03*
X-32400Y4000D02*
D03*
X-28200Y6700D02*
D03*
X-28121Y8592D02*
D03*
X-28900Y7500D02*
D03*
X-27700Y13700D02*
D03*
X-29482Y14100D02*
D03*
X-39100Y-8000D02*
D03*
X-44277Y12259D02*
D03*
X-41300Y13400D02*
D03*
X-32501Y12025D02*
D03*
X-27550Y400D02*
D03*
Y1355D02*
D03*
X-29100Y2431D02*
D03*
X-22700Y11562D02*
D03*
M02*
