G04 Layer_Physical_Order=2*
G04 Layer_Color=48896*
%FSLAX43Y43*%
%MOMM*%
G71*
G01*
G75*
%ADD12C,1.000*%
%ADD40C,1.700*%
G04:AMPARAMS|DCode=42|XSize=1mm|YSize=1.4mm|CornerRadius=0.125mm|HoleSize=0mm|Usage=FLASHONLY|Rotation=0.000|XOffset=0mm|YOffset=0mm|HoleType=Round|Shape=RoundedRectangle|*
%AMROUNDEDRECTD42*
21,1,1.000,1.150,0,0,0.0*
21,1,0.750,1.400,0,0,0.0*
1,1,0.250,0.375,-0.575*
1,1,0.250,-0.375,-0.575*
1,1,0.250,-0.375,0.575*
1,1,0.250,0.375,0.575*
%
%ADD42ROUNDEDRECTD42*%
%ADD43C,0.700*%
G36*
X-30290Y14500D02*
X-30157Y14300D01*
X-30164Y14283D01*
X-30188Y14100D01*
X-30164Y13917D01*
X-30093Y13747D01*
X-29981Y13601D01*
X-29835Y13489D01*
X-29665Y13418D01*
X-29482Y13394D01*
X-29299Y13418D01*
X-29129Y13489D01*
X-28983Y13601D01*
X-28871Y13747D01*
X-28800Y13917D01*
X-28776Y14100D01*
X-28800Y14283D01*
X-28807Y14300D01*
X-28674Y14500D01*
X-15043Y14500D01*
X-14940Y14500D01*
X-14739Y14460D01*
X-14549Y14381D01*
X-14378Y14267D01*
X-14233Y14122D01*
X-14119Y13951D01*
X-14040Y13761D01*
X-14016Y13641D01*
X-14000Y13457D01*
Y13457D01*
X-14000Y13457D01*
X-14000Y13457D01*
X-14000Y12614D01*
X-14000Y12492D01*
X-14093Y12266D01*
X-14266Y12093D01*
X-14315Y12073D01*
X-14518Y12083D01*
X-14589Y12253D01*
X-14701Y12399D01*
X-14847Y12511D01*
X-15017Y12582D01*
X-15200Y12606D01*
X-15383Y12582D01*
X-15553Y12511D01*
X-15699Y12399D01*
X-15811Y12253D01*
X-15882Y12083D01*
X-15893Y12000D01*
X-22154Y12000D01*
X-22201Y12061D01*
X-22347Y12173D01*
X-22517Y12244D01*
X-22700Y12268D01*
X-22883Y12244D01*
X-23053Y12173D01*
X-23199Y12061D01*
X-23246Y12000D01*
X-25642Y12000D01*
X-25753Y12200D01*
X-25718Y12285D01*
X-25694Y12468D01*
X-25718Y12650D01*
X-25789Y12821D01*
X-25901Y12967D01*
X-26047Y13079D01*
X-26217Y13150D01*
X-26400Y13174D01*
X-26583Y13150D01*
X-26753Y13079D01*
X-26899Y12967D01*
X-27011Y12821D01*
X-27082Y12650D01*
X-27106Y12468D01*
X-27082Y12285D01*
X-27047Y12200D01*
X-27158Y12000D01*
X-31773Y12000D01*
X-31795Y12025D01*
X-31819Y12208D01*
X-31889Y12378D01*
X-32002Y12524D01*
X-32148Y12636D01*
X-32318Y12707D01*
X-32501Y12731D01*
X-32684Y12707D01*
X-32854Y12636D01*
X-33000Y12524D01*
X-33112Y12378D01*
X-33183Y12208D01*
X-33207Y12025D01*
X-33183Y11842D01*
X-33165Y11799D01*
X-33266Y11731D01*
X-33431Y11566D01*
X-33560Y11373D01*
X-33649Y11158D01*
X-33679Y11005D01*
X-33694Y10930D01*
X-33700Y10814D01*
X-33700D01*
X-33700Y5730D01*
X-33695Y5635D01*
X-33658Y5449D01*
X-33586Y5274D01*
X-33480Y5116D01*
X-33346Y4982D01*
X-33189Y4877D01*
X-33014Y4804D01*
X-32828Y4767D01*
X-32733Y4763D01*
X-32733Y4763D01*
X-31714Y4763D01*
X-31605Y4768D01*
X-31390Y4811D01*
X-31189Y4894D01*
X-31007Y5016D01*
X-30853Y5170D01*
X-30732Y5351D01*
X-30648Y5553D01*
X-30605Y5767D01*
X-30600Y5876D01*
X-30600Y5876D01*
X-30600Y7357D01*
X-30573Y7491D01*
X-30521Y7618D01*
X-30445Y7732D01*
X-30348Y7829D01*
X-30234Y7905D01*
X-30107Y7957D01*
X-29973Y7984D01*
X-29904D01*
X-29904Y7984D01*
X-28865Y7984D01*
X-28780Y7984D01*
X-28613Y7951D01*
X-28455Y7886D01*
X-28314Y7791D01*
X-28193Y7670D01*
X-28147Y7601D01*
X-28169Y7517D01*
X-28223Y7428D01*
X-28261Y7398D01*
X-28383Y7382D01*
X-28553Y7311D01*
X-28699Y7199D01*
X-28811Y7053D01*
X-28882Y6883D01*
X-28906Y6700D01*
X-28882Y6517D01*
X-28811Y6347D01*
X-28699Y6201D01*
X-28795Y6022D01*
X-28828Y5978D01*
X-28899Y5808D01*
X-28923Y5625D01*
X-28899Y5442D01*
X-28828Y5272D01*
X-28716Y5126D01*
X-28570Y5014D01*
X-28400Y4943D01*
X-28217Y4919D01*
X-28200Y4921D01*
X-28005Y4767D01*
X-28000Y4749D01*
Y1892D01*
X-28049Y1854D01*
X-28161Y1708D01*
X-28232Y1538D01*
X-28256Y1355D01*
X-28232Y1172D01*
X-28161Y1002D01*
X-28066Y877D01*
X-28161Y753D01*
X-28232Y583D01*
X-28256Y400D01*
X-28232Y217D01*
X-28161Y47D01*
X-28049Y-99D01*
X-28000Y-137D01*
Y-1898D01*
X-28113Y-1945D01*
X-28259Y-2057D01*
X-28371Y-2204D01*
X-28442Y-2374D01*
X-28466Y-2557D01*
X-28442Y-2739D01*
X-28371Y-2910D01*
X-28259Y-3056D01*
X-28113Y-3168D01*
X-28000Y-3215D01*
Y-4018D01*
X-27996Y-4090D01*
X-27969Y-4231D01*
X-27914Y-4363D01*
X-27834Y-4482D01*
X-27732Y-4584D01*
X-27613Y-4664D01*
X-27481Y-4719D01*
X-27340Y-4746D01*
X-27268Y-4750D01*
X-25201D01*
X-25122Y-4746D01*
X-24968Y-4716D01*
X-24823Y-4655D01*
X-24693Y-4568D01*
X-24582Y-4457D01*
X-24495Y-4327D01*
X-24435Y-4182D01*
X-24404Y-4028D01*
X-24400Y-3949D01*
X-24400Y-3949D01*
X-24400Y-2500D01*
X-24400Y-2409D01*
X-24331Y-2242D01*
X-24202Y-2114D01*
X-24035Y-2044D01*
X-23944Y-2044D01*
X-23944Y-2044D01*
X-22794Y-2044D01*
X-22701Y-2044D01*
X-22528Y-2116D01*
X-22396Y-2248D01*
X-22361Y-2332D01*
X-22325Y-2513D01*
Y-2514D01*
X-22325Y-2514D01*
X-22328Y-2704D01*
X-22331Y-2725D01*
X-22325Y-2771D01*
X-22325Y-3454D01*
X-22331Y-3500D01*
X-22325Y-3546D01*
X-22325Y-3950D01*
X-22321Y-4028D01*
X-22291Y-4182D01*
X-22231Y-4327D01*
X-22143Y-4458D01*
X-22033Y-4568D01*
X-21902Y-4656D01*
X-21757Y-4716D01*
X-21603Y-4746D01*
X-21525Y-4750D01*
X-20089Y-4750D01*
X-20006Y-4750D01*
X-19844Y-4782D01*
X-19691Y-4845D01*
X-19554Y-4937D01*
X-19437Y-5054D01*
X-19345Y-5191D01*
X-19282Y-5344D01*
X-19270Y-5404D01*
X-19250Y-5588D01*
Y-5589D01*
X-19250Y-5589D01*
X-19250Y-5589D01*
Y-8150D01*
X-19300Y-8194D01*
X-19483Y-8218D01*
X-19653Y-8289D01*
X-19799Y-8401D01*
X-19911Y-8547D01*
X-19982Y-8717D01*
X-20006Y-8900D01*
X-19982Y-9083D01*
X-19911Y-9253D01*
X-19799Y-9399D01*
X-19653Y-9511D01*
X-19483Y-9582D01*
X-19300Y-9606D01*
X-19250Y-9650D01*
Y-10750D01*
X-18723D01*
X-18641Y-10844D01*
X-18617Y-11027D01*
X-18546Y-11197D01*
X-18434Y-11343D01*
X-18288Y-11455D01*
X-18118Y-11526D01*
X-17935Y-11550D01*
X-17752Y-11526D01*
X-17582Y-11455D01*
X-17436Y-11343D01*
X-17324Y-11197D01*
X-17253Y-11027D01*
X-17229Y-10844D01*
X-17147Y-10750D01*
X-12050Y-10750D01*
X-11922Y-10750D01*
X-11671Y-10800D01*
X-11434Y-10898D01*
X-11221Y-11040D01*
X-11040Y-11221D01*
X-10898Y-11434D01*
X-10800Y-11671D01*
X-10762Y-11863D01*
X-10750Y-12049D01*
Y-12050D01*
X-10750Y-12050D01*
X-10750Y-12050D01*
X-10750Y-13359D01*
X-10755Y-13400D01*
X-10750Y-13441D01*
Y-14500D01*
X-11736D01*
X-11775Y-14300D01*
X-11606Y-14230D01*
X-11407Y-14078D01*
X-11255Y-13879D01*
X-11222Y-13800D01*
X-12948D01*
X-12915Y-13879D01*
X-12763Y-14078D01*
X-12564Y-14230D01*
X-12395Y-14300D01*
X-12434Y-14500D01*
X-13759D01*
X-13827Y-14300D01*
X-13769Y-14256D01*
X-13577Y-14005D01*
X-13456Y-13713D01*
X-13415Y-13400D01*
X-13456Y-13087D01*
X-13577Y-12795D01*
X-13769Y-12544D01*
X-14020Y-12352D01*
X-14312Y-12231D01*
X-14625Y-12190D01*
X-14938Y-12231D01*
X-15230Y-12352D01*
X-15481Y-12544D01*
X-15673Y-12795D01*
X-15758Y-13000D01*
X-15958Y-12960D01*
Y-12550D01*
X-15985Y-12413D01*
X-16063Y-12298D01*
X-16178Y-12220D01*
X-16315Y-12193D01*
X-18015D01*
X-18152Y-12220D01*
X-18267Y-12298D01*
X-18345Y-12413D01*
X-18372Y-12550D01*
Y-14250D01*
X-18362Y-14300D01*
X-18491Y-14500D01*
X-31620Y-14500D01*
X-31660Y-14300D01*
X-31647Y-14295D01*
X-31501Y-14183D01*
X-31389Y-14036D01*
X-31318Y-13866D01*
X-31294Y-13683D01*
X-31318Y-13501D01*
X-31389Y-13330D01*
X-31501Y-13184D01*
X-31647Y-13072D01*
X-31817Y-13001D01*
X-32000Y-12977D01*
X-32183Y-13001D01*
X-32353Y-13072D01*
X-32499Y-13184D01*
X-32611Y-13330D01*
X-32682Y-13501D01*
X-32706Y-13683D01*
X-32682Y-13866D01*
X-32611Y-14036D01*
X-32499Y-14183D01*
X-32353Y-14295D01*
X-32340Y-14300D01*
X-32380Y-14500D01*
X-43500Y-14500D01*
X-43598Y-14500D01*
X-43792Y-14462D01*
X-43974Y-14386D01*
X-44137Y-14277D01*
X-44277Y-14137D01*
X-44386Y-13974D01*
X-44462Y-13792D01*
X-44500Y-13599D01*
X-44500Y-13500D01*
Y11387D01*
X-44300Y11556D01*
X-44277Y11553D01*
X-44094Y11577D01*
X-43924Y11648D01*
X-43778Y11760D01*
X-43665Y11906D01*
X-43595Y12077D01*
X-43571Y12259D01*
X-43595Y12442D01*
X-43665Y12612D01*
X-43778Y12759D01*
X-43924Y12871D01*
X-44094Y12941D01*
X-44277Y12965D01*
X-44300Y12962D01*
X-44500Y13131D01*
Y13538D01*
X-44342Y13670D01*
X-44307Y13677D01*
X-44272D01*
X-44155Y13701D01*
X-44027Y13754D01*
X-43927Y13820D01*
X-43927Y13820D01*
X-43829Y13919D01*
X-43763Y14018D01*
X-43729Y14100D01*
X-43709Y14146D01*
X-43686Y14264D01*
Y14300D01*
X-43526Y14500D01*
X-43526Y14500D01*
X-30290Y14500D01*
D02*
G37*
G36*
X-15811Y11547D02*
X-15699Y11401D01*
X-15553Y11289D01*
X-15383Y11218D01*
X-15200Y11194D01*
X-15017Y11218D01*
X-14847Y11289D01*
X-14701Y11401D01*
X-14637Y11483D01*
X-14442Y11353D01*
X-14272Y11183D01*
X-14139Y10983D01*
X-14047Y10762D01*
X-14000Y10526D01*
Y10406D01*
X-14000Y-9500D01*
X-14000Y-9500D01*
X-14000Y-9599D01*
X-14038Y-9792D01*
X-14114Y-9974D01*
X-14223Y-10137D01*
X-14363Y-10277D01*
X-14526Y-10386D01*
X-14543Y-10393D01*
X-17147Y-10393D01*
X-17158Y-10395D01*
X-17170Y-10394D01*
X-17226Y-10409D01*
X-17283Y-10420D01*
X-17293Y-10427D01*
X-17304Y-10430D01*
X-17346Y-10462D01*
X-17436Y-10345D01*
X-17582Y-10233D01*
X-17752Y-10162D01*
X-17935Y-10138D01*
X-18118Y-10162D01*
X-18288Y-10233D01*
X-18434Y-10345D01*
X-18457Y-10374D01*
X-18619Y-10266D01*
X-18766Y-10119D01*
X-18881Y-9947D01*
X-18893Y-9917D01*
Y-9650D01*
X-18895Y-9638D01*
X-18894Y-9627D01*
X-18909Y-9570D01*
X-18920Y-9513D01*
X-18927Y-9503D01*
X-18929Y-9497D01*
X-18801Y-9399D01*
X-18689Y-9253D01*
X-18618Y-9083D01*
X-18594Y-8900D01*
X-18618Y-8717D01*
X-18689Y-8547D01*
X-18801Y-8401D01*
X-18929Y-8303D01*
X-18927Y-8297D01*
X-18920Y-8287D01*
X-18909Y-8230D01*
X-18894Y-8173D01*
X-18895Y-8162D01*
X-18893Y-8150D01*
Y-5589D01*
X-18893Y-5588D01*
Y-5588D01*
X-18897Y-5569D01*
X-18895Y-5549D01*
X-18915Y-5365D01*
X-18920Y-5351D01*
X-18920Y-5335D01*
X-18932Y-5274D01*
X-18946Y-5242D01*
X-18953Y-5207D01*
X-18970Y-5165D01*
X-19000Y-4982D01*
Y-4982D01*
X-19000Y-4982D01*
X-19000Y-4982D01*
X-19000Y-4982D01*
X-19009Y-4888D01*
X-19045Y-4803D01*
X-19081Y-4714D01*
X-19214Y-4581D01*
X-19388Y-4509D01*
X-19482Y-4500D01*
Y-4500D01*
X-19550D01*
X-19632Y-4484D01*
X-19707Y-4453D01*
X-19742Y-4446D01*
X-19774Y-4432D01*
X-19792Y-4429D01*
X-19810Y-4421D01*
X-19924Y-4345D01*
X-20020Y-4249D01*
X-20096Y-4135D01*
X-20148Y-4009D01*
X-20175Y-3875D01*
Y-3546D01*
X-20169Y-3500D01*
X-20175Y-3454D01*
X-20175Y-2826D01*
X-20175Y-2771D01*
X-20169Y-2725D01*
X-20175Y-2641D01*
X-20175Y-2641D01*
X-20175Y-2641D01*
X-20180Y-2546D01*
X-20198Y-2454D01*
X-20217Y-2360D01*
X-20289Y-2186D01*
X-20394Y-2028D01*
X-20528Y-1894D01*
X-20686Y-1789D01*
X-20860Y-1717D01*
X-21046Y-1680D01*
X-21141Y-1675D01*
X-24075Y-1675D01*
X-24075Y-1675D01*
X-24141Y-1678D01*
X-24271Y-1704D01*
X-24393Y-1755D01*
X-24503Y-1828D01*
X-24597Y-1922D01*
X-24670Y-2032D01*
X-24721Y-2154D01*
X-24747Y-2284D01*
X-24750Y-2350D01*
Y-2375D01*
X-24757Y-2409D01*
X-24757Y-2500D01*
X-24757Y-3801D01*
X-24776Y-3897D01*
X-24827Y-4020D01*
X-24901Y-4130D01*
X-24995Y-4224D01*
X-25105Y-4298D01*
X-25228Y-4349D01*
X-25359Y-4375D01*
X-27377Y-4375D01*
X-27444Y-4347D01*
X-27505Y-4307D01*
X-27557Y-4255D01*
X-27597Y-4194D01*
X-27625Y-4127D01*
X-27641Y-4046D01*
X-27643Y-4009D01*
Y-3247D01*
X-27577Y-3239D01*
X-27407Y-3168D01*
X-27261Y-3056D01*
X-27149Y-2910D01*
X-27078Y-2739D01*
X-27054Y-2557D01*
X-27078Y-2374D01*
X-27149Y-2204D01*
X-27261Y-2057D01*
X-27407Y-1945D01*
X-27577Y-1875D01*
X-27643Y-1866D01*
Y-388D01*
X-27550Y-306D01*
X-27367Y-282D01*
X-27197Y-211D01*
X-27051Y-99D01*
X-26939Y47D01*
X-26868Y217D01*
X-26844Y400D01*
X-26868Y583D01*
X-26939Y753D01*
X-27034Y877D01*
X-26939Y1002D01*
X-26868Y1172D01*
X-26844Y1355D01*
X-26868Y1538D01*
X-26939Y1708D01*
X-27051Y1854D01*
X-27197Y1966D01*
X-27367Y2037D01*
X-27550Y2061D01*
X-27643Y2143D01*
Y4749D01*
X-27652Y4792D01*
X-27650Y4808D01*
X-27655Y4820D01*
X-27657Y4846D01*
X-27661Y4863D01*
X-27669Y4878D01*
X-27670Y4886D01*
X-27681Y4901D01*
X-27693Y4940D01*
X-27718Y5126D01*
X-27605Y5272D01*
X-27535Y5442D01*
X-27511Y5625D01*
X-27535Y5808D01*
X-27605Y5978D01*
X-27718Y6124D01*
X-27622Y6303D01*
X-27588Y6347D01*
X-27518Y6517D01*
X-27494Y6700D01*
X-27518Y6883D01*
X-27588Y7053D01*
X-27701Y7199D01*
X-27847Y7311D01*
X-27825Y7423D01*
X-27802Y7506D01*
X-27802Y7519D01*
X-27797Y7531D01*
X-27797Y7588D01*
X-27793Y7645D01*
X-27797Y7657D01*
Y7670D01*
X-27818Y7723D01*
X-27837Y7777D01*
X-27845Y7787D01*
X-27850Y7799D01*
X-27896Y7869D01*
X-27921Y7893D01*
X-27941Y7923D01*
X-28061Y8043D01*
X-28090Y8063D01*
X-28115Y8088D01*
X-28257Y8182D01*
X-28290Y8196D01*
X-28319Y8215D01*
X-28476Y8280D01*
X-28511Y8287D01*
X-28543Y8301D01*
X-28710Y8334D01*
X-28745Y8334D01*
X-28780Y8341D01*
X-28865Y8341D01*
X-29904Y8341D01*
X-29904Y8341D01*
X-29973D01*
X-30007Y8334D01*
X-30042D01*
X-30177Y8307D01*
X-30201Y8297D01*
X-30216Y8296D01*
X-30360Y8268D01*
X-30495Y8212D01*
X-30617Y8130D01*
X-30720Y8027D01*
X-30802Y7905D01*
X-30858Y7769D01*
X-30870Y7706D01*
X-30903Y7628D01*
X-30910Y7593D01*
X-30923Y7561D01*
X-30950Y7426D01*
Y7391D01*
X-30957Y7357D01*
X-30957Y5885D01*
X-30961Y5811D01*
X-30991Y5657D01*
X-31048Y5520D01*
X-31130Y5397D01*
X-31235Y5293D01*
X-31358Y5210D01*
X-31494Y5154D01*
X-31621Y5129D01*
X-32394Y5129D01*
X-32483Y5129D01*
X-32658Y5164D01*
X-32823Y5232D01*
X-32972Y5331D01*
X-33098Y5457D01*
X-33197Y5606D01*
X-33265Y5770D01*
X-33300Y5946D01*
X-33300Y6035D01*
X-33300Y10484D01*
X-33300Y10484D01*
X-33300Y10484D01*
X-33285Y10671D01*
X-33256Y10817D01*
X-33170Y11025D01*
X-33045Y11211D01*
X-32886Y11370D01*
X-32834Y11405D01*
X-32684Y11343D01*
X-32501Y11319D01*
X-32318Y11343D01*
X-32148Y11414D01*
X-32002Y11526D01*
X-31925Y11625D01*
X-24891Y11625D01*
X-24792Y11425D01*
X-24811Y11400D01*
X-24882Y11230D01*
X-24906Y11047D01*
X-24882Y10864D01*
X-24811Y10694D01*
X-24699Y10548D01*
X-24553Y10435D01*
X-24383Y10365D01*
X-24200Y10341D01*
X-24017Y10365D01*
X-23847Y10435D01*
X-23701Y10548D01*
X-23589Y10694D01*
X-23518Y10864D01*
X-23494Y11047D01*
X-23509Y11164D01*
X-23315Y11216D01*
X-23311Y11209D01*
X-23199Y11062D01*
X-23053Y10950D01*
X-22883Y10880D01*
X-22700Y10856D01*
X-22517Y10880D01*
X-22347Y10950D01*
X-22201Y11062D01*
X-22089Y11209D01*
X-22018Y11379D01*
X-21994Y11562D01*
X-21938Y11625D01*
X-15844Y11625D01*
X-15811Y11547D01*
D02*
G37*
%LPC*%
G36*
X-34878Y-5072D02*
X-35061Y-5096D01*
X-35231Y-5167D01*
X-35377Y-5279D01*
X-35489Y-5425D01*
X-35560Y-5595D01*
X-35584Y-5778D01*
X-35560Y-5961D01*
X-35489Y-6131D01*
X-35377Y-6277D01*
X-35238Y-6384D01*
X-35227Y-6395D01*
X-35111Y-6547D01*
X-35182Y-6717D01*
X-35206Y-6900D01*
X-35182Y-7083D01*
X-35111Y-7253D01*
X-34999Y-7399D01*
X-34853Y-7511D01*
X-34683Y-7582D01*
X-34500Y-7606D01*
X-34317Y-7582D01*
X-34147Y-7511D01*
X-34001Y-7399D01*
X-33889Y-7253D01*
X-33818Y-7083D01*
X-33794Y-6900D01*
X-33818Y-6717D01*
X-33889Y-6547D01*
X-34001Y-6401D01*
X-34140Y-6294D01*
X-34151Y-6283D01*
X-34267Y-6131D01*
X-34196Y-5961D01*
X-34172Y-5778D01*
X-34196Y-5595D01*
X-34267Y-5425D01*
X-34379Y-5279D01*
X-34525Y-5167D01*
X-34695Y-5096D01*
X-34878Y-5072D01*
D02*
G37*
G36*
X-19553Y-6975D02*
X-19758D01*
Y-7374D01*
X-19695Y-7362D01*
X-19620Y-7312D01*
X-19571Y-7238D01*
X-19553Y-7150D01*
Y-6975D01*
D02*
G37*
G36*
X-27325Y-6477D02*
X-27508Y-6501D01*
X-27678Y-6572D01*
X-27824Y-6684D01*
X-27936Y-6830D01*
X-28007Y-7000D01*
X-28031Y-7183D01*
X-28007Y-7366D01*
X-27936Y-7536D01*
X-27824Y-7682D01*
X-27678Y-7795D01*
X-27508Y-7865D01*
X-27325Y-7889D01*
X-27142Y-7865D01*
X-26972Y-7795D01*
X-26826Y-7682D01*
X-26714Y-7536D01*
X-26643Y-7366D01*
X-26619Y-7183D01*
X-26643Y-7000D01*
X-26714Y-6830D01*
X-26826Y-6684D01*
X-26972Y-6572D01*
X-27142Y-6501D01*
X-27325Y-6477D01*
D02*
G37*
G36*
X-32776Y-5894D02*
X-32959Y-5918D01*
X-33129Y-5989D01*
X-33275Y-6101D01*
X-33387Y-6247D01*
X-33458Y-6417D01*
X-33482Y-6600D01*
X-33458Y-6783D01*
X-33387Y-6953D01*
X-33275Y-7099D01*
X-33129Y-7211D01*
X-32959Y-7282D01*
X-32776Y-7306D01*
X-32593Y-7282D01*
X-32423Y-7211D01*
X-32277Y-7099D01*
X-32164Y-6953D01*
X-32094Y-6783D01*
X-32070Y-6600D01*
X-32094Y-6417D01*
X-32164Y-6247D01*
X-32277Y-6101D01*
X-32423Y-5989D01*
X-32593Y-5918D01*
X-32776Y-5894D01*
D02*
G37*
G36*
X-25650Y-5644D02*
X-25833Y-5668D01*
X-26003Y-5739D01*
X-26149Y-5851D01*
X-26262Y-5997D01*
X-26332Y-6167D01*
X-26356Y-6350D01*
X-26332Y-6533D01*
X-26262Y-6703D01*
X-26149Y-6849D01*
X-26003Y-6961D01*
X-25833Y-7032D01*
X-25650Y-7056D01*
X-25467Y-7032D01*
X-25297Y-6961D01*
X-25151Y-6849D01*
X-25039Y-6703D01*
X-24968Y-6533D01*
X-24944Y-6350D01*
X-24968Y-6167D01*
X-25039Y-5997D01*
X-25151Y-5851D01*
X-25297Y-5739D01*
X-25467Y-5668D01*
X-25650Y-5644D01*
D02*
G37*
G36*
X-19758Y-5776D02*
Y-6175D01*
X-19553D01*
Y-6000D01*
X-19571Y-5912D01*
X-19620Y-5838D01*
X-19695Y-5788D01*
X-19758Y-5776D01*
D02*
G37*
G36*
X-24368Y-6975D02*
X-24572D01*
Y-7150D01*
X-24554Y-7238D01*
X-24505Y-7312D01*
X-24430Y-7362D01*
X-24368Y-7374D01*
Y-6975D01*
D02*
G37*
G36*
Y-5776D02*
X-24430Y-5788D01*
X-24505Y-5838D01*
X-24554Y-5912D01*
X-24572Y-6000D01*
Y-6175D01*
X-24368D01*
Y-5776D01*
D02*
G37*
G36*
X-29595Y-11502D02*
X-29778Y-11526D01*
X-29948Y-11597D01*
X-30094Y-11709D01*
X-30206Y-11855D01*
X-30277Y-12026D01*
X-30301Y-12208D01*
X-30277Y-12391D01*
X-30206Y-12561D01*
X-30094Y-12708D01*
X-29948Y-12820D01*
X-29778Y-12890D01*
X-29595Y-12914D01*
X-29412Y-12890D01*
X-29242Y-12820D01*
X-29096Y-12708D01*
X-28984Y-12561D01*
X-28913Y-12391D01*
X-28889Y-12208D01*
X-28913Y-12026D01*
X-28984Y-11855D01*
X-29096Y-11709D01*
X-29242Y-11597D01*
X-29412Y-11526D01*
X-29595Y-11502D01*
D02*
G37*
G36*
X-41617Y-11389D02*
X-41799Y-11413D01*
X-41970Y-11484D01*
X-42116Y-11596D01*
X-42228Y-11742D01*
X-42299Y-11912D01*
X-42323Y-12095D01*
X-42299Y-12278D01*
X-42228Y-12448D01*
X-42116Y-12594D01*
X-41970Y-12706D01*
X-41799Y-12777D01*
X-41617Y-12801D01*
X-41434Y-12777D01*
X-41264Y-12706D01*
X-41117Y-12594D01*
X-41005Y-12448D01*
X-40935Y-12278D01*
X-40911Y-12095D01*
X-40935Y-11912D01*
X-41005Y-11742D01*
X-41117Y-11596D01*
X-41264Y-11484D01*
X-41434Y-11413D01*
X-41617Y-11389D01*
D02*
G37*
G36*
X-11685Y-12537D02*
Y-13000D01*
X-11222D01*
X-11255Y-12921D01*
X-11407Y-12722D01*
X-11606Y-12570D01*
X-11685Y-12537D01*
D02*
G37*
G36*
X-23600Y-11344D02*
X-23783Y-11368D01*
X-23953Y-11439D01*
X-24099Y-11551D01*
X-24211Y-11697D01*
X-24282Y-11867D01*
X-24306Y-12050D01*
X-24282Y-12233D01*
X-24211Y-12403D01*
X-24099Y-12549D01*
X-23953Y-12661D01*
X-23783Y-12732D01*
X-23600Y-12756D01*
X-23542Y-12748D01*
X-23463Y-12940D01*
X-23510Y-12976D01*
X-23622Y-13122D01*
X-23692Y-13292D01*
X-23716Y-13475D01*
X-23692Y-13658D01*
X-23622Y-13828D01*
X-23510Y-13974D01*
X-23363Y-14086D01*
X-23193Y-14157D01*
X-23010Y-14181D01*
X-22828Y-14157D01*
X-22657Y-14086D01*
X-22511Y-13974D01*
X-22399Y-13828D01*
X-22328Y-13658D01*
X-22304Y-13475D01*
X-22328Y-13292D01*
X-22399Y-13122D01*
X-22511Y-12976D01*
X-22657Y-12864D01*
X-22828Y-12793D01*
X-23010Y-12769D01*
X-23069Y-12777D01*
X-23148Y-12585D01*
X-23101Y-12549D01*
X-22989Y-12403D01*
X-22918Y-12233D01*
X-22894Y-12050D01*
X-22918Y-11867D01*
X-22989Y-11697D01*
X-23101Y-11551D01*
X-23247Y-11439D01*
X-23417Y-11368D01*
X-23600Y-11344D01*
D02*
G37*
G36*
X-12485Y-12537D02*
X-12564Y-12570D01*
X-12763Y-12722D01*
X-12915Y-12921D01*
X-12948Y-13000D01*
X-12485D01*
Y-12537D01*
D02*
G37*
G36*
X-40912Y-7394D02*
X-41095Y-7418D01*
X-41265Y-7489D01*
X-41411Y-7601D01*
X-41524Y-7747D01*
X-41594Y-7917D01*
X-41618Y-8100D01*
X-41594Y-8283D01*
X-41524Y-8453D01*
X-41411Y-8599D01*
X-41265Y-8711D01*
X-41095Y-8782D01*
X-40912Y-8806D01*
X-40729Y-8782D01*
X-40559Y-8711D01*
X-40413Y-8599D01*
X-40301Y-8453D01*
X-40230Y-8283D01*
X-40206Y-8100D01*
X-40230Y-7917D01*
X-40301Y-7747D01*
X-40413Y-7601D01*
X-40559Y-7489D01*
X-40729Y-7418D01*
X-40912Y-7394D01*
D02*
G37*
G36*
X-39100Y-7294D02*
X-39283Y-7318D01*
X-39453Y-7389D01*
X-39599Y-7501D01*
X-39711Y-7647D01*
X-39782Y-7817D01*
X-39806Y-8000D01*
X-39782Y-8183D01*
X-39711Y-8353D01*
X-39599Y-8499D01*
X-39453Y-8611D01*
X-39283Y-8682D01*
X-39100Y-8706D01*
X-38917Y-8682D01*
X-38747Y-8611D01*
X-38601Y-8499D01*
X-38489Y-8353D01*
X-38418Y-8183D01*
X-38394Y-8000D01*
X-38418Y-7817D01*
X-38489Y-7647D01*
X-38601Y-7501D01*
X-38747Y-7389D01*
X-38917Y-7318D01*
X-39100Y-7294D01*
D02*
G37*
G36*
X-37000Y-9794D02*
X-37183Y-9818D01*
X-37353Y-9889D01*
X-37499Y-10001D01*
X-37611Y-10147D01*
X-37682Y-10317D01*
X-37706Y-10500D01*
X-37705Y-10504D01*
X-37700Y-10686D01*
X-37867Y-10716D01*
X-37883Y-10718D01*
X-38053Y-10789D01*
X-38199Y-10901D01*
X-38358Y-10779D01*
X-38318Y-10683D01*
X-38294Y-10500D01*
X-38318Y-10317D01*
X-38389Y-10147D01*
X-38501Y-10001D01*
X-38647Y-9889D01*
X-38817Y-9818D01*
X-39000Y-9794D01*
X-39183Y-9818D01*
X-39353Y-9889D01*
X-39499Y-10001D01*
X-39611Y-10147D01*
X-39682Y-10317D01*
X-39706Y-10500D01*
X-39699Y-10550D01*
X-39738Y-10605D01*
X-39880Y-10710D01*
X-40000Y-10694D01*
X-40183Y-10718D01*
X-40353Y-10789D01*
X-40499Y-10901D01*
X-40611Y-11047D01*
X-40682Y-11217D01*
X-40706Y-11400D01*
X-40682Y-11583D01*
X-40611Y-11753D01*
X-40499Y-11899D01*
X-40353Y-12011D01*
X-40183Y-12082D01*
X-40000Y-12106D01*
X-39817Y-12082D01*
X-39647Y-12011D01*
X-39501Y-11899D01*
X-39389Y-11753D01*
X-39318Y-11583D01*
X-39294Y-11400D01*
X-39301Y-11350D01*
X-39262Y-11295D01*
X-39120Y-11190D01*
X-39000Y-11206D01*
X-38817Y-11182D01*
X-38647Y-11111D01*
X-38501Y-10999D01*
X-38342Y-11121D01*
X-38382Y-11217D01*
X-38406Y-11400D01*
X-38382Y-11583D01*
X-38311Y-11753D01*
X-38199Y-11899D01*
X-38053Y-12011D01*
X-37883Y-12082D01*
X-37700Y-12106D01*
X-37517Y-12082D01*
X-37347Y-12011D01*
X-37201Y-11899D01*
X-37089Y-11753D01*
X-37018Y-11583D01*
X-36994Y-11400D01*
X-36995Y-11396D01*
X-37000Y-11214D01*
X-36833Y-11184D01*
X-36817Y-11182D01*
X-36647Y-11111D01*
X-36501Y-10999D01*
X-36389Y-10853D01*
X-36318Y-10683D01*
X-36294Y-10500D01*
X-36318Y-10317D01*
X-36389Y-10147D01*
X-36501Y-10001D01*
X-36647Y-9889D01*
X-36817Y-9818D01*
X-37000Y-9794D01*
D02*
G37*
G36*
X-37700Y10906D02*
X-37883Y10882D01*
X-38053Y10811D01*
X-38199Y10699D01*
X-38311Y10553D01*
X-38382Y10383D01*
X-38406Y10200D01*
X-38382Y10017D01*
X-38311Y9847D01*
X-38304Y9837D01*
X-38311Y9828D01*
X-38382Y9658D01*
X-38406Y9475D01*
X-38382Y9292D01*
X-38311Y9122D01*
X-38279Y9079D01*
X-38311Y9036D01*
X-38382Y8866D01*
X-38406Y8683D01*
X-38382Y8501D01*
X-38311Y8330D01*
X-38199Y8184D01*
X-38053Y8072D01*
X-37883Y8001D01*
X-37700Y7977D01*
X-37517Y8001D01*
X-37347Y8072D01*
X-37213Y8175D01*
X-37136Y8116D01*
X-36966Y8046D01*
X-36783Y8022D01*
X-36601Y8046D01*
X-36430Y8116D01*
X-36284Y8229D01*
X-36172Y8375D01*
X-36101Y8545D01*
X-36077Y8728D01*
X-36101Y8911D01*
X-36172Y9081D01*
X-36263Y9199D01*
X-36213Y9319D01*
X-36189Y9501D01*
X-36213Y9684D01*
X-36284Y9854D01*
X-36396Y10001D01*
X-36542Y10113D01*
X-36712Y10183D01*
X-36895Y10207D01*
X-37018Y10383D01*
X-37089Y10553D01*
X-37201Y10699D01*
X-37347Y10811D01*
X-37517Y10882D01*
X-37700Y10906D01*
D02*
G37*
G36*
X-43175Y11357D02*
X-43397Y11328D01*
X-43604Y11242D01*
X-43781Y11106D01*
X-43917Y10929D01*
X-44003Y10722D01*
X-44032Y10500D01*
X-44003Y10278D01*
X-43917Y10071D01*
X-43781Y9894D01*
X-43758Y9876D01*
X-43758Y9624D01*
X-43781Y9606D01*
X-43917Y9429D01*
X-44003Y9222D01*
X-44032Y9000D01*
X-44003Y8778D01*
X-43917Y8571D01*
X-43781Y8394D01*
X-43758Y8376D01*
X-43758Y8124D01*
X-43781Y8106D01*
X-43917Y7929D01*
X-44003Y7722D01*
X-44032Y7500D01*
X-44003Y7278D01*
X-43917Y7071D01*
X-43781Y6894D01*
X-43758Y6876D01*
Y6624D01*
X-43781Y6606D01*
X-43917Y6429D01*
X-44003Y6222D01*
X-44032Y6000D01*
X-44003Y5778D01*
X-43917Y5571D01*
X-43781Y5394D01*
X-43604Y5258D01*
X-43528Y5226D01*
X-43506Y5001D01*
X-43608Y4933D01*
X-43629Y4900D01*
X-43175D01*
Y4500D01*
X-42775D01*
Y4046D01*
X-42742Y4067D01*
X-42658Y4194D01*
X-42438Y4184D01*
X-42429Y4164D01*
X-42317Y4018D01*
X-42171Y3906D01*
X-42001Y3835D01*
X-41818Y3811D01*
X-41635Y3835D01*
X-41465Y3906D01*
X-41319Y4018D01*
X-41207Y4164D01*
X-41136Y4335D01*
X-41112Y4517D01*
X-41136Y4700D01*
X-41207Y4870D01*
X-41319Y5016D01*
X-41465Y5129D01*
X-41635Y5199D01*
X-41818Y5223D01*
X-42001Y5199D01*
X-42171Y5129D01*
X-42317Y5016D01*
X-42429Y4870D01*
X-42442Y4839D01*
X-42667Y4820D01*
X-42742Y4933D01*
X-42844Y5001D01*
X-42822Y5226D01*
X-42746Y5258D01*
X-42569Y5394D01*
X-42433Y5571D01*
X-42347Y5778D01*
X-42318Y6000D01*
X-42347Y6222D01*
X-42433Y6429D01*
X-42569Y6606D01*
X-42592Y6624D01*
Y6876D01*
X-42569Y6894D01*
X-42433Y7071D01*
X-42347Y7278D01*
X-42318Y7500D01*
X-42347Y7722D01*
X-42433Y7929D01*
X-42569Y8106D01*
X-42592Y8124D01*
X-42592Y8376D01*
X-42569Y8394D01*
X-42433Y8571D01*
X-42347Y8778D01*
X-42318Y9000D01*
X-42347Y9222D01*
X-42433Y9429D01*
X-42569Y9606D01*
X-42592Y9624D01*
X-42592Y9876D01*
X-42569Y9894D01*
X-42433Y10071D01*
X-42347Y10278D01*
X-42318Y10500D01*
X-42347Y10722D01*
X-42433Y10929D01*
X-42569Y11106D01*
X-42746Y11242D01*
X-42953Y11328D01*
X-43175Y11357D01*
D02*
G37*
G36*
X-43575Y4100D02*
X-43629D01*
X-43608Y4067D01*
X-43575Y4046D01*
Y4100D01*
D02*
G37*
G36*
X-34645Y13421D02*
Y13366D01*
X-34591D01*
X-34612Y13399D01*
X-34645Y13421D01*
D02*
G37*
G36*
X-36545Y13824D02*
X-36767Y13794D01*
X-36974Y13709D01*
X-37151Y13572D01*
X-37169Y13549D01*
X-37421D01*
X-37439Y13572D01*
X-37616Y13709D01*
X-37823Y13794D01*
X-38045Y13824D01*
X-38267Y13794D01*
X-38474Y13709D01*
X-38651Y13572D01*
X-38669Y13549D01*
X-38921D01*
X-38939Y13572D01*
X-39116Y13709D01*
X-39323Y13794D01*
X-39545Y13824D01*
X-39767Y13794D01*
X-39974Y13709D01*
X-40151Y13572D01*
X-40288Y13395D01*
X-40373Y13188D01*
X-40402Y12966D01*
X-40373Y12744D01*
X-40288Y12538D01*
X-40151Y12360D01*
X-39974Y12224D01*
X-39767Y12138D01*
X-39545Y12109D01*
X-39323Y12138D01*
X-39116Y12224D01*
X-38939Y12360D01*
X-38921Y12383D01*
X-38669D01*
X-38651Y12360D01*
X-38474Y12224D01*
X-38267Y12138D01*
X-38045Y12109D01*
X-37823Y12138D01*
X-37616Y12224D01*
X-37439Y12360D01*
X-37421Y12383D01*
X-37169D01*
X-37151Y12360D01*
X-36974Y12224D01*
X-36767Y12138D01*
X-36545Y12109D01*
X-36323Y12138D01*
X-36116Y12224D01*
X-35939Y12360D01*
X-35803Y12538D01*
X-35771Y12613D01*
X-35546Y12635D01*
X-35478Y12534D01*
X-35445Y12512D01*
Y12966D01*
Y13421D01*
X-35478Y13399D01*
X-35546Y13297D01*
X-35771Y13319D01*
X-35803Y13395D01*
X-35939Y13572D01*
X-36116Y13709D01*
X-36323Y13794D01*
X-36545Y13824D01*
D02*
G37*
G36*
X-34591Y12566D02*
X-34645D01*
Y12512D01*
X-34612Y12534D01*
X-34591Y12566D01*
D02*
G37*
G36*
X-18835Y13744D02*
X-19017Y13719D01*
X-19188Y13649D01*
X-19334Y13537D01*
X-19446Y13391D01*
X-19517Y13220D01*
X-19541Y13038D01*
X-19517Y12855D01*
X-19446Y12684D01*
X-19334Y12538D01*
X-19188Y12426D01*
X-19017Y12356D01*
X-18835Y12331D01*
X-18652Y12356D01*
X-18482Y12426D01*
X-18335Y12538D01*
X-18223Y12684D01*
X-18153Y12855D01*
X-18129Y13038D01*
X-18153Y13220D01*
X-18223Y13391D01*
X-18335Y13537D01*
X-18482Y13649D01*
X-18652Y13719D01*
X-18835Y13744D01*
D02*
G37*
G36*
X-43050Y-2144D02*
X-43233Y-2168D01*
X-43403Y-2239D01*
X-43549Y-2351D01*
X-43661Y-2497D01*
X-43732Y-2667D01*
X-43756Y-2850D01*
X-43732Y-3033D01*
X-43661Y-3203D01*
X-43549Y-3349D01*
X-43403Y-3461D01*
X-43233Y-3532D01*
X-43050Y-3556D01*
X-42867Y-3532D01*
X-42697Y-3461D01*
X-42551Y-3349D01*
X-42439Y-3203D01*
X-42368Y-3033D01*
X-42344Y-2850D01*
X-42368Y-2667D01*
X-42439Y-2497D01*
X-42551Y-2351D01*
X-42697Y-2239D01*
X-42867Y-2168D01*
X-43050Y-2144D01*
D02*
G37*
G36*
X-38480Y247D02*
X-38663Y223D01*
X-38833Y152D01*
X-38979Y40D01*
X-39091Y-106D01*
X-39162Y-277D01*
X-39186Y-459D01*
X-39162Y-642D01*
X-39091Y-812D01*
X-38979Y-959D01*
X-38833Y-1071D01*
X-38663Y-1141D01*
X-38480Y-1165D01*
X-38297Y-1141D01*
X-38127Y-1071D01*
X-37981Y-959D01*
X-37869Y-812D01*
X-37798Y-642D01*
X-37774Y-459D01*
X-37798Y-277D01*
X-37869Y-106D01*
X-37981Y40D01*
X-38127Y152D01*
X-38297Y223D01*
X-38480Y247D01*
D02*
G37*
G36*
X-21053Y-5516D02*
X-21803D01*
X-21988Y-5553D01*
X-22063Y-5602D01*
X-22137Y-5553D01*
X-22323Y-5516D01*
X-23073D01*
X-23258Y-5553D01*
X-23415Y-5658D01*
X-23503Y-5789D01*
X-23505Y-5788D01*
X-23568Y-5776D01*
Y-6575D01*
Y-7374D01*
X-23505Y-7362D01*
X-23503Y-7361D01*
X-23415Y-7492D01*
X-23258Y-7597D01*
X-23073Y-7634D01*
X-22323D01*
X-22137Y-7597D01*
X-22063Y-7548D01*
X-21988Y-7597D01*
X-21803Y-7634D01*
X-21053D01*
X-20867Y-7597D01*
X-20710Y-7492D01*
X-20622Y-7361D01*
X-20620Y-7362D01*
X-20558Y-7374D01*
Y-6575D01*
Y-5776D01*
X-20620Y-5788D01*
X-20622Y-5789D01*
X-20710Y-5658D01*
X-20867Y-5553D01*
X-21053Y-5516D01*
D02*
G37*
G36*
X-39754Y-2444D02*
X-39936Y-2468D01*
X-40107Y-2539D01*
X-40253Y-2651D01*
X-40365Y-2797D01*
X-40436Y-2967D01*
X-40460Y-3150D01*
X-40436Y-3333D01*
X-40365Y-3503D01*
X-40253Y-3649D01*
X-40107Y-3761D01*
X-39936Y-3832D01*
X-39754Y-3856D01*
X-39571Y-3832D01*
X-39401Y-3761D01*
X-39254Y-3649D01*
X-39142Y-3503D01*
X-39072Y-3333D01*
X-39048Y-3150D01*
X-39072Y-2967D01*
X-39142Y-2797D01*
X-39254Y-2651D01*
X-39401Y-2539D01*
X-39571Y-2468D01*
X-39754Y-2444D01*
D02*
G37*
G36*
X-31211Y3406D02*
X-31394Y3382D01*
X-31564Y3311D01*
X-31710Y3199D01*
X-31822Y3053D01*
X-31893Y2883D01*
X-31917Y2700D01*
X-31893Y2517D01*
X-31822Y2347D01*
X-31710Y2201D01*
X-31564Y2089D01*
X-31394Y2018D01*
X-31211Y1994D01*
X-31028Y2018D01*
X-30858Y2089D01*
X-30712Y2201D01*
X-30599Y2347D01*
X-30529Y2517D01*
X-30505Y2700D01*
X-30529Y2883D01*
X-30599Y3053D01*
X-30712Y3199D01*
X-30858Y3311D01*
X-31028Y3382D01*
X-31211Y3406D01*
D02*
G37*
G36*
X-40458Y3506D02*
X-40641Y3482D01*
X-40811Y3411D01*
X-40958Y3299D01*
X-41070Y3153D01*
X-41140Y2983D01*
X-41164Y2800D01*
X-41140Y2617D01*
X-41070Y2447D01*
X-40958Y2301D01*
X-40811Y2189D01*
X-40641Y2118D01*
X-40458Y2094D01*
X-40276Y2118D01*
X-40105Y2189D01*
X-39959Y2301D01*
X-39847Y2447D01*
X-39776Y2617D01*
X-39752Y2800D01*
X-39776Y2983D01*
X-39847Y3153D01*
X-39959Y3299D01*
X-40105Y3411D01*
X-40276Y3482D01*
X-40458Y3506D01*
D02*
G37*
G36*
X-35800Y3406D02*
X-35983Y3382D01*
X-36153Y3311D01*
X-36299Y3199D01*
X-36411Y3053D01*
X-36482Y2883D01*
X-36506Y2700D01*
X-36482Y2517D01*
X-36411Y2347D01*
X-36299Y2201D01*
X-36153Y2089D01*
X-35983Y2018D01*
X-35800Y1994D01*
X-35617Y2018D01*
X-35447Y2089D01*
X-35301Y2201D01*
X-35189Y2347D01*
X-35118Y2517D01*
X-35094Y2700D01*
X-35118Y2883D01*
X-35189Y3053D01*
X-35301Y3199D01*
X-35447Y3311D01*
X-35617Y3382D01*
X-35800Y3406D01*
D02*
G37*
G36*
X-40800Y1506D02*
X-40983Y1482D01*
X-41153Y1411D01*
X-41299Y1299D01*
X-41411Y1153D01*
X-41482Y983D01*
X-41506Y800D01*
X-41482Y617D01*
X-41411Y447D01*
X-41299Y301D01*
X-41153Y189D01*
X-40983Y118D01*
X-40800Y94D01*
X-40617Y118D01*
X-40447Y189D01*
X-40301Y301D01*
X-40188Y447D01*
X-40118Y617D01*
X-40094Y800D01*
X-40118Y983D01*
X-40188Y1153D01*
X-40301Y1299D01*
X-40447Y1411D01*
X-40617Y1482D01*
X-40800Y1506D01*
D02*
G37*
G36*
X-33477Y1623D02*
X-33659Y1599D01*
X-33830Y1528D01*
X-33976Y1416D01*
X-34088Y1270D01*
X-34159Y1099D01*
X-34183Y917D01*
X-34159Y734D01*
X-34088Y564D01*
X-33976Y417D01*
X-33830Y305D01*
X-33659Y235D01*
X-33477Y211D01*
X-33294Y235D01*
X-33124Y305D01*
X-32977Y417D01*
X-32865Y564D01*
X-32795Y734D01*
X-32771Y917D01*
X-32795Y1099D01*
X-32865Y1270D01*
X-32977Y1416D01*
X-33124Y1528D01*
X-33294Y1599D01*
X-33477Y1623D01*
D02*
G37*
G36*
X-16400Y-8546D02*
X-16433Y-8567D01*
X-16454Y-8600D01*
X-16400D01*
Y-8546D01*
D02*
G37*
G36*
X-15600D02*
Y-8600D01*
X-15546D01*
X-15567Y-8567D01*
X-15600Y-8546D01*
D02*
G37*
G36*
X-15546Y-9400D02*
X-15600D01*
Y-9454D01*
X-15567Y-9433D01*
X-15546Y-9400D01*
D02*
G37*
G36*
X-16400D02*
X-16454D01*
X-16433Y-9433D01*
X-16400Y-9454D01*
Y-9400D01*
D02*
G37*
G36*
X-16000Y9857D02*
X-16222Y9828D01*
X-16429Y9742D01*
X-16606Y9606D01*
X-16742Y9429D01*
X-16828Y9222D01*
X-16857Y9000D01*
X-16828Y8778D01*
X-16742Y8571D01*
X-16606Y8394D01*
X-16429Y8258D01*
X-16222Y8172D01*
X-16000Y8143D01*
X-15778Y8172D01*
X-15571Y8258D01*
X-15394Y8394D01*
X-15258Y8571D01*
X-15172Y8778D01*
X-15143Y9000D01*
X-15172Y9222D01*
X-15258Y9429D01*
X-15394Y9606D01*
X-15571Y9742D01*
X-15778Y9828D01*
X-16000Y9857D01*
D02*
G37*
G36*
Y6365D02*
X-16023Y6361D01*
X-16047Y6362D01*
X-16308Y6328D01*
X-16352Y6313D01*
X-16398Y6304D01*
X-16641Y6203D01*
X-16680Y6177D01*
X-16722Y6157D01*
X-16930Y5996D01*
X-16961Y5961D01*
X-16996Y5930D01*
X-17157Y5722D01*
X-17177Y5680D01*
X-17203Y5641D01*
X-17304Y5398D01*
X-17313Y5352D01*
X-17328Y5308D01*
X-17362Y5047D01*
X-17359Y5000D01*
X-17362Y4953D01*
X-17328Y4692D01*
X-17313Y4648D01*
X-17304Y4602D01*
X-17203Y4359D01*
X-17177Y4320D01*
X-17157Y4278D01*
X-16996Y4070D01*
X-16961Y4039D01*
X-16930Y4004D01*
X-16722Y3843D01*
X-16680Y3823D01*
X-16641Y3797D01*
X-16398Y3696D01*
X-16352Y3687D01*
X-16308Y3672D01*
X-16047Y3638D01*
X-16023Y3639D01*
X-16000Y3635D01*
X-15977Y3639D01*
X-15953Y3638D01*
X-15692Y3672D01*
X-15648Y3687D01*
X-15602Y3696D01*
X-15359Y3797D01*
X-15320Y3823D01*
X-15278Y3843D01*
X-15070Y4004D01*
X-15039Y4039D01*
X-15004Y4070D01*
X-14843Y4278D01*
X-14823Y4320D01*
X-14797Y4359D01*
X-14696Y4602D01*
X-14687Y4648D01*
X-14672Y4692D01*
X-14638Y4953D01*
X-14641Y5000D01*
X-14638Y5047D01*
X-14672Y5308D01*
X-14687Y5352D01*
X-14696Y5398D01*
X-14797Y5641D01*
X-14823Y5680D01*
X-14843Y5722D01*
X-15004Y5930D01*
X-15039Y5961D01*
X-15070Y5996D01*
X-15278Y6157D01*
X-15320Y6177D01*
X-15359Y6203D01*
X-15602Y6304D01*
X-15648Y6313D01*
X-15692Y6328D01*
X-15953Y6362D01*
X-15977Y6361D01*
X-16000Y6365D01*
D02*
G37*
G36*
X-25886Y10656D02*
X-26069Y10632D01*
X-26239Y10561D01*
X-26385Y10449D01*
X-26498Y10303D01*
X-26568Y10133D01*
X-26592Y9950D01*
X-26568Y9767D01*
X-26498Y9597D01*
X-26385Y9451D01*
X-26239Y9339D01*
X-26069Y9268D01*
X-25886Y9244D01*
X-25703Y9268D01*
X-25533Y9339D01*
X-25387Y9451D01*
X-25275Y9597D01*
X-25204Y9767D01*
X-25180Y9950D01*
X-25204Y10133D01*
X-25275Y10303D01*
X-25387Y10449D01*
X-25533Y10561D01*
X-25703Y10632D01*
X-25886Y10656D01*
D02*
G37*
G36*
X-16000Y-3635D02*
X-16023Y-3639D01*
X-16047Y-3638D01*
X-16308Y-3672D01*
X-16352Y-3687D01*
X-16398Y-3696D01*
X-16641Y-3797D01*
X-16680Y-3823D01*
X-16722Y-3843D01*
X-16930Y-4004D01*
X-16961Y-4039D01*
X-16996Y-4070D01*
X-17157Y-4278D01*
X-17177Y-4320D01*
X-17203Y-4359D01*
X-17304Y-4602D01*
X-17313Y-4648D01*
X-17328Y-4692D01*
X-17362Y-4953D01*
X-17359Y-5000D01*
X-17362Y-5047D01*
X-17328Y-5308D01*
X-17313Y-5352D01*
X-17304Y-5398D01*
X-17203Y-5641D01*
X-17177Y-5680D01*
X-17157Y-5722D01*
X-16996Y-5930D01*
X-16961Y-5961D01*
X-16930Y-5996D01*
X-16722Y-6157D01*
X-16680Y-6177D01*
X-16641Y-6203D01*
X-16398Y-6304D01*
X-16352Y-6313D01*
X-16308Y-6328D01*
X-16047Y-6362D01*
X-16023Y-6361D01*
X-16000Y-6365D01*
X-15977Y-6361D01*
X-15953Y-6362D01*
X-15692Y-6328D01*
X-15648Y-6313D01*
X-15602Y-6304D01*
X-15359Y-6203D01*
X-15320Y-6177D01*
X-15278Y-6157D01*
X-15070Y-5996D01*
X-15039Y-5961D01*
X-15004Y-5930D01*
X-14843Y-5722D01*
X-14823Y-5680D01*
X-14797Y-5641D01*
X-14696Y-5398D01*
X-14687Y-5352D01*
X-14672Y-5308D01*
X-14638Y-5047D01*
X-14641Y-5000D01*
X-14638Y-4953D01*
X-14672Y-4692D01*
X-14687Y-4648D01*
X-14696Y-4602D01*
X-14797Y-4359D01*
X-14823Y-4320D01*
X-14843Y-4278D01*
X-15004Y-4070D01*
X-15039Y-4039D01*
X-15070Y-4004D01*
X-15278Y-3843D01*
X-15320Y-3823D01*
X-15359Y-3797D01*
X-15602Y-3696D01*
X-15648Y-3687D01*
X-15692Y-3672D01*
X-15953Y-3638D01*
X-15977Y-3639D01*
X-16000Y-3635D01*
D02*
G37*
%LPD*%
D12*
Y-9000D02*
D03*
X-35045Y12966D02*
D03*
X-43175Y4500D02*
D03*
D40*
X-12085Y-13400D02*
D03*
D42*
X-23968Y-6575D02*
D03*
X-20158D02*
D03*
D43*
X-19600Y11215D02*
D03*
X-43100Y-300D02*
D03*
X-38600Y4953D02*
D03*
X-31331Y13900D02*
D03*
X-30575Y13919D02*
D03*
X-32000Y9275D02*
D03*
Y10000D02*
D03*
X-31211D02*
D03*
Y9275D02*
D03*
X-27208Y3848D02*
D03*
X-28800Y-2096D02*
D03*
X-26543Y-10575D02*
D03*
X-43100Y-1292D02*
D03*
X-30231Y-13433D02*
D03*
X-24000Y-3500D02*
D03*
X-23250D02*
D03*
Y-2725D02*
D03*
X-24000D02*
D03*
X-19658Y-3500D02*
D03*
X-18908D02*
D03*
Y-2725D02*
D03*
X-19658D02*
D03*
X-25900Y-2725D02*
D03*
X-25150D02*
D03*
Y-3500D02*
D03*
X-25900D02*
D03*
X-32450Y845D02*
D03*
X-24800Y-10500D02*
D03*
X-27687Y-5100D02*
D03*
X-26700Y-8850D02*
D03*
X-44025Y-13683D02*
D03*
X-39100Y9100D02*
D03*
X-35000Y-11324D02*
D03*
X-33500Y-11324D02*
D03*
X-19500Y-11100D02*
D03*
X-20561Y-13475D02*
D03*
X-24700Y-9505D02*
D03*
X-28581Y-10600D02*
D03*
X-44012Y-10100D02*
D03*
X-42500Y-13800D02*
D03*
X-32776Y-5300D02*
D03*
X-29868Y-7056D02*
D03*
X-32243Y-1819D02*
D03*
X-33500Y-3176D02*
D03*
X-15217Y13188D02*
D03*
X-17500Y13895D02*
D03*
X-32800Y6522D02*
D03*
X-34100Y5600D02*
D03*
X-32400Y4000D02*
D03*
X-28121Y8592D02*
D03*
X-28900Y7500D02*
D03*
X-27700Y13700D02*
D03*
X-41300Y13400D02*
D03*
X-29100Y2431D02*
D03*
M02*
