G04 Layer_Physical_Order=3*
G04 Layer_Color=255*
%FSLAX43Y43*%
%MOMM*%
G71*
G01*
G75*
%ADD12C,1.000*%
%ADD13C,0.200*%
%ADD43C,0.700*%
G36*
X-18104Y14514D02*
X-18040Y14341D01*
X-18111Y14248D01*
X-18182Y14078D01*
X-18206Y13895D01*
X-18182Y13712D01*
X-18111Y13542D01*
X-17999Y13396D01*
X-17853Y13284D01*
X-17683Y13213D01*
X-17500Y13189D01*
X-17317Y13213D01*
X-17300Y13220D01*
X-17100Y13087D01*
Y5795D01*
X-17157Y5722D01*
X-17177Y5680D01*
X-17203Y5641D01*
X-17304Y5398D01*
X-17313Y5352D01*
X-17328Y5308D01*
X-17362Y5047D01*
X-17359Y5000D01*
X-17362Y4953D01*
X-17328Y4692D01*
X-17313Y4648D01*
X-17304Y4602D01*
X-17203Y4359D01*
X-17177Y4320D01*
X-17157Y4278D01*
X-17100Y4205D01*
Y-3500D01*
X-17100Y-3500D01*
X-17100Y-3623D01*
X-17148Y-3865D01*
X-17242Y-4092D01*
X-17379Y-4297D01*
X-17553Y-4471D01*
X-17758Y-4608D01*
X-17835Y-4640D01*
X-17909Y-4643D01*
X-21722Y-4643D01*
X-21734Y-4638D01*
X-21894Y-4531D01*
X-22031Y-4394D01*
X-22138Y-4234D01*
X-22212Y-4055D01*
X-22250Y-3866D01*
X-22250Y-3769D01*
X-22250Y10900D01*
Y11025D01*
X-22201Y11062D01*
X-22089Y11209D01*
X-22018Y11379D01*
X-21994Y11562D01*
X-22018Y11744D01*
X-22089Y11915D01*
X-22201Y12061D01*
X-22347Y12173D01*
X-22517Y12244D01*
X-22700Y12268D01*
X-22762Y12260D01*
X-22782Y12268D01*
X-22926Y12296D01*
X-23000Y12300D01*
X-25564Y12300D01*
X-25696Y12450D01*
X-25694Y12468D01*
X-25718Y12650D01*
X-25789Y12821D01*
X-25901Y12967D01*
X-26047Y13079D01*
X-26217Y13150D01*
X-26400Y13174D01*
X-26583Y13150D01*
X-26753Y13079D01*
X-26899Y12967D01*
X-27011Y12821D01*
X-27082Y12650D01*
X-27106Y12468D01*
X-27084Y12302D01*
X-27090Y12295D01*
X-27184Y12256D01*
X-27256Y12184D01*
X-27295Y12090D01*
X-27300Y12039D01*
Y11735D01*
X-27300Y11735D01*
Y11609D01*
X-27397Y11375D01*
X-27538Y11234D01*
X-30505D01*
X-30528Y11229D01*
X-30854Y11272D01*
X-31180Y11407D01*
X-31441Y11607D01*
X-31454Y11627D01*
X-31801Y11974D01*
X-31795Y12025D01*
X-31819Y12208D01*
X-31889Y12378D01*
X-32002Y12524D01*
X-32148Y12636D01*
X-32318Y12707D01*
X-32501Y12731D01*
X-32684Y12707D01*
X-32854Y12636D01*
X-33000Y12524D01*
X-33112Y12378D01*
X-33183Y12208D01*
X-33207Y12025D01*
X-33183Y11842D01*
X-33112Y11672D01*
X-33000Y11526D01*
X-32854Y11414D01*
X-32684Y11343D01*
X-32606Y11333D01*
X-32584Y11300D01*
X-32689Y11100D01*
X-39159Y11100D01*
X-39159Y11100D01*
X-39286Y11094D01*
X-39536Y11044D01*
X-39772Y10947D01*
X-39983Y10805D01*
X-40163Y10625D01*
X-40305Y10413D01*
X-40402Y10178D01*
X-40452Y9928D01*
X-40458Y9801D01*
Y3506D01*
X-40641Y3482D01*
X-40811Y3411D01*
X-40958Y3299D01*
X-41070Y3153D01*
X-41140Y2983D01*
X-41164Y2800D01*
X-41140Y2617D01*
X-41070Y2447D01*
X-40958Y2301D01*
X-40811Y2189D01*
X-40641Y2118D01*
X-40458Y2094D01*
Y1603D01*
X-40658Y1487D01*
X-40800Y1506D01*
X-40983Y1482D01*
X-41153Y1411D01*
X-41299Y1299D01*
X-41411Y1153D01*
X-41482Y983D01*
X-41506Y800D01*
X-41482Y617D01*
X-41411Y447D01*
X-41299Y301D01*
X-41153Y189D01*
X-40983Y118D01*
X-40800Y94D01*
X-40658Y113D01*
X-40458Y-3D01*
Y-3140D01*
X-40460Y-3150D01*
X-40458Y-3160D01*
Y-8058D01*
X-40458Y-8058D01*
X-40458Y-8176D01*
X-40548Y-8394D01*
X-40715Y-8560D01*
X-40916Y-8643D01*
X-43700Y-8643D01*
X-43700Y-8643D01*
X-43783Y-8643D01*
X-43817Y-8650D01*
X-43858D01*
X-43858Y-8650D01*
X-43925D01*
X-44057Y-8624D01*
X-44182Y-8572D01*
X-44293Y-8497D01*
X-44389Y-8402D01*
X-44463Y-8290D01*
X-44515Y-8166D01*
X-44541Y-8034D01*
X-44541Y-2109D01*
X-44341Y-2053D01*
X-44176Y-2322D01*
X-43878Y-2671D01*
X-43878Y-2671D01*
X-43752Y-2819D01*
X-43756Y-2850D01*
X-43732Y-3033D01*
X-43661Y-3203D01*
X-43549Y-3349D01*
X-43403Y-3461D01*
X-43233Y-3532D01*
X-43050Y-3556D01*
X-42867Y-3532D01*
X-42697Y-3461D01*
X-42551Y-3349D01*
X-42439Y-3203D01*
X-42368Y-3033D01*
X-42344Y-2850D01*
X-42368Y-2667D01*
X-42439Y-2497D01*
X-42551Y-2351D01*
X-42697Y-2239D01*
X-42867Y-2168D01*
X-42894Y-1979D01*
X-42891Y-1963D01*
X-42747Y-1904D01*
X-42601Y-1791D01*
X-42489Y-1645D01*
X-42418Y-1475D01*
X-42394Y-1292D01*
X-42418Y-1109D01*
X-42489Y-939D01*
X-42598Y-796D01*
X-42489Y-653D01*
X-42418Y-483D01*
X-42394Y-300D01*
X-42418Y-117D01*
X-42489Y53D01*
X-42601Y199D01*
X-42747Y311D01*
X-42917Y382D01*
X-43100Y406D01*
X-43283Y382D01*
X-43453Y311D01*
X-43599Y199D01*
X-43618Y175D01*
X-43818Y243D01*
Y3670D01*
X-43618Y3769D01*
X-43604Y3758D01*
X-43397Y3672D01*
X-43175Y3643D01*
X-42953Y3672D01*
X-42746Y3758D01*
X-42569Y3894D01*
X-42433Y4071D01*
X-42347Y4278D01*
X-42318Y4500D01*
X-42347Y4722D01*
X-42433Y4929D01*
X-42569Y5106D01*
X-42592Y5124D01*
X-42592Y5376D01*
X-42569Y5394D01*
X-42433Y5571D01*
X-42347Y5778D01*
X-42318Y6000D01*
X-42347Y6222D01*
X-42433Y6429D01*
X-42569Y6606D01*
X-42592Y6624D01*
Y6876D01*
X-42569Y6894D01*
X-42433Y7071D01*
X-42347Y7278D01*
X-42318Y7500D01*
X-42347Y7722D01*
X-42433Y7929D01*
X-42569Y8106D01*
X-42592Y8124D01*
X-42592Y8376D01*
X-42569Y8394D01*
X-42433Y8571D01*
X-42347Y8778D01*
X-42318Y9000D01*
X-42347Y9222D01*
X-42433Y9429D01*
X-42569Y9606D01*
X-42746Y9742D01*
X-42822Y9774D01*
X-42844Y9999D01*
X-42843Y10000D01*
X-43175D01*
X-43507D01*
X-43506Y9999D01*
X-43528Y9774D01*
X-43604Y9742D01*
X-43781Y9606D01*
X-43917Y9429D01*
X-44003Y9222D01*
X-44032Y9000D01*
X-44003Y8778D01*
X-43917Y8571D01*
X-43781Y8394D01*
X-43758Y8376D01*
X-43758Y8124D01*
X-43781Y8106D01*
X-43917Y7929D01*
X-44003Y7722D01*
X-44032Y7500D01*
X-44003Y7278D01*
X-43917Y7071D01*
X-43781Y6894D01*
X-43758Y6876D01*
Y6624D01*
X-43781Y6606D01*
X-43917Y6429D01*
X-44003Y6222D01*
X-44004Y6215D01*
X-44041Y6195D01*
X-44278Y6001D01*
X-44341Y5923D01*
X-44541Y5995D01*
X-44541Y11411D01*
X-44341Y11562D01*
X-44277Y11553D01*
X-44094Y11577D01*
X-43924Y11648D01*
X-43778Y11760D01*
X-43665Y11906D01*
X-43595Y12077D01*
X-43571Y12259D01*
X-43595Y12442D01*
X-43665Y12612D01*
X-43778Y12759D01*
X-43924Y12871D01*
X-44094Y12941D01*
X-44277Y12965D01*
X-44341Y12957D01*
X-44541Y13107D01*
Y13499D01*
X-44463Y13606D01*
X-44342Y13670D01*
X-44307Y13677D01*
X-44272D01*
X-44155Y13701D01*
X-44027Y13754D01*
X-43927Y13820D01*
X-43927Y13820D01*
X-43829Y13919D01*
X-43763Y14018D01*
X-43729Y14100D01*
X-43709Y14146D01*
X-43686Y14264D01*
Y14403D01*
X-43510Y14541D01*
X-31962Y14541D01*
X-31948Y14527D01*
X-31875Y14341D01*
X-31942Y14253D01*
X-32013Y14083D01*
X-32037Y13900D01*
X-32013Y13717D01*
X-31942Y13547D01*
X-31830Y13401D01*
X-31684Y13289D01*
X-31514Y13218D01*
X-31331Y13194D01*
X-31148Y13218D01*
X-30978Y13289D01*
X-30941Y13317D01*
X-30928Y13307D01*
X-30758Y13237D01*
X-30575Y13213D01*
X-30392Y13237D01*
X-30222Y13307D01*
X-30076Y13419D01*
X-29964Y13566D01*
X-29893Y13736D01*
X-29869Y13919D01*
X-29893Y14101D01*
X-29964Y14272D01*
X-30017Y14341D01*
X-29920Y14541D01*
X-28021D01*
X-27981Y14341D01*
X-28053Y14311D01*
X-28199Y14199D01*
X-28311Y14053D01*
X-28382Y13883D01*
X-28406Y13700D01*
X-28382Y13517D01*
X-28311Y13347D01*
X-28199Y13201D01*
X-28053Y13089D01*
X-27883Y13018D01*
X-27700Y12994D01*
X-27517Y13018D01*
X-27347Y13089D01*
X-27201Y13201D01*
X-27088Y13347D01*
X-27018Y13517D01*
X-26994Y13700D01*
X-27018Y13883D01*
X-27088Y14053D01*
X-27201Y14199D01*
X-27347Y14311D01*
X-27419Y14341D01*
X-27379Y14541D01*
X-18128Y14541D01*
X-18104Y14514D01*
D02*
G37*
G36*
X-14757Y14541D02*
X-14595Y14509D01*
X-14442Y14446D01*
X-14304Y14354D01*
X-14187Y14237D01*
X-14096Y14099D01*
X-14032Y13946D01*
X-14020Y13886D01*
X-14000Y13701D01*
Y13701D01*
X-14000Y13701D01*
X-14000Y13701D01*
X-14000Y-5000D01*
Y-12144D01*
X-14200Y-12277D01*
X-14312Y-12231D01*
X-14625Y-12190D01*
X-14938Y-12231D01*
X-15230Y-12352D01*
X-15481Y-12544D01*
X-15673Y-12795D01*
X-15758Y-13000D01*
X-15958Y-12960D01*
Y-12550D01*
X-15985Y-12413D01*
X-16063Y-12298D01*
X-16178Y-12220D01*
X-16315Y-12193D01*
X-18015D01*
X-18152Y-12220D01*
X-18267Y-12298D01*
X-18345Y-12413D01*
X-18372Y-12550D01*
Y-14250D01*
X-18362Y-14300D01*
X-18491Y-14500D01*
X-41934D01*
X-42002Y-14300D01*
X-42001Y-14299D01*
X-41889Y-14153D01*
X-41818Y-13983D01*
X-41794Y-13800D01*
X-41818Y-13617D01*
X-41889Y-13447D01*
X-42001Y-13301D01*
X-42147Y-13189D01*
X-42317Y-13118D01*
X-42500Y-13094D01*
X-42683Y-13118D01*
X-42853Y-13189D01*
X-42999Y-13301D01*
X-43111Y-13447D01*
X-43139Y-13515D01*
X-43318Y-13502D01*
X-43347Y-13492D01*
X-43414Y-13330D01*
X-43526Y-13184D01*
X-43672Y-13072D01*
X-43842Y-13001D01*
X-44025Y-12977D01*
X-44208Y-13001D01*
X-44341Y-13057D01*
X-44462Y-13007D01*
X-44541Y-12945D01*
X-44541Y-10829D01*
X-44431Y-10756D01*
X-44341Y-10721D01*
X-44195Y-10782D01*
X-44012Y-10806D01*
X-43830Y-10782D01*
X-43659Y-10711D01*
X-43513Y-10599D01*
X-43401Y-10453D01*
X-43330Y-10283D01*
X-43306Y-10100D01*
X-43330Y-9917D01*
X-43401Y-9747D01*
X-43513Y-9601D01*
X-43659Y-9489D01*
X-43830Y-9418D01*
X-44012Y-9394D01*
X-44182Y-9416D01*
X-44197Y-9403D01*
X-44262Y-9214D01*
X-44236Y-9188D01*
X-44098Y-9096D01*
X-43945Y-9032D01*
X-43783Y-9000D01*
X-43700Y-9000D01*
X-43700Y-9000D01*
X-40858Y-9000D01*
X-40784Y-8996D01*
X-40638Y-8967D01*
X-40501Y-8910D01*
X-40377Y-8828D01*
X-40272Y-8723D01*
X-40190Y-8599D01*
X-40133Y-8462D01*
X-40104Y-8316D01*
X-40100Y-8242D01*
X-40100Y-8242D01*
X-40100Y753D01*
X-40094Y800D01*
X-40100Y846D01*
Y2193D01*
X-39959Y2301D01*
X-39847Y2447D01*
X-39776Y2617D01*
X-39752Y2800D01*
X-39776Y2983D01*
X-39847Y3153D01*
X-39959Y3299D01*
X-40100Y3407D01*
Y9500D01*
X-40100Y9608D01*
X-40058Y9821D01*
X-39975Y10021D01*
X-39854Y10201D01*
X-39701Y10354D01*
X-39521Y10475D01*
X-39321Y10558D01*
X-39108Y10600D01*
X-39000D01*
X-39000Y10600D01*
X-32674D01*
X-32575Y10400D01*
X-32611Y10353D01*
X-32682Y10183D01*
X-32706Y10000D01*
X-32682Y9817D01*
X-32611Y9647D01*
X-32604Y9637D01*
X-32611Y9628D01*
X-32682Y9458D01*
X-32706Y9275D01*
X-32682Y9092D01*
X-32611Y8922D01*
X-32499Y8776D01*
X-32353Y8664D01*
X-32183Y8593D01*
X-32000Y8569D01*
X-31817Y8593D01*
X-31647Y8664D01*
X-31605Y8695D01*
X-31564Y8664D01*
X-31394Y8593D01*
X-31211Y8569D01*
X-31028Y8593D01*
X-30858Y8664D01*
X-30712Y8776D01*
X-30599Y8922D01*
X-30529Y9092D01*
X-30505Y9275D01*
X-30529Y9458D01*
X-30599Y9628D01*
X-30607Y9637D01*
X-30599Y9647D01*
X-30529Y9817D01*
X-30505Y10000D01*
X-30520Y10116D01*
X-30520Y10125D01*
X-30423Y10270D01*
X-30368Y10316D01*
X-27020D01*
X-26884Y10180D01*
X-26757Y9990D01*
X-26670Y9779D01*
X-26639Y9626D01*
X-26625Y9441D01*
Y9441D01*
X-26625D01*
X-26625Y9441D01*
Y4535D01*
X-26825Y4437D01*
X-26855Y4460D01*
X-27026Y4530D01*
X-27208Y4554D01*
X-27391Y4530D01*
X-27561Y4460D01*
X-27708Y4348D01*
X-27820Y4201D01*
X-27890Y4031D01*
X-27914Y3848D01*
X-27890Y3666D01*
X-27820Y3495D01*
X-27708Y3349D01*
X-27561Y3237D01*
X-27391Y3166D01*
X-27208Y3142D01*
X-27026Y3166D01*
X-26855Y3237D01*
X-26825Y3260D01*
X-26625Y3162D01*
X-26625Y1956D01*
X-26983Y1848D01*
X-27041Y1842D01*
X-27051Y1854D01*
X-27197Y1966D01*
X-27367Y2037D01*
X-27550Y2061D01*
X-27733Y2037D01*
X-27903Y1966D01*
X-28049Y1854D01*
X-28161Y1708D01*
X-28232Y1538D01*
X-28256Y1355D01*
X-28232Y1172D01*
X-28161Y1002D01*
X-28066Y877D01*
X-28161Y753D01*
X-28232Y583D01*
X-28256Y400D01*
X-28232Y217D01*
X-28161Y47D01*
X-28049Y-99D01*
X-27903Y-211D01*
X-27733Y-282D01*
X-27550Y-306D01*
X-27367Y-282D01*
X-27197Y-211D01*
X-27051Y-99D01*
X-27020Y-59D01*
X-26625D01*
Y-3746D01*
X-26619Y-3869D01*
X-26571Y-4110D01*
X-26477Y-4337D01*
X-26340Y-4542D01*
X-26167Y-4715D01*
X-25962Y-4852D01*
X-25735Y-4946D01*
X-25494Y-4994D01*
X-25371Y-5000D01*
X-17900Y-5000D01*
X-17782Y-4994D01*
X-17555Y-4949D01*
X-17551Y-4949D01*
X-17506Y-4961D01*
X-17480Y-4976D01*
X-17357Y-5084D01*
X-17328Y-5308D01*
X-17313Y-5352D01*
X-17304Y-5398D01*
X-17203Y-5641D01*
X-17177Y-5680D01*
X-17157Y-5722D01*
X-16996Y-5930D01*
X-16961Y-5961D01*
X-16930Y-5996D01*
X-16722Y-6157D01*
X-16680Y-6177D01*
X-16641Y-6203D01*
X-16398Y-6304D01*
X-16352Y-6313D01*
X-16308Y-6328D01*
X-16047Y-6362D01*
X-16023Y-6361D01*
X-16000Y-6365D01*
X-15977Y-6361D01*
X-15953Y-6362D01*
X-15692Y-6328D01*
X-15648Y-6313D01*
X-15602Y-6304D01*
X-15359Y-6203D01*
X-15320Y-6177D01*
X-15278Y-6157D01*
X-15070Y-5996D01*
X-15039Y-5961D01*
X-15004Y-5930D01*
X-14843Y-5722D01*
X-14823Y-5680D01*
X-14797Y-5641D01*
X-14696Y-5398D01*
X-14687Y-5352D01*
X-14672Y-5308D01*
X-14638Y-5047D01*
X-14641Y-5000D01*
X-14638Y-4953D01*
X-14672Y-4692D01*
X-14687Y-4648D01*
X-14696Y-4602D01*
X-14797Y-4359D01*
X-14823Y-4320D01*
X-14843Y-4278D01*
X-15004Y-4070D01*
X-15039Y-4039D01*
X-15070Y-4004D01*
X-15278Y-3843D01*
X-15320Y-3823D01*
X-15359Y-3797D01*
X-15602Y-3696D01*
X-15648Y-3687D01*
X-15692Y-3672D01*
X-15953Y-3638D01*
X-15977Y-3639D01*
X-16000Y-3635D01*
X-16023Y-3639D01*
X-16047Y-3638D01*
X-16308Y-3672D01*
X-16352Y-3687D01*
X-16398Y-3696D01*
X-16500Y-3738D01*
X-16700Y-3605D01*
X-16700Y3605D01*
X-16500Y3738D01*
X-16398Y3696D01*
X-16352Y3687D01*
X-16308Y3672D01*
X-16047Y3638D01*
X-16023Y3639D01*
X-16000Y3635D01*
X-15977Y3639D01*
X-15953Y3638D01*
X-15692Y3672D01*
X-15648Y3687D01*
X-15602Y3696D01*
X-15359Y3797D01*
X-15320Y3823D01*
X-15278Y3843D01*
X-15070Y4004D01*
X-15039Y4039D01*
X-15004Y4070D01*
X-14843Y4278D01*
X-14823Y4320D01*
X-14797Y4359D01*
X-14696Y4602D01*
X-14687Y4648D01*
X-14672Y4692D01*
X-14638Y4953D01*
X-14641Y5000D01*
X-14638Y5047D01*
X-14672Y5308D01*
X-14687Y5352D01*
X-14696Y5398D01*
X-14797Y5641D01*
X-14823Y5680D01*
X-14843Y5722D01*
X-15004Y5930D01*
X-15039Y5961D01*
X-15070Y5996D01*
X-15278Y6157D01*
X-15320Y6177D01*
X-15359Y6203D01*
X-15602Y6304D01*
X-15648Y6313D01*
X-15692Y6328D01*
X-15953Y6362D01*
X-15977Y6361D01*
X-16000Y6365D01*
X-16023Y6361D01*
X-16047Y6362D01*
X-16308Y6328D01*
X-16352Y6313D01*
X-16398Y6304D01*
X-16500Y6262D01*
X-16700Y6395D01*
Y8214D01*
X-16500Y8312D01*
X-16429Y8258D01*
X-16222Y8172D01*
X-16000Y8143D01*
X-15778Y8172D01*
X-15571Y8258D01*
X-15394Y8394D01*
X-15258Y8571D01*
X-15172Y8778D01*
X-15143Y9000D01*
X-15172Y9222D01*
X-15258Y9429D01*
X-15394Y9606D01*
X-15571Y9742D01*
X-15778Y9828D01*
X-16000Y9857D01*
X-16222Y9828D01*
X-16429Y9742D01*
X-16500Y9688D01*
X-16700Y9786D01*
Y13806D01*
X-16700Y13878D01*
X-16672Y14020D01*
X-16616Y14154D01*
X-16536Y14275D01*
X-16434Y14377D01*
X-16313Y14457D01*
X-16179Y14513D01*
X-16037Y14541D01*
X-15965Y14541D01*
X-15965Y14541D01*
X-15703Y14541D01*
X-14757D01*
D02*
G37*
%LPC*%
G36*
X-41300Y14106D02*
X-41483Y14082D01*
X-41653Y14011D01*
X-41799Y13899D01*
X-41911Y13753D01*
X-41982Y13583D01*
X-42006Y13400D01*
X-41982Y13217D01*
X-41911Y13047D01*
X-41799Y12901D01*
X-41653Y12789D01*
X-41483Y12718D01*
X-41300Y12694D01*
X-41117Y12718D01*
X-40947Y12789D01*
X-40801Y12901D01*
X-40689Y13047D01*
X-40618Y13217D01*
X-40594Y13400D01*
X-40618Y13583D01*
X-40689Y13753D01*
X-40801Y13899D01*
X-40947Y14011D01*
X-41117Y14082D01*
X-41300Y14106D01*
D02*
G37*
G36*
X-35045Y13824D02*
X-35267Y13794D01*
X-35474Y13709D01*
X-35651Y13572D01*
X-35669Y13549D01*
X-35921D01*
X-35939Y13572D01*
X-36116Y13709D01*
X-36323Y13794D01*
X-36545Y13824D01*
X-36767Y13794D01*
X-36974Y13709D01*
X-37151Y13572D01*
X-37169Y13549D01*
X-37421D01*
X-37439Y13572D01*
X-37616Y13709D01*
X-37823Y13794D01*
X-38045Y13824D01*
X-38267Y13794D01*
X-38474Y13709D01*
X-38651Y13572D01*
X-38669Y13549D01*
X-38921D01*
X-38939Y13572D01*
X-39116Y13709D01*
X-39323Y13794D01*
X-39545Y13824D01*
X-39767Y13794D01*
X-39974Y13709D01*
X-40151Y13572D01*
X-40288Y13395D01*
X-40373Y13188D01*
X-40402Y12966D01*
X-40373Y12744D01*
X-40288Y12538D01*
X-40151Y12360D01*
X-39974Y12224D01*
X-39767Y12138D01*
X-39545Y12109D01*
X-39323Y12138D01*
X-39116Y12224D01*
X-38939Y12360D01*
X-38921Y12383D01*
X-38669D01*
X-38651Y12360D01*
X-38474Y12224D01*
X-38267Y12138D01*
X-38045Y12109D01*
X-37823Y12138D01*
X-37616Y12224D01*
X-37439Y12360D01*
X-37421Y12383D01*
X-37169D01*
X-37151Y12360D01*
X-36974Y12224D01*
X-36767Y12138D01*
X-36545Y12109D01*
X-36323Y12138D01*
X-36116Y12224D01*
X-35939Y12360D01*
X-35921Y12383D01*
X-35669D01*
X-35651Y12360D01*
X-35474Y12224D01*
X-35267Y12138D01*
X-35045Y12109D01*
X-34823Y12138D01*
X-34616Y12224D01*
X-34439Y12360D01*
X-34303Y12538D01*
X-34217Y12744D01*
X-34188Y12966D01*
X-34217Y13188D01*
X-34303Y13395D01*
X-34439Y13572D01*
X-34616Y13709D01*
X-34823Y13794D01*
X-35045Y13824D01*
D02*
G37*
G36*
X-19600Y11921D02*
X-19782Y11897D01*
X-19953Y11827D01*
X-20099Y11714D01*
X-20211Y11568D01*
X-20281Y11398D01*
X-20306Y11215D01*
X-20281Y11032D01*
X-20211Y10862D01*
X-20099Y10716D01*
X-19953Y10604D01*
X-19782Y10533D01*
X-19600Y10509D01*
X-19417Y10533D01*
X-19246Y10604D01*
X-19100Y10716D01*
X-18988Y10862D01*
X-18918Y11032D01*
X-18893Y11215D01*
X-18918Y11398D01*
X-18988Y11568D01*
X-19100Y11714D01*
X-19246Y11827D01*
X-19417Y11897D01*
X-19600Y11921D01*
D02*
G37*
G36*
X-18908Y-2019D02*
X-19091Y-2043D01*
X-19261Y-2114D01*
X-19283Y-2130D01*
X-19305Y-2114D01*
X-19475Y-2043D01*
X-19658Y-2019D01*
X-19841Y-2043D01*
X-20011Y-2114D01*
X-20157Y-2226D01*
X-20270Y-2372D01*
X-20340Y-2542D01*
X-20364Y-2725D01*
X-20340Y-2908D01*
X-20270Y-3078D01*
X-20243Y-3112D01*
X-20270Y-3147D01*
X-20340Y-3317D01*
X-20364Y-3500D01*
X-20340Y-3683D01*
X-20270Y-3853D01*
X-20157Y-3999D01*
X-20011Y-4111D01*
X-19841Y-4182D01*
X-19658Y-4206D01*
X-19475Y-4182D01*
X-19305Y-4111D01*
X-19283Y-4095D01*
X-19261Y-4111D01*
X-19091Y-4182D01*
X-18908Y-4206D01*
X-18725Y-4182D01*
X-18555Y-4111D01*
X-18409Y-3999D01*
X-18297Y-3853D01*
X-18226Y-3683D01*
X-18202Y-3500D01*
X-18226Y-3317D01*
X-18297Y-3147D01*
X-18323Y-3112D01*
X-18297Y-3078D01*
X-18226Y-2908D01*
X-18202Y-2725D01*
X-18226Y-2542D01*
X-18297Y-2372D01*
X-18409Y-2226D01*
X-18555Y-2114D01*
X-18725Y-2043D01*
X-18908Y-2019D01*
D02*
G37*
G36*
X-27325Y-6477D02*
X-27508Y-6501D01*
X-27678Y-6572D01*
X-27824Y-6684D01*
X-27936Y-6830D01*
X-28007Y-7000D01*
X-28031Y-7183D01*
X-28007Y-7366D01*
X-27936Y-7536D01*
X-27824Y-7682D01*
X-27678Y-7795D01*
X-27508Y-7865D01*
X-27325Y-7889D01*
X-27142Y-7865D01*
X-26972Y-7795D01*
X-26826Y-7682D01*
X-26714Y-7536D01*
X-26643Y-7366D01*
X-26619Y-7183D01*
X-26643Y-7000D01*
X-26714Y-6830D01*
X-26826Y-6684D01*
X-26972Y-6572D01*
X-27142Y-6501D01*
X-27325Y-6477D01*
D02*
G37*
G36*
X-29868Y-6350D02*
X-30051Y-6374D01*
X-30221Y-6445D01*
X-30367Y-6557D01*
X-30479Y-6703D01*
X-30550Y-6874D01*
X-30574Y-7056D01*
X-30550Y-7239D01*
X-30479Y-7409D01*
X-30367Y-7556D01*
X-30221Y-7668D01*
X-30051Y-7738D01*
X-29868Y-7762D01*
X-29685Y-7738D01*
X-29515Y-7668D01*
X-29369Y-7556D01*
X-29256Y-7409D01*
X-29186Y-7239D01*
X-29162Y-7056D01*
X-29186Y-6874D01*
X-29256Y-6703D01*
X-29369Y-6557D01*
X-29515Y-6445D01*
X-29685Y-6374D01*
X-29868Y-6350D01*
D02*
G37*
G36*
X-26700Y-8144D02*
X-26883Y-8168D01*
X-27053Y-8239D01*
X-27199Y-8351D01*
X-27311Y-8497D01*
X-27382Y-8667D01*
X-27406Y-8850D01*
X-27382Y-9033D01*
X-27311Y-9203D01*
X-27199Y-9349D01*
X-27053Y-9461D01*
X-26883Y-9532D01*
X-26700Y-9556D01*
X-26517Y-9532D01*
X-26347Y-9461D01*
X-26201Y-9349D01*
X-26089Y-9203D01*
X-26018Y-9033D01*
X-25994Y-8850D01*
X-26018Y-8667D01*
X-26089Y-8497D01*
X-26201Y-8351D01*
X-26347Y-8239D01*
X-26517Y-8168D01*
X-26700Y-8144D01*
D02*
G37*
G36*
X-39100Y-7294D02*
X-39283Y-7318D01*
X-39453Y-7389D01*
X-39599Y-7501D01*
X-39711Y-7647D01*
X-39782Y-7817D01*
X-39806Y-8000D01*
X-39782Y-8183D01*
X-39711Y-8353D01*
X-39599Y-8499D01*
X-39453Y-8611D01*
X-39283Y-8682D01*
X-39100Y-8706D01*
X-38917Y-8682D01*
X-38747Y-8611D01*
X-38601Y-8499D01*
X-38489Y-8353D01*
X-38418Y-8183D01*
X-38394Y-8000D01*
X-38418Y-7817D01*
X-38489Y-7647D01*
X-38601Y-7501D01*
X-38747Y-7389D01*
X-38917Y-7318D01*
X-39100Y-7294D01*
D02*
G37*
G36*
X-27687Y-4394D02*
X-27869Y-4418D01*
X-28040Y-4489D01*
X-28186Y-4601D01*
X-28298Y-4747D01*
X-28369Y-4917D01*
X-28393Y-5100D01*
X-28369Y-5283D01*
X-28298Y-5453D01*
X-28186Y-5599D01*
X-28040Y-5711D01*
X-27869Y-5782D01*
X-27687Y-5806D01*
X-27504Y-5782D01*
X-27334Y-5711D01*
X-27187Y-5599D01*
X-27075Y-5453D01*
X-27005Y-5283D01*
X-26981Y-5100D01*
X-27005Y-4917D01*
X-27075Y-4747D01*
X-27187Y-4601D01*
X-27334Y-4489D01*
X-27504Y-4418D01*
X-27687Y-4394D01*
D02*
G37*
G36*
X-19783Y-5516D02*
X-20533D01*
X-20718Y-5553D01*
X-20793Y-5602D01*
X-20867Y-5553D01*
X-21053Y-5516D01*
X-21803D01*
X-21988Y-5553D01*
X-22063Y-5602D01*
X-22137Y-5553D01*
X-22323Y-5516D01*
X-23073D01*
X-23258Y-5553D01*
X-23333Y-5602D01*
X-23407Y-5553D01*
X-23593Y-5516D01*
X-24343D01*
X-24528Y-5553D01*
X-24685Y-5658D01*
X-24790Y-5815D01*
X-24827Y-6000D01*
Y-7150D01*
X-24790Y-7335D01*
X-24685Y-7492D01*
X-24528Y-7597D01*
X-24343Y-7634D01*
X-23593D01*
X-23407Y-7597D01*
X-23333Y-7548D01*
X-23258Y-7597D01*
X-23073Y-7634D01*
X-22323D01*
X-22137Y-7597D01*
X-22063Y-7548D01*
X-21988Y-7597D01*
X-21803Y-7634D01*
X-21053D01*
X-20867Y-7597D01*
X-20793Y-7548D01*
X-20718Y-7597D01*
X-20533Y-7634D01*
X-19783D01*
X-19597Y-7597D01*
X-19440Y-7492D01*
X-19335Y-7335D01*
X-19298Y-7150D01*
Y-6000D01*
X-19335Y-5815D01*
X-19440Y-5658D01*
X-19597Y-5553D01*
X-19783Y-5516D01*
D02*
G37*
G36*
X-34878Y-5072D02*
X-35061Y-5096D01*
X-35231Y-5167D01*
X-35377Y-5279D01*
X-35489Y-5425D01*
X-35560Y-5595D01*
X-35584Y-5778D01*
X-35560Y-5961D01*
X-35489Y-6131D01*
X-35377Y-6277D01*
X-35238Y-6384D01*
X-35227Y-6395D01*
X-35111Y-6547D01*
X-35182Y-6717D01*
X-35206Y-6900D01*
X-35182Y-7083D01*
X-35111Y-7253D01*
X-34999Y-7399D01*
X-34853Y-7511D01*
X-34683Y-7582D01*
X-34500Y-7606D01*
X-34317Y-7582D01*
X-34147Y-7511D01*
X-34001Y-7399D01*
X-33889Y-7253D01*
X-33818Y-7083D01*
X-33794Y-6900D01*
X-33818Y-6717D01*
X-33889Y-6547D01*
X-34001Y-6401D01*
X-34140Y-6294D01*
X-34151Y-6283D01*
X-34267Y-6131D01*
X-34196Y-5961D01*
X-34172Y-5778D01*
X-34196Y-5595D01*
X-34267Y-5425D01*
X-34379Y-5279D01*
X-34525Y-5167D01*
X-34695Y-5096D01*
X-34878Y-5072D01*
D02*
G37*
G36*
X-32776Y-4594D02*
X-32959Y-4618D01*
X-33129Y-4689D01*
X-33275Y-4801D01*
X-33387Y-4947D01*
X-33458Y-5117D01*
X-33482Y-5300D01*
X-33458Y-5483D01*
X-33387Y-5653D01*
X-33275Y-5799D01*
X-33239Y-5827D01*
Y-6073D01*
X-33275Y-6101D01*
X-33387Y-6247D01*
X-33458Y-6417D01*
X-33482Y-6600D01*
X-33458Y-6783D01*
X-33387Y-6953D01*
X-33275Y-7099D01*
X-33129Y-7211D01*
X-32959Y-7282D01*
X-32776Y-7306D01*
X-32593Y-7282D01*
X-32423Y-7211D01*
X-32277Y-7099D01*
X-32164Y-6953D01*
X-32094Y-6783D01*
X-32070Y-6600D01*
X-32094Y-6417D01*
X-32164Y-6247D01*
X-32277Y-6101D01*
X-32313Y-6073D01*
Y-5827D01*
X-32277Y-5799D01*
X-32164Y-5653D01*
X-32094Y-5483D01*
X-32070Y-5300D01*
X-32094Y-5117D01*
X-32164Y-4947D01*
X-32277Y-4801D01*
X-32423Y-4689D01*
X-32593Y-4618D01*
X-32776Y-4594D01*
D02*
G37*
G36*
X-16000Y-8143D02*
X-16222Y-8172D01*
X-16429Y-8258D01*
X-16606Y-8394D01*
X-16742Y-8571D01*
X-16828Y-8778D01*
X-16857Y-9000D01*
X-16828Y-9222D01*
X-16742Y-9429D01*
X-16606Y-9606D01*
X-16429Y-9742D01*
X-16222Y-9828D01*
X-16000Y-9857D01*
X-15778Y-9828D01*
X-15571Y-9742D01*
X-15394Y-9606D01*
X-15258Y-9429D01*
X-15172Y-9222D01*
X-15143Y-9000D01*
X-15172Y-8778D01*
X-15258Y-8571D01*
X-15394Y-8394D01*
X-15571Y-8258D01*
X-15778Y-8172D01*
X-16000Y-8143D01*
D02*
G37*
G36*
X-19500Y-10394D02*
X-19683Y-10418D01*
X-19853Y-10489D01*
X-19999Y-10601D01*
X-20111Y-10747D01*
X-20182Y-10917D01*
X-20206Y-11100D01*
X-20182Y-11283D01*
X-20111Y-11453D01*
X-19999Y-11599D01*
X-19853Y-11711D01*
X-19683Y-11782D01*
X-19500Y-11806D01*
X-19317Y-11782D01*
X-19147Y-11711D01*
X-19001Y-11599D01*
X-18889Y-11453D01*
X-18818Y-11283D01*
X-18794Y-11100D01*
X-18818Y-10917D01*
X-18889Y-10747D01*
X-19001Y-10601D01*
X-19147Y-10489D01*
X-19317Y-10418D01*
X-19500Y-10394D01*
D02*
G37*
G36*
X-28581Y-9894D02*
X-28764Y-9918D01*
X-28934Y-9989D01*
X-29080Y-10101D01*
X-29193Y-10247D01*
X-29263Y-10417D01*
X-29287Y-10600D01*
X-29263Y-10783D01*
X-29193Y-10953D01*
X-29080Y-11099D01*
X-28934Y-11211D01*
X-28764Y-11282D01*
X-28581Y-11306D01*
X-28398Y-11282D01*
X-28228Y-11211D01*
X-28082Y-11099D01*
X-27970Y-10953D01*
X-27899Y-10783D01*
X-27875Y-10600D01*
X-27899Y-10417D01*
X-27970Y-10247D01*
X-28082Y-10101D01*
X-28228Y-9989D01*
X-28398Y-9918D01*
X-28581Y-9894D01*
D02*
G37*
G36*
X-20561Y-12769D02*
X-20744Y-12793D01*
X-20914Y-12864D01*
X-21060Y-12976D01*
X-21173Y-13122D01*
X-21243Y-13292D01*
X-21267Y-13475D01*
X-21243Y-13658D01*
X-21173Y-13828D01*
X-21060Y-13974D01*
X-20914Y-14086D01*
X-20744Y-14157D01*
X-20561Y-14181D01*
X-20378Y-14157D01*
X-20208Y-14086D01*
X-20062Y-13974D01*
X-19950Y-13828D01*
X-19879Y-13658D01*
X-19855Y-13475D01*
X-19879Y-13292D01*
X-19950Y-13122D01*
X-20062Y-12976D01*
X-20208Y-12864D01*
X-20378Y-12793D01*
X-20561Y-12769D01*
D02*
G37*
G36*
X-30231Y-12727D02*
X-30414Y-12751D01*
X-30584Y-12821D01*
X-30730Y-12934D01*
X-30842Y-13080D01*
X-30913Y-13250D01*
X-30937Y-13433D01*
X-30913Y-13616D01*
X-30842Y-13786D01*
X-30730Y-13932D01*
X-30584Y-14044D01*
X-30414Y-14115D01*
X-30231Y-14139D01*
X-30048Y-14115D01*
X-29878Y-14044D01*
X-29732Y-13932D01*
X-29619Y-13786D01*
X-29549Y-13616D01*
X-29525Y-13433D01*
X-29549Y-13250D01*
X-29619Y-13080D01*
X-29732Y-12934D01*
X-29878Y-12821D01*
X-30048Y-12751D01*
X-30231Y-12727D01*
D02*
G37*
G36*
X-33500Y-10618D02*
X-33683Y-10642D01*
X-33853Y-10713D01*
X-33999Y-10825D01*
X-34111Y-10971D01*
X-34142Y-11044D01*
X-34358D01*
X-34389Y-10971D01*
X-34501Y-10825D01*
X-34647Y-10713D01*
X-34817Y-10642D01*
X-35000Y-10618D01*
X-35183Y-10642D01*
X-35353Y-10713D01*
X-35499Y-10825D01*
X-35611Y-10971D01*
X-35682Y-11141D01*
X-35706Y-11324D01*
X-35682Y-11507D01*
X-35611Y-11677D01*
X-35499Y-11823D01*
X-35353Y-11936D01*
X-35183Y-12006D01*
X-35000Y-12030D01*
X-34817Y-12006D01*
X-34647Y-11936D01*
X-34501Y-11823D01*
X-34389Y-11677D01*
X-34358Y-11604D01*
X-34142D01*
X-34111Y-11677D01*
X-33999Y-11823D01*
X-33853Y-11936D01*
X-33683Y-12006D01*
X-33500Y-12030D01*
X-33317Y-12006D01*
X-33147Y-11936D01*
X-33001Y-11823D01*
X-32889Y-11677D01*
X-32818Y-11507D01*
X-32794Y-11324D01*
X-32818Y-11141D01*
X-32889Y-10971D01*
X-33001Y-10825D01*
X-33147Y-10713D01*
X-33317Y-10642D01*
X-33500Y-10618D01*
D02*
G37*
G36*
X-37000Y-9794D02*
X-37183Y-9818D01*
X-37353Y-9889D01*
X-37499Y-10001D01*
X-37611Y-10147D01*
X-37682Y-10317D01*
X-37706Y-10500D01*
X-37705Y-10504D01*
X-37700Y-10686D01*
X-37867Y-10716D01*
X-37883Y-10718D01*
X-38053Y-10789D01*
X-38199Y-10901D01*
X-38358Y-10779D01*
X-38318Y-10683D01*
X-38294Y-10500D01*
X-38318Y-10317D01*
X-38389Y-10147D01*
X-38501Y-10001D01*
X-38647Y-9889D01*
X-38817Y-9818D01*
X-39000Y-9794D01*
X-39183Y-9818D01*
X-39353Y-9889D01*
X-39499Y-10001D01*
X-39611Y-10147D01*
X-39682Y-10317D01*
X-39706Y-10500D01*
X-39699Y-10550D01*
X-39738Y-10605D01*
X-39880Y-10710D01*
X-40000Y-10694D01*
X-40183Y-10718D01*
X-40353Y-10789D01*
X-40499Y-10901D01*
X-40611Y-11047D01*
X-40682Y-11217D01*
X-40706Y-11400D01*
X-40682Y-11583D01*
X-40611Y-11753D01*
X-40499Y-11899D01*
X-40353Y-12011D01*
X-40183Y-12082D01*
X-40000Y-12106D01*
X-39817Y-12082D01*
X-39647Y-12011D01*
X-39501Y-11899D01*
X-39389Y-11753D01*
X-39318Y-11583D01*
X-39294Y-11400D01*
X-39301Y-11350D01*
X-39262Y-11295D01*
X-39120Y-11190D01*
X-39000Y-11206D01*
X-38817Y-11182D01*
X-38647Y-11111D01*
X-38501Y-10999D01*
X-38342Y-11121D01*
X-38382Y-11217D01*
X-38406Y-11400D01*
X-38382Y-11583D01*
X-38311Y-11753D01*
X-38199Y-11899D01*
X-38053Y-12011D01*
X-37883Y-12082D01*
X-37700Y-12106D01*
X-37517Y-12082D01*
X-37347Y-12011D01*
X-37201Y-11899D01*
X-37089Y-11753D01*
X-37018Y-11583D01*
X-36994Y-11400D01*
X-36995Y-11396D01*
X-37000Y-11214D01*
X-36833Y-11184D01*
X-36817Y-11182D01*
X-36647Y-11111D01*
X-36501Y-10999D01*
X-36389Y-10853D01*
X-36318Y-10683D01*
X-36294Y-10500D01*
X-36318Y-10317D01*
X-36389Y-10147D01*
X-36501Y-10001D01*
X-36647Y-9889D01*
X-36817Y-9818D01*
X-37000Y-9794D01*
D02*
G37*
G36*
X-26543Y-9869D02*
X-26725Y-9893D01*
X-26896Y-9964D01*
X-27042Y-10076D01*
X-27154Y-10222D01*
X-27225Y-10392D01*
X-27249Y-10575D01*
X-27225Y-10758D01*
X-27154Y-10928D01*
X-27042Y-11074D01*
X-26896Y-11186D01*
X-26725Y-11257D01*
X-26543Y-11281D01*
X-26360Y-11257D01*
X-26190Y-11186D01*
X-26043Y-11074D01*
X-25931Y-10928D01*
X-25861Y-10758D01*
X-25837Y-10575D01*
X-25861Y-10392D01*
X-25931Y-10222D01*
X-26043Y-10076D01*
X-26190Y-9964D01*
X-26360Y-9893D01*
X-26543Y-9869D01*
D02*
G37*
G36*
X-24700Y-8799D02*
X-24883Y-8823D01*
X-25053Y-8894D01*
X-25199Y-9006D01*
X-25311Y-9152D01*
X-25382Y-9322D01*
X-25406Y-9505D01*
X-25382Y-9688D01*
X-25311Y-9858D01*
X-25238Y-9954D01*
X-25299Y-10001D01*
X-25411Y-10147D01*
X-25482Y-10317D01*
X-25506Y-10500D01*
X-25482Y-10683D01*
X-25411Y-10853D01*
X-25299Y-10999D01*
X-25153Y-11111D01*
X-24983Y-11182D01*
X-24800Y-11206D01*
X-24617Y-11182D01*
X-24447Y-11111D01*
X-24301Y-10999D01*
X-24189Y-10853D01*
X-24118Y-10683D01*
X-24094Y-10500D01*
X-24118Y-10317D01*
X-24189Y-10147D01*
X-24262Y-10051D01*
X-24201Y-10004D01*
X-24089Y-9858D01*
X-24018Y-9688D01*
X-23994Y-9505D01*
X-24018Y-9322D01*
X-24089Y-9152D01*
X-24201Y-9006D01*
X-24347Y-8894D01*
X-24517Y-8823D01*
X-24700Y-8799D01*
D02*
G37*
G36*
X-28121Y9299D02*
X-28304Y9274D01*
X-28474Y9204D01*
X-28621Y9092D01*
X-28733Y8946D01*
X-28803Y8775D01*
X-28827Y8592D01*
X-28803Y8410D01*
X-28797Y8394D01*
X-28853Y8291D01*
X-28934Y8202D01*
X-29083Y8182D01*
X-29253Y8111D01*
X-29399Y7999D01*
X-29511Y7853D01*
X-29582Y7683D01*
X-29606Y7500D01*
X-29582Y7317D01*
X-29511Y7147D01*
X-29399Y7001D01*
X-29253Y6889D01*
X-29083Y6818D01*
X-28900Y6794D01*
X-28717Y6818D01*
X-28547Y6889D01*
X-28401Y7001D01*
X-28288Y7147D01*
X-28218Y7317D01*
X-28194Y7500D01*
X-28218Y7683D01*
X-28224Y7698D01*
X-28168Y7802D01*
X-28088Y7891D01*
X-27939Y7911D01*
X-27768Y7981D01*
X-27622Y8093D01*
X-27510Y8239D01*
X-27439Y8410D01*
X-27415Y8592D01*
X-27439Y8775D01*
X-27510Y8946D01*
X-27622Y9092D01*
X-27768Y9204D01*
X-27939Y9274D01*
X-28121Y9299D01*
D02*
G37*
G36*
X-39100Y9806D02*
X-39283Y9782D01*
X-39453Y9711D01*
X-39599Y9599D01*
X-39711Y9453D01*
X-39782Y9283D01*
X-39806Y9100D01*
X-39782Y8917D01*
X-39711Y8747D01*
X-39599Y8601D01*
X-39453Y8489D01*
X-39283Y8418D01*
X-39100Y8394D01*
X-38917Y8418D01*
X-38747Y8489D01*
X-38601Y8601D01*
X-38489Y8747D01*
X-38418Y8917D01*
X-38394Y9100D01*
X-38418Y9283D01*
X-38489Y9453D01*
X-38601Y9599D01*
X-38747Y9711D01*
X-38917Y9782D01*
X-39100Y9806D01*
D02*
G37*
G36*
X-28217Y6331D02*
X-28400Y6307D01*
X-28570Y6236D01*
X-28716Y6124D01*
X-28828Y5978D01*
X-28899Y5808D01*
X-28923Y5625D01*
X-28899Y5442D01*
X-28828Y5272D01*
X-28716Y5126D01*
X-28570Y5014D01*
X-28400Y4943D01*
X-28217Y4919D01*
X-28034Y4943D01*
X-27864Y5014D01*
X-27718Y5126D01*
X-27605Y5272D01*
X-27535Y5442D01*
X-27511Y5625D01*
X-27535Y5808D01*
X-27605Y5978D01*
X-27718Y6124D01*
X-27864Y6236D01*
X-28034Y6307D01*
X-28217Y6331D01*
D02*
G37*
G36*
X-32800Y7228D02*
X-32983Y7204D01*
X-33153Y7134D01*
X-33299Y7022D01*
X-33411Y6875D01*
X-33482Y6705D01*
X-33506Y6522D01*
X-33482Y6340D01*
X-33422Y6195D01*
X-33597Y6094D01*
X-33601Y6099D01*
X-33747Y6211D01*
X-33917Y6282D01*
X-34100Y6306D01*
X-34283Y6282D01*
X-34453Y6211D01*
X-34599Y6099D01*
X-34711Y5953D01*
X-34782Y5783D01*
X-34806Y5600D01*
X-34782Y5417D01*
X-34711Y5247D01*
X-34599Y5101D01*
X-34453Y4989D01*
X-34283Y4918D01*
X-34100Y4894D01*
X-33917Y4918D01*
X-33747Y4989D01*
X-33601Y5101D01*
X-33488Y5247D01*
X-33418Y5417D01*
X-33394Y5600D01*
X-33418Y5783D01*
X-33478Y5928D01*
X-33303Y6028D01*
X-33299Y6023D01*
X-33153Y5911D01*
X-32983Y5840D01*
X-32800Y5816D01*
X-32617Y5840D01*
X-32447Y5911D01*
X-32301Y6023D01*
X-32189Y6169D01*
X-32118Y6340D01*
X-32094Y6522D01*
X-32118Y6705D01*
X-32189Y6875D01*
X-32301Y7022D01*
X-32447Y7134D01*
X-32617Y7204D01*
X-32800Y7228D01*
D02*
G37*
G36*
X-15217Y13894D02*
X-15400Y13870D01*
X-15570Y13799D01*
X-15716Y13687D01*
X-15829Y13541D01*
X-15899Y13370D01*
X-15923Y13188D01*
X-15899Y13005D01*
X-15829Y12835D01*
X-15716Y12688D01*
X-15570Y12576D01*
X-15400Y12506D01*
X-15217Y12482D01*
X-15034Y12506D01*
X-14864Y12576D01*
X-14718Y12688D01*
X-14606Y12835D01*
X-14535Y13005D01*
X-14511Y13188D01*
X-14535Y13370D01*
X-14606Y13541D01*
X-14718Y13687D01*
X-14864Y13799D01*
X-15034Y13870D01*
X-15217Y13894D01*
D02*
G37*
G36*
X-38600Y5659D02*
X-38783Y5635D01*
X-38953Y5565D01*
X-39099Y5453D01*
X-39211Y5306D01*
X-39282Y5136D01*
X-39306Y4953D01*
X-39282Y4771D01*
X-39211Y4600D01*
X-39099Y4454D01*
X-38953Y4342D01*
X-38783Y4271D01*
X-38600Y4247D01*
X-38417Y4271D01*
X-38247Y4342D01*
X-38101Y4454D01*
X-37988Y4600D01*
X-37918Y4771D01*
X-37894Y4953D01*
X-37918Y5136D01*
X-37988Y5306D01*
X-38101Y5453D01*
X-38247Y5565D01*
X-38417Y5635D01*
X-38600Y5659D01*
D02*
G37*
G36*
X-32243Y-1113D02*
X-32426Y-1137D01*
X-32596Y-1208D01*
X-32742Y-1320D01*
X-32855Y-1466D01*
X-32925Y-1636D01*
X-32949Y-1819D01*
X-32925Y-2002D01*
X-32855Y-2172D01*
X-32742Y-2318D01*
X-32596Y-2431D01*
X-32426Y-2501D01*
X-32243Y-2525D01*
X-32060Y-2501D01*
X-31890Y-2431D01*
X-31744Y-2318D01*
X-31632Y-2172D01*
X-31561Y-2002D01*
X-31537Y-1819D01*
X-31561Y-1636D01*
X-31632Y-1466D01*
X-31744Y-1320D01*
X-31890Y-1208D01*
X-32060Y-1137D01*
X-32243Y-1113D01*
D02*
G37*
G36*
X-33500Y-2470D02*
X-33683Y-2494D01*
X-33853Y-2564D01*
X-33999Y-2677D01*
X-34111Y-2823D01*
X-34182Y-2993D01*
X-34206Y-3176D01*
X-34182Y-3359D01*
X-34111Y-3529D01*
X-33999Y-3675D01*
X-33853Y-3787D01*
X-33683Y-3858D01*
X-33500Y-3882D01*
X-33317Y-3858D01*
X-33147Y-3787D01*
X-33001Y-3675D01*
X-32889Y-3529D01*
X-32818Y-3359D01*
X-32794Y-3176D01*
X-32818Y-2993D01*
X-32889Y-2823D01*
X-33001Y-2677D01*
X-33147Y-2564D01*
X-33317Y-2494D01*
X-33500Y-2470D01*
D02*
G37*
G36*
X-28800Y-1390D02*
X-28983Y-1414D01*
X-29153Y-1485D01*
X-29299Y-1597D01*
X-29411Y-1743D01*
X-29482Y-1913D01*
X-29506Y-2096D01*
X-29482Y-2279D01*
X-29411Y-2449D01*
X-29299Y-2595D01*
X-29153Y-2707D01*
X-28983Y-2778D01*
X-28800Y-2802D01*
X-28617Y-2778D01*
X-28447Y-2707D01*
X-28301Y-2595D01*
X-28189Y-2449D01*
X-28118Y-2279D01*
X-28094Y-2096D01*
X-28118Y-1913D01*
X-28189Y-1743D01*
X-28301Y-1597D01*
X-28447Y-1485D01*
X-28617Y-1414D01*
X-28800Y-1390D01*
D02*
G37*
G36*
X-29100Y3138D02*
X-29283Y3113D01*
X-29453Y3043D01*
X-29599Y2931D01*
X-29712Y2785D01*
X-29782Y2614D01*
X-29806Y2431D01*
X-29782Y2249D01*
X-29712Y2078D01*
X-29599Y1932D01*
X-29453Y1820D01*
X-29283Y1750D01*
X-29100Y1725D01*
X-28917Y1750D01*
X-28747Y1820D01*
X-28601Y1932D01*
X-28489Y2078D01*
X-28418Y2249D01*
X-28394Y2431D01*
X-28418Y2614D01*
X-28489Y2785D01*
X-28601Y2931D01*
X-28747Y3043D01*
X-28917Y3113D01*
X-29100Y3138D01*
D02*
G37*
G36*
X-32400Y4706D02*
X-32583Y4682D01*
X-32753Y4611D01*
X-32899Y4499D01*
X-33011Y4353D01*
X-33082Y4183D01*
X-33106Y4000D01*
X-33082Y3817D01*
X-33011Y3647D01*
X-32899Y3501D01*
X-32753Y3389D01*
X-32583Y3318D01*
X-32400Y3294D01*
X-32217Y3318D01*
X-32047Y3389D01*
X-31901Y3501D01*
X-31788Y3647D01*
X-31718Y3817D01*
X-31694Y4000D01*
X-31718Y4183D01*
X-31788Y4353D01*
X-31901Y4499D01*
X-32047Y4611D01*
X-32217Y4682D01*
X-32400Y4706D01*
D02*
G37*
G36*
X-38480Y247D02*
X-38663Y223D01*
X-38833Y152D01*
X-38979Y40D01*
X-39091Y-106D01*
X-39162Y-277D01*
X-39186Y-459D01*
X-39162Y-642D01*
X-39091Y-812D01*
X-38979Y-959D01*
X-38833Y-1071D01*
X-38663Y-1141D01*
X-38480Y-1165D01*
X-38297Y-1141D01*
X-38127Y-1071D01*
X-37981Y-959D01*
X-37869Y-812D01*
X-37798Y-642D01*
X-37774Y-459D01*
X-37798Y-277D01*
X-37869Y-106D01*
X-37981Y40D01*
X-38127Y152D01*
X-38297Y223D01*
X-38480Y247D01*
D02*
G37*
G36*
X-33477Y1623D02*
X-33659Y1599D01*
X-33830Y1528D01*
X-33976Y1416D01*
X-34088Y1270D01*
X-34159Y1099D01*
X-34183Y917D01*
X-34159Y734D01*
X-34088Y564D01*
X-33976Y417D01*
X-33830Y305D01*
X-33659Y235D01*
X-33477Y211D01*
X-33294Y235D01*
X-33124Y305D01*
X-32994Y404D01*
X-32949Y346D01*
X-32803Y234D01*
X-32633Y163D01*
X-32450Y139D01*
X-32267Y163D01*
X-32097Y234D01*
X-31951Y346D01*
X-31839Y492D01*
X-31768Y662D01*
X-31744Y845D01*
X-31768Y1028D01*
X-31839Y1198D01*
X-31951Y1344D01*
X-32097Y1456D01*
X-32267Y1527D01*
X-32450Y1551D01*
X-32633Y1527D01*
X-32803Y1456D01*
X-32932Y1357D01*
X-32977Y1416D01*
X-33124Y1528D01*
X-33294Y1599D01*
X-33477Y1623D01*
D02*
G37*
%LPD*%
D12*
X-43175Y6000D02*
D03*
Y10500D02*
D03*
D13*
X-22700Y11562D02*
G03*
X-23000Y10837I724J-724D01*
G01*
X-23744Y1731D02*
G03*
X-23000Y3527I-1796J1796D01*
G01*
X-43175Y6000D02*
G03*
X-44277Y4898I0J-1102D01*
G01*
Y-600D02*
G03*
X-43553Y-2347I2470J0D01*
G01*
X-31778Y11302D02*
G03*
X-30505Y10775I1273J1273D01*
G01*
X-27390Y1355D02*
G03*
X-24850Y3895I0J2540D01*
G01*
Y9750D02*
G03*
X-25875Y10775I-1025J0D01*
G01*
X-26059Y400D02*
G03*
X-24379Y1096I0J2375D01*
G01*
X-23000Y3527D02*
Y10837D01*
X-44277Y-600D02*
Y4898D01*
X-43553Y-2347D02*
X-43050Y-2850D01*
X-32501Y12025D02*
X-31778Y11302D01*
X-27550Y1355D02*
X-27390D01*
X-24850Y3895D02*
Y9750D01*
X-30505Y10775D02*
X-25875D01*
X-27550Y400D02*
X-26059D01*
X-24379Y1096D02*
X-23744Y1731D01*
D43*
X-18835Y13038D02*
D03*
X-41818Y4517D02*
D03*
X-40912Y-8100D02*
D03*
X-36895Y9501D02*
D03*
X-39754Y-3150D02*
D03*
X-43050Y-2850D02*
D03*
X-19300Y-8900D02*
D03*
X-32000Y-13683D02*
D03*
X-37700Y8683D02*
D03*
X-27760Y-2557D02*
D03*
X-21625Y-2725D02*
D03*
X-20875D02*
D03*
Y-3500D02*
D03*
X-21625D02*
D03*
X-36783Y8728D02*
D03*
X-41617Y-12095D02*
D03*
X-29595Y-12208D02*
D03*
X-31211Y2700D02*
D03*
X-35800D02*
D03*
X-17935Y-10844D02*
D03*
X-23010Y-13475D02*
D03*
X-23600Y-12050D02*
D03*
X-25650Y-6350D02*
D03*
X-37700Y9475D02*
D03*
Y10200D02*
D03*
X-15200Y11900D02*
D03*
X-28200Y6700D02*
D03*
X-29482Y14100D02*
D03*
X-32501Y12025D02*
D03*
X-27550Y400D02*
D03*
Y1355D02*
D03*
X-22700Y11562D02*
D03*
M02*
